<svg width="100" height="100" viewBox="0 0 100 100" fill="none" xmlns="http://www.w3.org/2000/svg">
<rect width="100" height="100" rx="25" fill="black"/>
<path d="M74.6061 81H21.5019C16.7932 81 13 76.8186 13 71.6279V21.1628C13 19.9372 13.8502 19 14.962 19H31.0502C33.9278 19 36.5437 20.586 38.1133 23.1814L40.7947 27.5791C41.6449 29.0209 43.0836 29.814 44.5878 29.814H67.2814C71.9901 29.814 75.7833 33.9953 75.7833 39.186V64.4186C75.7833 65.6442 74.9331 66.5814 73.8213 66.5814C72.7095 66.5814 71.8593 65.6442 71.8593 64.4186V39.186C71.8593 36.3744 69.8319 34.1395 67.2814 34.1395H44.6532C41.7757 34.1395 39.1597 32.5535 37.5901 29.9581L34.9087 25.5605C34.0586 24.1186 32.6198 23.3256 31.1156 23.3256H16.924V71.6279C16.924 74.4395 18.9513 76.6744 21.5019 76.6744H74.6061C76.8951 76.6744 78.857 74.8 79.1186 72.2767L84.0236 32.6256C84.1544 31.1837 83.762 29.7419 82.9118 28.6605C82.0616 27.5791 80.819 26.9302 79.511 26.9302C78.3992 26.9302 77.549 25.993 77.549 24.7674C77.549 23.5419 78.3992 22.6047 79.511 22.6047C81.9308 22.6047 84.2852 23.7581 85.8548 25.7767C87.4897 27.7953 88.2091 30.4628 87.9475 33.1302L83.0426 72.7814C82.5194 77.4674 78.857 81 74.6061 81Z" fill="white"/>
<path d="M79.511 26.9303H37.1977C36.0859 26.9303 35.2357 25.9931 35.2357 24.7675C35.2357 23.5419 36.0859 22.6047 37.1977 22.6047H79.511C80.6228 22.6047 81.473 23.5419 81.473 24.7675C81.473 25.9931 80.5574 26.9303 79.511 26.9303Z" fill="white"/>
<ellipse cx="28.5" cy="48" rx="4.5" ry="5" fill="white"/>
<ellipse cx="60.5" cy="48" rx="4.5" ry="5" fill="white"/>
<path d="M52 49C52 53.4182 48.6421 57 44.5 57C40.3579 57 37 53.4182 37 49C44.1512 49 40.3579 49 44.5 49C48.6421 49 45.7209 49 52 49Z" fill="white"/>
</svg>
