<svg xmlns="http://www.w3.org/2000/svg"><style>:root svg:not(:target){display:none}</style><svg viewBox="0 0 937.5 937.5" id="advantages-icon"><g id="advantages-icon_0"><path d="M 875 125 L 875 156.25 C 892.261719 156.25 906.25 170.238281 906.25 187.5 L 906.25 656.25 L 31.25 656.25 L 31.25 187.5 C 31.25 170.238281 45.238281 156.25 62.5 156.25 L 62.5 125 C 27.984375 125 0 152.984375 0 187.5 L 0 718.75 C 0 753.265625 27.984375 781.25 62.5 781.25 L 369.625 781.25 L 332.125 906.25 L 296.875 906.25 L 296.875 937.5 L 640.625 937.5 L 640.625 906.25 L 605.375 906.25 L 567.875 781.25 L 875 781.25 C 909.515625 781.25 937.5 753.265625 937.5 718.75 L 937.5 187.5 C 937.5 152.984375 909.515625 125 875 125 Z M 572.75 906.25 L 364.75 906.25 L 402.25 781.25 L 535.25 781.25 Z M 906.25 718.75 C 906.25 736.011719 892.261719 750 875 750 L 62.5 750 C 45.238281 750 31.25 736.011719 31.25 718.75 L 31.25 687.5 L 906.25 687.5 Z M 906.25 718.75 " style="stroke: none; fill-rule: nonzero; fill-opacity: 1; fill: rgb(254, 251, 251);" fill="rgb(0%,0%,0%)"></path><path d="M 93.75 62.5 L 93.75 625 L 125 625 L 125 62.5 C 125 45.238281 138.988281 31.25 156.25 31.25 L 781.25 31.25 C 798.511719 31.25 812.5 45.238281 812.5 62.5 L 812.5 625 L 843.75 625 L 843.75 62.5 C 843.75 27.984375 815.765625 0 781.25 0 L 156.25 0 C 121.734375 0 93.75 27.984375 93.75 62.5 Z M 93.75 62.5 " style="stroke: none; fill-rule: nonzero; fill-opacity: 1; fill: rgb(254, 251, 251);" fill="rgb(0%,0%,0%)"></path><path d="M 156.25 62.5 L 187.5 62.5 L 187.5 93.75 L 156.25 93.75 Z M 156.25 62.5 " style="stroke: none; fill-rule: nonzero; fill-opacity: 1; fill: rgb(254, 251, 251);" fill="rgb(0%,0%,0%)"></path><path d="M 218.75 62.5 L 250 62.5 L 250 93.75 L 218.75 93.75 Z M 218.75 62.5 " style="stroke: none; fill-rule: nonzero; fill-opacity: 1; fill: rgb(254, 251, 251);" fill="rgb(0%,0%,0%)"></path><path d="M 281.25 62.5 L 312.5 62.5 L 312.5 93.75 L 281.25 93.75 Z M 281.25 62.5 " style="stroke: none; fill-rule: nonzero; fill-opacity: 1; fill: rgb(254, 251, 251);" fill="rgb(0%,0%,0%)"></path><path d="M 156.25 125 L 781.25 125 L 781.25 156.25 L 156.25 156.25 Z M 156.25 125 " style="stroke: none; fill-rule: nonzero; fill-opacity: 1; fill: rgb(254, 251, 251);" fill="rgb(0%,0%,0%)"></path><path d="M 343.75 218.75 C 343.75 201.488281 329.761719 187.5 312.5 187.5 L 187.5 187.5 C 170.238281 187.5 156.25 201.488281 156.25 218.75 L 156.25 312.5 C 156.25 329.761719 170.238281 343.75 187.5 343.75 L 312.5 343.75 C 329.761719 343.75 343.75 329.761719 343.75 312.5 Z M 187.5 312.5 L 187.5 218.75 L 312.5 218.75 L 312.5 312.5 Z M 187.5 312.5 " style="stroke: none; fill-rule: nonzero; fill-opacity: 1; fill: rgb(254, 251, 251);" fill="rgb(0%,0%,0%)"></path><path d="M 562.5 218.75 C 562.5 201.488281 548.511719 187.5 531.25 187.5 L 406.25 187.5 C 388.988281 187.5 375 201.488281 375 218.75 L 375 312.5 C 375 329.761719 388.988281 343.75 406.25 343.75 L 531.25 343.75 C 548.511719 343.75 562.5 329.761719 562.5 312.5 Z M 406.25 312.5 L 406.25 218.75 L 531.25 218.75 L 531.25 312.5 Z M 406.25 312.5 " style="stroke: none; fill-rule: nonzero; fill-opacity: 1; fill: rgb(254, 251, 251);" fill="rgb(0%,0%,0%)"></path><path d="M 781.25 218.75 C 781.25 201.488281 767.261719 187.5 750 187.5 L 625 187.5 C 607.738281 187.5 593.75 201.488281 593.75 218.75 L 593.75 312.5 C 593.75 329.761719 607.738281 343.75 625 343.75 L 750 343.75 C 767.261719 343.75 781.25 329.761719 781.25 312.5 Z M 625 312.5 L 625 218.75 L 750 218.75 L 750 312.5 Z M 625 312.5 " style="stroke: none; fill-rule: nonzero; fill-opacity: 1; fill: rgb(254, 251, 251);" fill="rgb(0%,0%,0%)"></path><path d="M 343.75 406.25 C 343.75 388.988281 329.761719 375 312.5 375 L 187.5 375 C 170.238281 375 156.25 388.988281 156.25 406.25 L 156.25 500 C 156.25 517.261719 170.238281 531.25 187.5 531.25 L 312.5 531.25 C 329.761719 531.25 343.75 517.261719 343.75 500 Z M 187.5 500 L 187.5 406.25 L 312.5 406.25 L 312.5 500 Z M 187.5 500 " style="stroke: none; fill-rule: nonzero; fill-opacity: 1; fill: rgb(254, 251, 251);" fill="rgb(0%,0%,0%)"></path><path d="M 562.5 406.25 C 562.5 388.988281 548.511719 375 531.25 375 L 406.25 375 C 388.988281 375 375 388.988281 375 406.25 L 375 500 C 375 517.261719 388.988281 531.25 406.25 531.25 L 531.25 531.25 C 548.511719 531.25 562.5 517.261719 562.5 500 Z M 406.25 500 L 406.25 406.25 L 531.25 406.25 L 531.25 500 Z M 406.25 500 " style="stroke: none; fill-rule: nonzero; fill-opacity: 1; fill: rgb(254, 251, 251);" fill="rgb(0%,0%,0%)"></path><path d="M 781.25 406.25 C 781.25 388.988281 767.261719 375 750 375 L 625 375 C 607.738281 375 593.75 388.988281 593.75 406.25 L 593.75 500 C 593.75 517.261719 607.738281 531.25 625 531.25 L 750 531.25 C 767.261719 531.25 781.25 517.261719 781.25 500 Z M 625 500 L 625 406.25 L 750 406.25 L 750 500 Z M 625 500 " style="stroke: none; fill-rule: nonzero; fill-opacity: 1; fill: rgb(254, 251, 251);" fill="rgb(0%,0%,0%)"></path><path d="M 343.75 625 L 343.75 593.75 C 343.75 576.488281 329.761719 562.5 312.5 562.5 L 187.5 562.5 C 170.238281 562.5 156.25 576.488281 156.25 593.75 L 156.25 625 L 187.5 625 L 187.5 593.75 L 312.5 593.75 L 312.5 625 Z M 343.75 625 " style="stroke: none; fill-rule: nonzero; fill-opacity: 1; fill: rgb(254, 251, 251);" fill="rgb(0%,0%,0%)"></path><path d="M 562.5 625 L 562.5 593.75 C 562.5 576.488281 548.511719 562.5 531.25 562.5 L 406.25 562.5 C 388.988281 562.5 375 576.488281 375 593.75 L 375 625 L 406.25 625 L 406.25 593.75 L 531.25 593.75 L 531.25 625 Z M 562.5 625 " style="stroke: none; fill-rule: nonzero; fill-opacity: 1; fill: rgb(254, 251, 251);" fill="rgb(0%,0%,0%)"></path><path d="M 781.25 625 L 781.25 593.75 C 781.25 576.488281 767.261719 562.5 750 562.5 L 625 562.5 C 607.738281 562.5 593.75 576.488281 593.75 593.75 L 593.75 625 L 625 625 L 625 593.75 L 750 593.75 L 750 625 Z M 781.25 625 " style="stroke: none; fill-rule: nonzero; fill-opacity: 1; fill: rgb(254, 251, 251);" fill="rgb(0%,0%,0%)"></path></g></svg><svg id="arrow-down" viewBox="0 0 612 612" style="enable-background:new 0 0 612 612;"><g><g id="arrow-down_0"><g><path d="M604.501,134.782c-9.999-10.05-26.222-10.05-36.221,0L306.014,422.558L43.721,134.782 c-9.999-10.05-26.223-10.05-36.222,0s-9.999,26.35,0,36.399l279.103,306.241c5.331,5.357,12.422,7.652,19.386,7.296 c6.988,0.356,14.055-1.939,19.386-7.296l279.128-306.268C614.5,161.106,614.5,144.832,604.501,134.782z" fill="#000000" style="fill: rgb(255, 255, 255);"></path></g></g></g></svg><svg viewBox="0 0 24 24" fill="none" id="burger"><g clip-path="url(#burger_0)"><path fill-rule="evenodd" clip-rule="evenodd" d="M5 4.25C4.30964 4.25 3.75 4.80964 3.75 5.5C3.75 6.19036 4.30964 6.75 5 6.75H19C19.6904 6.75 20.25 6.19036 20.25 5.5C20.25 4.80964 19.6904 4.25 19 4.25H5ZM3.75 12C3.75 11.3096 4.30964 10.75 5 10.75H19C19.6904 10.75 20.25 11.3096 20.25 12C20.25 12.6904 19.6904 13.25 19 13.25H5C4.30964 13.25 3.75 12.6904 3.75 12ZM3.75 18.5C3.75 17.8096 4.30964 17.25 5 17.25H19C19.6904 17.25 20.25 17.8096 20.25 18.5C20.25 19.1904 19.6904 19.75 19 19.75H5C4.30964 19.75 3.75 19.1904 3.75 18.5Z" fill="white"></path></g><defs><clipPath id="burger_0"><rect width="24" height="24" fill="white"></rect></clipPath></defs></svg><svg id="calendar" viewBox="0 0 465 465" style="enable-background:new 0 0 465 465;"><g><path d="M464.907,402.456L410.614,60.194c-0.002-0.013-0.006-0.024-0.008-0.037c-0.017-0.104-0.043-0.204-0.065-0.307 c-0.032-0.157-0.063-0.314-0.105-0.468c-0.024-0.087-0.055-0.172-0.082-0.258c-0.052-0.167-0.105-0.333-0.168-0.494 c-0.03-0.074-0.064-0.147-0.096-0.222c-0.072-0.168-0.147-0.335-0.231-0.495c-0.036-0.069-0.076-0.137-0.114-0.205 c-0.09-0.161-0.184-0.319-0.286-0.473c-0.043-0.066-0.089-0.131-0.135-0.195c-0.107-0.151-0.219-0.298-0.336-0.439 c-0.027-0.033-0.05-0.069-0.078-0.103c-0.024-0.028-0.052-0.052-0.076-0.08c-0.125-0.142-0.256-0.277-0.39-0.409 c-0.052-0.051-0.102-0.102-0.155-0.15c-0.152-0.141-0.311-0.272-0.473-0.399c-0.04-0.031-0.078-0.064-0.118-0.095 c-0.839-0.629-1.807-1.079-2.848-1.313c-0.033-0.007-0.067-0.013-0.1-0.02c-0.219-0.046-0.439-0.083-0.663-0.109 c-0.059-0.007-0.119-0.011-0.179-0.017c-0.195-0.018-0.39-0.029-0.588-0.032c-0.038,0-0.076-0.006-0.114-0.006H61.793 c-3.688,0-6.829,2.682-7.407,6.325L0.093,402.456c-0.344,2.167,0.278,4.376,1.703,6.045c1.426,1.669,3.51,2.63,5.704,2.63h341.414 c3.688,0,6.829-2.682,7.407-6.325l46.886-295.566l45.51,286.892h-71.205c-4.143,0-7.5,3.357-7.5,7.5s3.357,7.5,7.5,7.5H457.5 c2.194,0,4.278-0.961,5.703-2.63C464.629,406.832,465.251,404.623,464.907,402.456z M342.51,396.131H16.283l35.28-222.403H377.79 L342.51,396.131z M380.169,158.727H53.943l14.254-89.858h326.227L380.169,158.727z" fill="currentColor"></path><path d="M119.246,121.299H329.12c4.143,0,7.5-3.357,7.5-7.5s-3.357-7.5-7.5-7.5H119.246c-4.143,0-7.5,3.357-7.5,7.5 S115.103,121.299,119.246,121.299z" fill="currentColor"></path><path d="M131.626,223.619h-30.991c-4.143,0-7.5,3.357-7.5,7.5s3.357,7.5,7.5,7.5h30.991c4.143,0,7.5-3.357,7.5-7.5 S135.768,223.619,131.626,223.619z" fill="currentColor"></path><path d="M221.068,223.619h-30.991c-4.143,0-7.5,3.357-7.5,7.5s3.357,7.5,7.5,7.5h30.991c4.143,0,7.5-3.357,7.5-7.5 S225.211,223.619,221.068,223.619z" fill="currentColor"></path><path d="M310.51,223.619h-30.991c-4.143,0-7.5,3.357-7.5,7.5s3.357,7.5,7.5,7.5h30.991c4.143,0,7.5-3.357,7.5-7.5 S314.652,223.619,310.51,223.619z" fill="currentColor"></path><path d="M123.091,277.43H92.099c-4.143,0-7.5,3.357-7.5,7.5s3.357,7.5,7.5,7.5h30.992c4.143,0,7.5-3.357,7.5-7.5 S127.233,277.43,123.091,277.43z" fill="currentColor"></path><path d="M212.532,277.43h-30.991c-4.143,0-7.5,3.357-7.5,7.5s3.357,7.5,7.5,7.5h30.991c4.143,0,7.5-3.357,7.5-7.5 S216.675,277.43,212.532,277.43z" fill="currentColor"></path><path d="M301.974,277.43h-30.991c-4.143,0-7.5,3.357-7.5,7.5s3.357,7.5,7.5,7.5h30.991c4.143,0,7.5-3.357,7.5-7.5 S306.116,277.43,301.974,277.43z" fill="currentColor"></path><path d="M114.555,331.239H83.563c-4.143,0-7.5,3.357-7.5,7.5s3.357,7.5,7.5,7.5h30.991c4.143,0,7.5-3.357,7.5-7.5 S118.697,331.239,114.555,331.239z" fill="currentColor"></path><path d="M203.996,331.239h-30.991c-4.143,0-7.5,3.357-7.5,7.5s3.357,7.5,7.5,7.5h30.991c4.143,0,7.5-3.357,7.5-7.5 S208.139,331.239,203.996,331.239z" fill="currentColor"></path><path d="M293.438,331.239h-30.992c-4.143,0-7.5,3.357-7.5,7.5s3.357,7.5,7.5,7.5h30.992c4.143,0,7.5-3.357,7.5-7.5 S297.581,331.239,293.438,331.239z" fill="currentColor"></path></g></svg><svg viewBox="0 0 24 24" fill="none" id="close"><g clip-path="url(#close_0)"><path fill-rule="evenodd" clip-rule="evenodd" d="M5.61612 5.61612C6.10427 5.12796 6.89573 5.12796 7.38388 5.61612L12 10.2322L16.6161 5.61612C17.1043 5.12796 17.8957 5.12796 18.3839 5.61612C18.872 6.10427 18.872 6.89573 18.3839 7.38388L13.7678 12L18.3839 16.6161C18.872 17.1043 18.872 17.8957 18.3839 18.3839C17.8957 18.872 17.1043 18.872 16.6161 18.3839L12 13.7678L7.38388 18.3839C6.89573 18.872 6.10427 18.872 5.61612 18.3839C5.12796 17.8957 5.12796 17.1043 5.61612 16.6161L10.2322 12L5.61612 7.38388C5.12796 6.89573 5.12796 6.10427 5.61612 5.61612Z" fill="white"></path></g><defs><clipPath id="close_0"><rect width="24" height="24" fill="white"></rect></clipPath></defs></svg><svg viewBox="0 0 512 512" fill="none" id="dashboard"><path d="m197.332031 170.667969h-160c-20.585937 0-37.332031-16.746094-37.332031-37.335938v-96c0-20.585937 16.746094-37.332031 37.332031-37.332031h160c20.589844 0 37.335938 16.746094 37.335938 37.332031v96c0 20.589844-16.746094 37.335938-37.335938 37.335938zm-160-138.667969c-2.941406 0-5.332031 2.390625-5.332031 5.332031v96c0 2.945313 2.390625 5.335938 5.332031 5.335938h160c2.945313 0 5.335938-2.390625 5.335938-5.335938v-96c0-2.941406-2.390625-5.332031-5.335938-5.332031zm0 0" fill="currentColor"></path><path d="m197.332031 512h-160c-20.585937 0-37.332031-16.746094-37.332031-37.332031v-224c0-20.589844 16.746094-37.335938 37.332031-37.335938h160c20.589844 0 37.335938 16.746094 37.335938 37.335938v224c0 20.585937-16.746094 37.332031-37.335938 37.332031zm-160-266.667969c-2.941406 0-5.332031 2.390625-5.332031 5.335938v224c0 2.941406 2.390625 5.332031 5.332031 5.332031h160c2.945313 0 5.335938-2.390625 5.335938-5.332031v-224c0-2.945313-2.390625-5.335938-5.335938-5.335938zm0 0" fill="currentColor"></path><path d="m474.667969 512h-160c-20.589844 0-37.335938-16.746094-37.335938-37.332031v-96c0-20.589844 16.746094-37.335938 37.335938-37.335938h160c20.585937 0 37.332031 16.746094 37.332031 37.335938v96c0 20.585937-16.746094 37.332031-37.332031 37.332031zm-160-138.667969c-2.945313 0-5.335938 2.390625-5.335938 5.335938v96c0 2.941406 2.390625 5.332031 5.335938 5.332031h160c2.941406 0 5.332031-2.390625 5.332031-5.332031v-96c0-2.945313-2.390625-5.335938-5.332031-5.335938zm0 0" fill="currentColor"></path><path d="m474.667969 298.667969h-160c-20.589844 0-37.335938-16.746094-37.335938-37.335938v-224c0-20.585937 16.746094-37.332031 37.335938-37.332031h160c20.585937 0 37.332031 16.746094 37.332031 37.332031v224c0 20.589844-16.746094 37.335938-37.332031 37.335938zm-160-266.667969c-2.945313 0-5.335938 2.390625-5.335938 5.332031v224c0 2.945313 2.390625 5.335938 5.335938 5.335938h160c2.941406 0 5.332031-2.390625 5.332031-5.335938v-224c0-2.941406-2.390625-5.332031-5.332031-5.332031zm0 0" fill="currentColor" ></path></svg><svg id="eye-closed" viewBox="0 0 502.738 502.738" style="enable-background:new 0 0 502.738 502.738;"><path d="M497.588,231.909c-25.616-44.8-63.561-81.419-109.958-106.194l61.042-61.042c2.929-2.929,2.929-7.678,0-10.606 c-2.929-2.929-7.678-2.929-10.606,0L212.179,279.953c-6.042-8.253-9.31-18.181-9.31-28.583c0-26.743,21.757-48.5,48.5-48.5 c4.719,0,9.381,0.675,13.855,2.006c3.971,1.181,8.146-1.08,9.327-5.05c1.181-3.97-1.08-8.146-5.05-9.327 c-5.863-1.744-11.964-2.628-18.132-2.628c-35.014,0-63.5,28.486-63.5,63.5c0,14.411,4.798,28.122,13.614,39.28l-23.437,23.437 c-14.976-17.475-23.177-39.531-23.177-62.717c0-53.21,43.29-96.5,96.5-96.5c15.708,0,30.683,3.652,44.511,10.854 c3.674,1.913,8.204,0.486,10.117-3.188c1.914-3.673,0.486-8.203-3.187-10.116c-15.764-8.211-33.552-12.551-51.44-12.551 c-61.481,0-111.5,50.019-111.5,111.5c0,27.182,9.74,53.032,27.533,73.361l-41.179,41.179 c-45.745-23.452-83.101-58.89-108.052-102.525c-4.237-7.41-4.241-16.61-0.01-24.011c46.724-81.731,136.083-132.504,233.208-132.504 c29.332,0,58.146,4.547,85.645,13.515c3.938,1.284,8.171-0.867,9.456-4.805c1.284-3.938-0.867-8.172-4.805-9.456 c-29.002-9.458-59.381-14.254-90.295-14.254c-102.493,0-196.842,53.667-246.23,140.06c-6.855,11.993-6.851,26.898,0.011,38.901 c25.616,44.8,63.562,81.419,109.958,106.194l-61.042,61.042c-2.929,2.929-2.929,7.678,0,10.606c1.464,1.464,3.384,2.197,5.303,2.197 s3.839-0.732,5.303-2.197l225.887-225.887c6.042,8.253,9.31,18.181,9.31,28.583c0,26.743-21.757,48.5-48.5,48.5 c-4.729,0-9.399-0.678-13.881-2.014c-3.969-1.184-8.146,1.076-9.33,5.045c-1.183,3.97,1.075,8.146,5.045,9.33 c5.874,1.751,11.985,2.639,18.167,2.639c35.014,0,63.5-28.486,63.5-63.5c0-14.412-4.798-28.122-13.613-39.28l23.437-23.437 c14.976,17.475,23.176,39.532,23.176,62.717c0,53.21-43.29,96.5-96.5,96.5c-15.707,0-30.683-3.652-44.511-10.854 c-3.672-1.914-8.203-0.486-10.116,3.188c-1.914,3.674-0.486,8.203,3.187,10.116c15.765,8.211,33.552,12.551,51.44,12.551 c61.481,0,111.5-50.019,111.5-111.5c0-27.182-9.741-53.032-27.532-73.361l41.179-41.179 c45.746,23.453,83.101,58.891,108.051,102.525c4.237,7.41,4.241,16.611,0.01,24.011c-46.723,81.731-136.083,132.504-233.208,132.504 c-31.541,0-62.401-5.241-91.722-15.577c-3.908-1.376-8.19,0.674-9.566,4.58c-1.377,3.907,0.673,8.19,4.58,9.567 c30.928,10.902,63.465,16.43,96.709,16.43c102.493,0,196.843-53.668,246.23-140.059 C504.455,258.818,504.451,243.911,497.588,231.909z" fill="#000000" style="fill: rgb(255, 255, 255);"></path></svg><svg id="eye-open" viewBox="0 0 502.745 502.745" style="enable-background:new 0 0 502.745 502.745;"><g><path d="M497.605,231.935C448.218,145.541,353.867,91.872,251.372,91.872S54.528,145.541,5.141,231.935 c-6.854,11.989-6.854,26.886,0,38.875c49.387,86.394,143.738,140.063,246.232,140.063s196.845-53.669,246.232-140.063 C504.458,258.821,504.458,243.924,497.605,231.935z M484.582,263.366c-46.723,81.733-136.084,132.507-233.21,132.507 c-97.125,0-186.486-50.773-233.209-132.507c-4.229-7.397-4.229-16.589,0-23.986c46.723-81.733,136.084-132.507,233.209-132.507 c97.126,0,186.487,50.773,233.21,132.506C488.811,246.777,488.811,255.968,484.582,263.366z" fill="#000000" style="fill: rgb(255, 255, 255);"></path><path d="M251.372,139.872c-61.481,0-111.5,50.019-111.5,111.5s50.019,111.5,111.5,111.5s111.5-50.019,111.5-111.5 S312.854,139.872,251.372,139.872z M251.372,347.872c-53.21,0-96.5-43.29-96.5-96.5s43.29-96.5,96.5-96.5s96.5,43.29,96.5,96.5 S304.583,347.872,251.372,347.872z" fill="#000000" style="fill: rgb(255, 255, 255);"></path><path d="M298.757,220.586c-3.741,1.778-5.332,6.253-3.553,9.994c3.098,6.516,4.668,13.512,4.668,20.792 c0,26.743-21.757,48.5-48.5,48.5s-48.5-21.757-48.5-48.5s21.757-48.5,48.5-48.5c7.279,0,14.274,1.57,20.791,4.667 c3.742,1.779,8.216,0.187,9.994-3.554s0.187-8.215-3.554-9.993c-8.544-4.061-17.706-6.12-27.23-6.12 c-35.014,0-63.5,28.486-63.5,63.5s28.486,63.5,63.5,63.5s63.5-28.486,63.5-63.5c0-9.526-2.06-18.688-6.122-27.233 C306.973,220.399,302.5,218.807,298.757,220.586z" fill="#000000" style="fill: rgb(255, 255, 255);"></path></g></svg><svg id="group" viewBox="0 0 512 512"><g><path d="m0 75v437h256l31-239-31-198-119-37z" fill="#e6f8fc"></path><path d="m512 75-121-28-135 28v437h256z" fill="#d0e8ff"></path><path d="m246.594 190h-135.875c-19.144 0-34.719 15.575-34.719 34.719v89.125c0 19.144 15.575 34.719 34.719 34.719h59.281l86-67.651 11-45.912-11-43.694c-2.994-.845-6.146-1.306-9.406-1.306z" fill="#ff637b"></path><path d="m281.312 224.719c0-15.884-10.726-29.301-25.312-33.413v89.606l25.312-19.912z" fill="#e53950"></path><path d="m188.062 246.719c-19.144 0-34.719 15.575-34.719 34.719v89.125c0 19.144 15.575 34.719 34.719 34.719h58.938l9-7.116 15-81.166-15-70.281z" fill="#00ddc0"></path><path d="m358.656 281.438c0-19.144-15.575-34.719-34.719-34.719h-67.937v151.447l102.656-81.166z" fill="#00b5bd"></path><path d="m60 120h49v30h-49z" fill="#ff637b"></path><path d="m230.688 338.156v89.125c0 15.884 10.726 29.301 25.312 33.413l18-74.694-18-81.257c-14.586 4.112-25.312 17.53-25.312 33.413z" fill="#ffd92e"></path><path d="m401.281 303.438h-135.875c-3.26 0-6.413.461-9.406 1.306v155.951c2.994.844 6.146 1.306 9.406 1.306h135.875c19.144-.001 34.719-15.576 34.719-34.72v-89.125c0-19.143-15.575-34.718-34.719-34.718z" fill="#ffb54c"></path><path d="m0 0v75h256l14-36-14-39z" fill="#6354b1"></path><path d="m256 0h256v75h-256z" fill="#54469c"></path><path d="m139 150h117l10-15-10-15h-117z" fill="#6354b1"></path><path d="m256 120h87v30h-87z" fill="#54469c"></path></g></svg><svg id="help" viewBox="0 0 64 64"><linearGradient id="help_0" gradientUnits="userSpaceOnUse" x1="31.793" x2="31.793" y1="63.414" y2="1"><stop offset="0" stop-color="#9f2fff"></stop><stop offset="1" stop-color="#0bb1d3"></stop></linearGradient><path d="m63 19c0-7.168-5.832-13-13-13-3.479 0-6.636 1.381-8.971 3.615l-8.615-8.615h-20.414v2h19.586l8.108 8.108c-1.682 2.191-2.694 4.922-2.694 7.892 0 2.389.647 4.691 1.871 6.715l-3.144 3.144c-.486-1.093-1.577-1.859-2.848-1.859-.36 0-.707.072-1.037.188-.4-1.263-1.569-2.188-2.963-2.188-.808 0-1.565.31-2.147.865-.485-1.096-1.579-1.865-2.853-1.865-.834 0-1.618.325-2.207.914l-7.28 7.279c-.839.84-1.455 1.887-1.781 3.027l-1.146 4.01c-.233.814-.673 1.562-1.272 2.162l-1.193 1.194-1-1-7.414 7.414 14.414 14.414 7.414-7.414-1-1 1.194-1.193c.599-.6 1.347-1.04 2.162-1.271l4.553-1.302c.737-.211 1.43-.539 2.061-.975l11.054-7.653c.978-.677 1.562-1.792 1.562-2.981 0-1.999-1.626-3.625-3.625-3.625h-.701l-8.289 6.028 11.9-11.9c.627.379 1.279.705 1.954.971l1.872 15.901h15.889v-2h-2v-11h-2v11h-2v-5h-2v5h-2v-7h-2v7h-2.111l-1.563-13.282c.873.182 1.766.282 2.674.282 7.168 0 13-5.832 13-13zm-45 38.586-8.293-8.293-1.414 1.414 8.293 8.293-1.586 1.586-11.586-11.586 1.586-1.586 2.293 2.293 1.414-1.414-2.293-2.293 1.586-1.586 11.586 11.586zm11.325-11.586 11-8h.05c.896 0 1.625.729 1.625 1.625 0 .533-.262 1.032-.7 1.336l-11.054 7.653c-.451.312-.946.546-1.473.696l-4.551 1.301c-1.142.325-2.188.941-3.028 1.781l-1.194 1.194-9.586-9.586 1.194-1.193c.839-.84 1.455-1.887 1.781-3.027l1.146-4.01c.233-.814.673-1.562 1.272-2.162l7.279-7.279c.212-.212.493-.329.793-.329.618 0 1.121.503 1.121 1.121 0 .3-.117.581-.328.793l-6.379 6.379 1.414 1.414 6.379-6.379 2-2c.212-.211.493-.328.793-.328.618 0 1.121.503 1.121 1.121 0 .3-.117.581-.328.793l-8.379 8.379 1.414 1.414 8.379-8.379 1-1c.212-.211.493-.328.793-.328.618 0 1.121.503 1.121 1.121 0 .3-.117.581-.328.793l-9.379 9.379 1.414 1.414 9.379-9.379 12-12c.212-.211.493-.328.793-.328.618 0 1.121.503 1.121 1.121 0 .3-.117.581-.328.793l-21.672 21.672v2.414zm13.675-27c0-3.86 3.14-7 7-7s7 3.14 7 7-3.14 7-7 7c-.756 0-1.502-.136-2.213-.373l2.299-2.299c.589-.589.914-1.373.914-2.207 0-1.721-1.4-3.121-3.121-3.121-.834 0-1.618.325-2.207.914l-2.299 2.299c-.237-.711-.373-1.456-.373-2.213zm3.25 8.164c1.172.538 2.451.836 3.75.836 4.962 0 9-4.038 9-9s-4.038-9-9-9-9 4.038-9 9c0 1.3.297 2.578.836 3.75l-1.497 1.497c-.875-1.603-1.339-3.394-1.339-5.247 0-6.065 4.935-11 11-11s11 4.935 11 11-4.935 11-11 11c-1.853 0-3.643-.464-5.248-1.338zm-14.25-22.164h-20v14h20zm-2 12h-16v-10h16zm-2-6h-12v-2h12zm0 4h-12v-2h12z" fill="url(#help_0)"></path></svg><svg viewBox="0 0 24 24" fill="currentColor" id="icon-email--dark"><g opacity="0.7" clip-path="url(#icon-email--dark_0)"><path d="M12 3C7.03201 3 3 7.03201 3 12C3 16.968 7.03201 21 12 21H15.6C16.0971 21 16.5 20.5971 16.5 20.1C16.5 19.603 16.0971 19.2 15.6 19.2H12C8.09401 19.2 4.8 15.906 4.8 12C4.8 8.09401 8.09401 4.8 12 4.8C15.906 4.8 19.2 8.09401 19.2 12V13.287C19.2 13.998 18.561 14.7 17.85 14.7C17.139 14.7 16.5 13.998 16.5 13.287V12C16.5 9.51601 14.484 7.50001 12 7.50001C9.51601 7.50001 7.50001 9.51601 7.50001 12C7.50001 14.484 9.51601 16.5 12 16.5C13.242 16.5 14.376 15.996 15.186 15.177C15.771 15.978 16.779 16.5 17.85 16.5C19.623 16.5 21 15.06 21 13.287V12C21 7.03201 16.968 3 12 3ZM12 14.7C10.506 14.7 9.30001 13.494 9.30001 12C9.30001 10.506 10.506 9.30001 12 9.30001C13.494 9.30001 14.7 10.506 14.7 12C14.7 13.494 13.494 14.7 12 14.7Z" fill="currentColor"></path></g><defs><clipPath id="icon-email--dark_0"><rect width="24" height="24" fill="currentColor"></rect></clipPath></defs></svg><svg viewBox="0 0 32 32" fill="none" id="icon-email"><g opacity="0.7" clip-path="url(#icon-email_0)"><path d="M16 4C9.37601 4 4 9.37601 4 16C4 22.624 9.37601 28 16 28H20.8C21.4628 28 22 27.4628 22 26.8C22 26.1373 21.4628 25.6 20.8 25.6H16C10.792 25.6 6.4 21.208 6.4 16C6.4 10.792 10.792 6.4 16 6.4C21.208 6.4 25.6 10.792 25.6 16V17.716C25.6 18.664 24.748 19.6 23.8 19.6C22.852 19.6 22 18.664 22 17.716V16C22 12.688 19.312 10 16 10C12.688 10 10 12.688 10 16C10 19.312 12.688 22 16 22C17.656 22 19.168 21.328 20.248 20.236C21.028 21.304 22.372 22 23.8 22C26.164 22 28 20.08 28 17.716V16C28 9.37601 22.624 4 16 4ZM16 19.6C14.008 19.6 12.4 17.992 12.4 16C12.4 14.008 14.008 12.4 16 12.4C17.992 12.4 19.6 14.008 19.6 16C19.6 17.992 17.992 19.6 16 19.6Z" fill="white" stroke="white" stroke-width="0.900002"></path></g><defs><clipPath id="icon-email_0"><rect width="32" height="32" fill="white"></rect></clipPath></defs></svg><svg viewBox="0 0 32 32" fill="currentColor" id="icon-github"><g opacity="0.7"><path d="M29.9208 8.91328C28.5347 6.47889 26.6546 4.55159 24.28 3.13092C21.905 1.71019 19.3123 1 16.4999 1C13.6878 1 11.0942 1.7104 8.71971 3.13092C6.34487 4.55151 4.46485 6.47889 3.0788 8.91328C1.69296 11.3476 1 14.0059 1 16.8881C1 20.3503 1.98539 23.4635 3.95667 26.2287C5.92774 28.9941 8.47407 30.9076 11.5954 31.9695C11.9588 32.0387 12.2278 31.99 12.4026 31.8249C12.5776 31.6595 12.665 31.4525 12.665 31.2045C12.665 31.1631 12.6615 30.7909 12.6548 30.0874C12.6479 29.3838 12.6446 28.7701 12.6446 28.2464L12.1804 28.3287C11.8844 28.3843 11.511 28.4079 11.0603 28.4012C10.6097 28.3948 10.142 28.3464 9.65767 28.2564C9.17317 28.1672 8.72254 27.9603 8.30541 27.6362C7.88849 27.3121 7.59252 26.8878 7.41756 26.364L7.21575 25.888C7.08123 25.571 6.86945 25.219 6.58012 24.833C6.29079 24.4467 5.99822 24.1849 5.70225 24.047L5.56094 23.9433C5.46678 23.8744 5.37941 23.7913 5.29862 23.6948C5.21789 23.5984 5.15745 23.5019 5.11709 23.4052C5.07666 23.3085 5.11016 23.2291 5.21796 23.1669C5.32576 23.1046 5.52058 23.0744 5.80326 23.0744L6.20675 23.1362C6.47586 23.1915 6.80873 23.3566 7.20578 23.6326C7.60263 23.9084 7.92885 24.267 8.18453 24.7081C8.49414 25.2737 8.86717 25.7047 9.30465 26.0013C9.74179 26.2979 10.1825 26.4459 10.6265 26.4459C11.0704 26.4459 11.4538 26.4114 11.7768 26.3428C12.0995 26.2738 12.4023 26.1701 12.685 26.0323C12.806 25.1079 13.1357 24.3977 13.6737 23.9013C12.9069 23.8187 12.2175 23.6942 11.6051 23.5288C10.9931 23.3632 10.3607 23.0943 9.70821 22.7216C9.05541 22.3494 8.51387 21.8871 8.08345 21.3357C7.65296 20.784 7.29966 20.0597 7.02404 19.1634C6.74829 18.2668 6.61038 17.2325 6.61038 16.0602C6.61038 14.3911 7.14195 12.9707 8.20489 11.7983C7.70696 10.5434 7.75397 9.13668 8.34605 7.57819C8.73625 7.45392 9.3149 7.54718 10.0817 7.85738C10.8487 8.16773 11.4102 8.43359 11.7669 8.65402C12.1236 8.87437 12.4094 9.0611 12.6247 9.21254C13.8763 8.85408 15.1678 8.67481 16.4997 8.67481C17.8316 8.67481 19.1234 8.85408 20.3751 9.21254L21.1419 8.71626C21.6664 8.38512 22.2857 8.08165 22.9984 7.80579C23.7115 7.53008 24.2568 7.45414 24.6337 7.57841C25.2389 9.13697 25.2928 10.5436 24.7948 11.7985C25.8576 12.9709 26.3894 14.3917 26.3894 16.0604C26.3894 17.2327 26.251 18.2703 25.9757 19.1738C25.7 20.0774 25.3437 20.801 24.9065 21.3461C24.4689 21.8911 23.9239 22.3497 23.2714 22.7218C22.6188 23.0943 21.9862 23.3631 21.3742 23.5287C20.7619 23.6944 20.0724 23.8189 19.3056 23.9016C20.005 24.522 20.3548 25.5013 20.3548 26.8391V31.2039C20.3548 31.4519 20.4389 31.6589 20.6073 31.8243C20.7754 31.9895 21.041 32.0381 21.4043 31.9689C24.5261 30.9071 27.0725 28.9935 29.0435 26.2281C31.0143 23.4629 32 20.3497 32 16.8875C31.9993 14.0057 31.306 11.3476 29.9208 8.91328Z" fill="currentColor"></path></g></svg><svg viewBox="0 0 32 32" fill="currentColor" id="icon-telegram"><g opacity="0.7"><path d="M26.5534 4.956L2.91338 14.072C1.30004 14.72 1.30938 15.62 2.61738 16.0213L8.68671 17.9147L22.7294 9.05467C23.3934 8.65067 24 8.868 23.5014 9.31067L12.124 19.5787H12.1214L12.124 19.58L11.7054 25.836C12.3187 25.836 12.5894 25.5547 12.9334 25.2227L15.8814 22.356L22.0134 26.8853C23.144 27.508 23.956 27.188 24.2374 25.8387L28.2627 6.868C28.6747 5.216 27.632 4.468 26.5534 4.956Z" fill="currentColor"></path></g></svg><svg viewBox="0 0 480 480" id="language-icon"><path d="m240 0c-132.546875 0-240 107.453125-240 240s107.453125 240 240 240 240-107.453125 240-240c-.148438-132.484375-107.515625-239.851562-240-240zm207.566406 324.078125-68.253906 11.777344c7.8125-28.652344 12.03125-58.164063 12.558594-87.855469h71.929687c-.902343 26.117188-6.398437 51.871094-16.234375 76.078125zm-431.367187-76.078125h71.929687c.527344 29.691406 4.746094 59.203125 12.558594 87.855469l-68.253906-11.777344c-9.835938-24.207031-15.332032-49.960937-16.234375-76.078125zm16.234375-92.078125 68.253906-11.777344c-7.8125 28.652344-12.03125 58.164063-12.558594 87.855469h-71.929687c.902343-26.117188 6.398437-51.871094 16.234375-76.078125zm215.566406-27.472656c28.746094.367187 57.421875 2.984375 85.761719 7.832031l28.238281 4.871094c8.675781 29.523437 13.34375 60.078125 13.878906 90.847656h-127.878906zm88.488281-7.9375c-29.238281-4.996094-58.828125-7.695313-88.488281-8.0625v-96c45.863281 4.40625 85.703125 46.398437 108.28125 107.511719zm-104.488281-8.0625c-29.660156.367187-59.242188 3.066406-88.480469 8.0625l-19.800781 3.425781c22.578125-61.128906 62.417969-103.136719 108.28125-107.523438zm-85.753906 23.832031c28.335937-4.847656 57.007812-7.464844 85.753906-7.832031v103.550781h-127.878906c.535156-30.769531 5.203125-61.324219 13.878906-90.847656zm-42.125 111.71875h127.878906v103.550781c-28.746094-.367187-57.421875-2.984375-85.761719-7.832031l-28.238281-4.871094c-8.675781-29.523437-13.34375-60.078125-13.878906-90.847656zm39.390625 111.488281c29.238281 5.003907 58.824219 7.714844 88.488281 8.105469v96c-45.863281-4.410156-85.703125-46.402344-108.28125-107.515625zm104.488281 8.105469c29.660156-.390625 59.242188-3.101562 88.480469-8.105469l19.800781-3.425781c-22.578125 61.128906-62.417969 103.136719-108.28125 107.523438zm85.753906-23.875c-28.335937 4.847656-57.007812 7.464844-85.753906 7.832031v-103.550781h127.878906c-.535156 30.769531-5.203125 61.324219-13.878906 90.847656zm58.117188-111.71875c-.527344-29.691406-4.746094-59.203125-12.558594-87.855469l68.253906 11.777344c9.835938 24.207031 15.332032 49.960937 16.234375 76.078125zm47.601562-93.710938-65.425781-11.289062c-11.761719-38.371094-33.765625-72.808594-63.648437-99.601562 55.878906 18.648437 102.21875 58.457031 129.074218 110.890624zm-269.871094-110.890624c-29.882812 26.792968-51.886718 61.230468-63.648437 99.601562l-65.425781 11.289062c26.855468-52.433593 73.195312-92.242187 129.074218-110.890624zm-129.074218 314.3125 65.425781 11.289062c11.761719 38.371094 33.765625 72.808594 63.648437 99.601562-55.878906-18.648437-102.21875-58.457031-129.074218-110.890624zm269.871094 110.890624c29.882812-26.792968 51.886718-61.230468 63.648437-99.601562l65.425781-11.289062c-26.855468 52.433593-73.195312 92.242187-129.074218 110.890624zm0 0" fill="#000000" style="fill: rgb(255, 255, 255);"></path></svg><svg viewBox="0 0 24 24" fill="none" id="login"><g id="login_0" stroke-width="0"></g><g id="login_1" stroke-linecap="round" stroke-linejoin="round"></g><g id="login_2"><path d="M8.90002 7.55999C9.21002 3.95999 11.06 2.48999 15.11 2.48999H15.24C19.71 2.48999 21.5 4.27999 21.5 8.74999V15.27C21.5 19.74 19.71 21.53 15.24 21.53H15.11C11.09 21.53 9.24002 20.08 8.91002 16.54" stroke="currentColor" stroke-width="1.5" stroke-linecap="round" stroke-linejoin="round"></path><path d="M2 12H14.88" stroke="currentColor" stroke-width="1.5" stroke-linecap="round" stroke-linejoin="round"></path><path d="M12.65 8.6499L16 11.9999L12.65 15.3499" stroke="currentColor" stroke-width="1.5" stroke-linecap="round" stroke-linejoin="round"></path></g></svg><svg id="logout" viewBox="0 0 471.2 471.2" style="enable-background:new 0 0 471.2 471.2;"><g><g><path d="M227.619,444.2h-122.9c-33.4,0-60.5-27.2-60.5-60.5V87.5c0-33.4,27.2-60.5,60.5-60.5h124.9c7.5,0,13.5-6,13.5-13.5 s-6-13.5-13.5-13.5h-124.9c-48.3,0-87.5,39.3-87.5,87.5v296.2c0,48.3,39.3,87.5,87.5,87.5h122.9c7.5,0,13.5-6,13.5-13.5 S235.019,444.2,227.619,444.2z" fill="#000000" style="fill: rgb(255, 255, 255);"></path><path d="M450.019,226.1l-85.8-85.8c-5.3-5.3-13.8-5.3-19.1,0c-5.3,5.3-5.3,13.8,0,19.1l62.8,62.8h-273.9c-7.5,0-13.5,6-13.5,13.5 s6,13.5,13.5,13.5h273.9l-62.8,62.8c-5.3,5.3-5.3,13.8,0,19.1c2.6,2.6,6.1,4,9.5,4s6.9-1.3,9.5-4l85.8-85.8 C455.319,239.9,455.319,231.3,450.019,226.1z" fill="#000000" style="fill: rgb(255, 255, 255);"></path></g></g></svg><svg id="notes" viewBox="0 0 484.665 484.665" style="enable-background:new 0 0 484.665 484.665;"><g><g id="notes_0"><g><path d="M392.771,39.249H368.31V20.778C368.31,9.305,359.007,0,347.531,0h-7.552c-11.477,0-20.778,9.306-20.778,20.778v18.471 H173.846V20.778C173.846,9.305,164.543,0,153.067,0h-7.552c-11.476,0-20.777,9.306-20.777,20.778v18.471H91.893 c-30.932,0-56.096,25.165-56.096,56.097v333.222c0,30.932,25.164,56.097,56.096,56.097h300.879 c30.932,0,56.096-25.165,56.096-56.097V95.346C448.867,64.414,423.703,39.249,392.771,39.249z M415.086,428.567 c0,12.304-10.011,22.314-22.313,22.314H91.893c-12.304,0-22.314-10.012-22.314-22.314V95.346 c0-12.305,10.011-22.315,22.314-22.315h32.845v26.537c0,11.474,9.302,20.779,20.777,20.779h7.552 c11.477,0,20.779-9.306,20.779-20.779V73.03h145.355v26.537c0,11.474,9.303,20.779,20.777,20.779h7.553 c11.477,0,20.778-9.306,20.778-20.779V73.03h24.462c12.304,0,22.313,10.011,22.313,22.315L415.086,428.567L415.086,428.567z" fill="#000000" style="fill: rgb(131, 0, 139);"></path><path d="M356.665,166.197h-222c-9.328,0-16.891,7.562-16.891,16.891s7.563,16.891,16.891,16.891h222 c9.328,0,16.891-7.563,16.891-16.891S365.993,166.197,356.665,166.197z" fill="#000000" style="fill: rgb(131, 0, 139);"></path><path d="M355.476,233.197h-222c-9.328,0-16.891,7.562-16.891,16.891s7.563,16.891,16.891,16.891h222 c9.328,0,16.892-7.562,16.892-16.891S364.804,233.197,355.476,233.197z" fill="#000000" style="fill: rgb(131, 0, 139);"></path><path d="M354.286,300.197h-222c-9.328,0-16.891,7.562-16.891,16.891s7.563,16.891,16.891,16.891h222 c9.328,0,16.891-7.562,16.891-16.891S363.614,300.197,354.286,300.197z" fill="#000000" style="fill: rgb(131, 0, 139);"></path><path d="M353.097,367.197h-222c-9.328,0-16.891,7.562-16.891,16.891s7.563,16.891,16.891,16.891h222 c9.328,0,16.892-7.562,16.892-16.891S362.425,367.197,353.097,367.197z" fill="#000000" style="fill: rgb(131, 0, 139);"></path></g></g></g></svg><svg id="notification-icon" viewBox="0 0 512 512"><g><path d="m437.017 39.687c-5.858-5.857-15.356-5.857-21.213 0-5.858 5.858-5.857 15.356 0 21.213 42.688 42.685 66.196 99.438 66.196 159.807 0 8.284 6.716 15 15 15s15-6.716 15-15c0-68.382-26.629-132.67-74.983-181.02z" fill="#000000" style="fill: rgb(255, 255, 255);"></path><path d="m96.193 39.688c-5.858-5.857-15.355-5.858-21.213 0-48.352 48.354-74.98 112.641-74.98 181.019 0 8.284 6.716 15 15 15s15-6.716 15-15c0-60.365 23.508-117.118 66.193-159.805 5.858-5.858 5.858-15.356 0-21.214z" fill="#000000" style="fill: rgb(255, 255, 255);"></path><path d="m370.358 85.125c-5.858 5.858-5.857 15.355 0 21.213 30.55 30.548 47.374 71.164 47.374 114.368 0 8.284 6.716 15 15 15s15-6.716 15-15c0-51.217-19.945-99.368-56.161-135.582-5.858-5.856-15.355-5.856-21.213.001z" fill="#000000" style="fill: rgb(255, 255, 255);"></path><path d="m141.634 85.132c-5.858-5.857-15.356-5.857-21.213.001-36.211 36.216-56.154 84.363-56.154 135.573 0 8.284 6.716 15 15 15s15-6.716 15-15c0-43.197 16.823-83.811 47.369-114.361 5.857-5.858 5.856-15.355-.002-21.213z" fill="#000000" style="fill: rgb(255, 255, 255);"></path><path d="m383.467 329.632v-76.792c0-28.011-8.918-54.59-25.79-76.865-14.101-18.617-33.332-33.16-54.939-41.717-3.007-23.111-22.82-41.018-46.738-41.018s-43.733 17.906-46.74 41.018c-21.606 8.558-40.837 23.101-54.938 41.717-16.872 22.275-25.79 48.854-25.79 76.865v76.792l-30.549 61.1c-2.325 4.65-2.076 10.172.657 14.594s7.561 7.114 12.76 7.114h66.774c7.033 36.558 39.246 64.267 77.825 64.267 38.578 0 70.791-27.709 77.823-64.267h66.778c5.199 0 10.027-2.692 12.76-7.114s2.981-9.944.657-14.594zm-127.467 117.075c-21.938 0-40.573-14.413-46.933-34.267h93.865c-6.36 19.854-24.994 34.267-46.932 34.267zm64.266-64.267h-128.533-56.062l21.279-42.559c1.042-2.083 1.583-4.379 1.583-6.708v-80.333c0-42.793 28.625-81.203 69.612-93.405 6.36-1.894 10.72-7.741 10.72-14.376v-4.686c0-9.447 7.687-17.133 17.135-17.133 9.447 0 17.133 7.686 17.133 17.133v4.686c0 6.636 4.36 12.483 10.72 14.376 40.987 12.202 69.614 50.611 69.614 93.405v80.333c0 2.329.542 4.625 1.583 6.708l21.279 42.559z" fill="#000000" style="fill: rgb(255, 255, 255);"></path></g></svg><svg viewBox="0 0 512 512" id="notification"><linearGradient id="notification_0" gradientUnits="userSpaceOnUse" x1="0" x2="512" y1="256" y2="256"><stop offset="0" stop-color="#80d8ff"></stop><stop offset="1" stop-color="#ea80fc"></stop></linearGradient><path d="m460.632812 257.289062c-16.839843-8.421874-27.296874-25.34375-27.296874-44.167968v-35.789063c-.003907-97.671875-78.949219-177.332031-177.425782-177.332031-97.734375.0507812-177.242187 80.277344-177.242187 178.839844v34.28125c0 18.824218-10.460938 35.746094-27.296875 44.167968-31.6875 15.84375-51.371094 47.691407-51.371094 83.117188 0 51.238281 41.6875 92.925781 92.929688 92.925781h46.773437c9.273437 44.851563 49.074219 78.667969 96.628906 78.667969h39.332031c47.558594 0 87.359376-33.816406 96.628907-78.667969h46.777343c51.242188 0 92.929688-41.6875 92.929688-92.925781 0-35.425781-19.683594-67.273438-51.367188-83.117188zm-184.964843 214.710938h-39.332031c-25.332032 0-46.957032-16.136719-55.152344-38.667969h149.636718c-8.199218 22.53125-29.824218 38.667969-55.152343 38.667969zm143.402343-78.667969h-326.140624c-29.1875 0-52.929688-23.742187-52.929688-52.925781 0-20.179688 11.210938-38.316406 29.257812-47.339844 30.476563-15.238281 49.410157-45.875 49.410157-79.945312v-34.28125c0-76.464844 61.535156-138.839844 137.332031-138.839844 75.878906 0 137.332031 61.398438 137.332031 137.332031v35.789063c0 34.070312 18.933594 64.707031 49.410157 79.945312 18.046874 9.023438 29.257812 27.160156 29.257812 47.339844 0 29.183594-23.742188 52.925781-52.929688 52.925781zm0 0" fill="url(#notification_0)"></path></svg><svg viewBox="0 0 60 60.012427" id="plan"><linearGradient id="plan_0"><stop offset="0" stop-color="#20d6de"></stop><stop offset="1" stop-color="#5e309d"></stop></linearGradient><linearGradient id="plan_1" gradientUnits="userSpaceOnUse" x1="1.006214" x2="63.656214" y1="30" y2="30" href="#plan_0"></linearGradient><linearGradient id="plan_2" gradientUnits="userSpaceOnUse" x1="1.006214" x2="63.656214" y1="24" y2="24" href="#plan_0"></linearGradient><linearGradient id="plan_3" gradientUnits="userSpaceOnUse" x1="1.006214" x2="63.656214" y1="23" y2="23" href="#plan_0"></linearGradient><linearGradient id="plan_4" gradientUnits="userSpaceOnUse" x1="1.006214" x2="63.656214" y1="27" y2="27" href="#plan_0"></linearGradient><linearGradient id="plan_5" gradientUnits="userSpaceOnUse" x1="1.006214" x2="63.656214" y1="31" y2="31" href="#plan_0"></linearGradient><linearGradient id="plan_6" gradientUnits="userSpaceOnUse" x1="1.006214" x2="63.656214" y1="35" y2="35" href="#plan_0"></linearGradient><path d="m.0078125 6h2.9999995v40h20v4h6v4.183594c-1.378906.488281-2.207031 1.894531-1.957031 3.335937.246094 1.441407 1.496094 2.492188 2.957031 2.492188 1.460938 0 2.707032-1.050781 2.957032-2.492188.246094-1.441406-.582032-2.847656-1.957032-3.335937v-4.183594h6v-4h20v-40h3v-6h-59.9999995zm29.9999995 52c-.554687 0-1-.449219-1-1s.445313-1 1-1c.550782 0 1 .449219 1 1s-.449218 1-1 1zm5-10h-10v-2h10zm20-4h-50v-38h50zm-53-42h56v2h-56zm0 0" fill="url(#plan_1)"></path><path d="m21.007812 32h-6v-2h6v-8h-6v-2h30v2h-6v8h6v2h-6v8h14v-8h-6v-2h6v-8h-6v-4h-16v-2h10v-8h-22v8h10v2h-16v4h-6v8h6v2h-6v8h14zm30 6h-10v-4h10zm0-10h-10v-4h10zm-30-18h18v4h-18zm-12 14h10v4h-10zm10 14h-10v-4h10zm0 0" fill="url(#plan_2)"></path><path d="m24.007812 22h4v2h-4zm0 0" fill="url(#plan_3)"></path><path d="m30.007812 22h2v2h-2zm0 0" fill="url(#plan_3)"></path><path d="m24.007812 26h6v2h-6zm0 0" fill="url(#plan_4)"></path><path d="m32.007812 26h4v2h-4zm0 0" fill="url(#plan_4)"></path><path d="m24.007812 30h12v2h-12zm0 0" fill="url(#plan_5)"></path><g fill="url(#plan_6)"><path d="m24.007812 34h2v2h-2zm0 0"></path><path d="m28.007812 34h2v2h-2zm0 0"></path><path d="m32.007812 34h4v2h-4zm0 0"></path></g></svg><svg viewBox="0 0 495 496" id="priority"><path d="m403.300781 212.398438h-260.800781c-12.398438-20.796876-35.601562-34.398438-61.601562-34.398438-39.597657 0-72 31.601562-72 70.398438 0 38.800781 32 70.402343 72 70.402343 26.402343 0 49.203124-14 61.601562-34.402343h261.199219l30.402343-35.597657zm0 0" fill="#f8bc5c"></path><path d="m80.5 326.398438c-44 0-80-35.199219-80-78.398438s36-78.398438 80-78.398438c26.398438 0 51.199219 13.199219 66 34.398438h256.800781c2.398438 0 4.398438 1.199219 6 2.800781l30.398438 35.597657c2.402343 2.800781 2.402343 7.203124 0 10.402343l-30.398438 35.597657c-1.601562 1.601562-3.601562 2.800781-6 2.800781h-256.402343c-14.796876 22-40 35.199219-66.398438 35.199219zm0-140.796876c-35.199219 0-64 28-64 62.398438s28.800781 62.398438 64 62.398438c22.398438 0 43.601562-11.597657 54.800781-30.796876 1.597657-2.402343 4-4 6.800781-4h257.199219l23.597657-27.601562-23.597657-27.601562h-256.800781c-2.800781 0-5.199219-1.597657-6.800781-4-11.597657-18.796876-32.800781-30.796876-55.199219-30.796876zm0 0" fill="#173851"></path><path d="m80.5 298.398438c-28.398438 0-52-22.398438-52-50.398438s23.199219-50.398438 52-50.398438c18.398438 0 35.199219 9.597657 44.800781 24.796876l6 9.601562h263.199219l13.199219 15.601562-13.199219 15.597657h-263.199219l-6 9.601562c-9.199219 16-26.402343 25.597657-44.800781 25.597657zm0 0" fill="#fff"></path><path d="m104.101562 270.800781h-37.601562c.398438-.800781.800781-1.199219 1.199219-2 2.800781-3.199219 8-7.199219 16-11.199219 7.601562-4 12.800781-8 16-11.601562 2.800781-3.601562 4.402343-8.398438 4.402343-14 0-6.800781-2.402343-12-6.800781-16.398438-4.800781-4-10.402343-6.402343-17.601562-6.402343-8.398438 0-14.800781 2.402343-19.597657 7.199219-4.800781 4.800781-7.203124 11.203124-6.800781 19.601562v2h12.800781v-2c0-4.800781 1.199219-8.800781 3.597657-11.601562 2-2.398438 5.199219-3.597657 8.800781-3.597657s6.800781.800781 9.199219 3.199219c2.402343 2 3.199219 4.398438 3.199219 7.601562 0 3.199219-.796876 5.597657-2.398438 7.597657s-4.800781 4.402343-9.601562 6.800781c-10.796876 5.601562-17.597657 10.800781-21.597657 16s-6 11.601562-6 19.199219v2h53.199219v-12.398438zm0 0" fill="#173851"></path><path d="m458.101562 382h-315.601562c-12.398438-20.800781-35.601562-34.398438-61.601562-34.398438-39.597657 0-72 31.597657-72 70.398438s32 70.398438 72 70.398438c26.402343 0 49.203124-14 61.601562-34.398438h315.601562l30.398438-35.601562zm0 0" fill="#28a7e6" style="fill: rgb(131, 0, 139);"></path><path d="m80.898438 496c-44 0-80-35.199219-80-78.398438 0-43.203124 36-78.402343 80-78.402343 26.402343 0 51.203124 13.199219 66 34.402343h311.203124c2.398438 0 4.398438 1.199219 6 2.796876l30.398438 35.601562c2.398438 2.800781 2.398438 7.199219 0 10.398438l-30.398438 35.601562c-1.601562 1.601562-3.601562 2.800781-6 2.800781h-311.203124c-14.796876 22-39.597657 35.199219-66 35.199219zm0-140.398438c-35.199219 0-64 28-64 62.398438s28.800781 62.398438 64 62.398438c22.402343 0 43.601562-11.597657 54.800781-30.796876 1.601562-2.402343 4-4 6.800781-4h312l23.601562-27.601562-23.601562-27.601562h-312c-2.800781 0-5.199219-1.597657-6.800781-4-11.199219-19.199219-32.398438-30.796876-54.800781-30.796876zm0 0" fill="#173851"></path><path d="m80.898438 468c-28.398438 0-52-22.398438-52-50.398438s23.203124-50.402343 52-50.402343c18.402343 0 35.203124 9.601562 44.800781 24.800781l6 9.601562h317.601562l13.199219 15.597657-13.199219 15.601562h-318l-6 9.597657c-9.199219 16-26.402343 25.601562-44.402343 25.601562zm0 0" fill="#fff"></path><path d="m98.101562 416c-.800781-.398438-1.203124-.800781-2-1.199219 4.796876-3.601562 6.796876-8.800781 6.796876-14.800781s-2.398438-10.800781-6.796876-14.800781c-4.402343-3.597657-10.402343-5.597657-17.601562-5.597657-7.601562 0-14 2.398438-18 6.796876-4.398438 4.402343-6.398438 10.402343-6.398438 18.402343v2h12.796876v-2c.402343-4.402343 1.203124-8 3.203124-10s4.398438-3.199219 8-3.199219c3.597657 0 6.398438.796876 8.398438 2.796876 2 1.601562 3.199219 4 3.199219 6.402343 0 2.800781-.800781 5.199219-2.800781 6.800781-1.597657 1.199219-3.597657 2-6 2.398438-1.597657 0-2.796876.398438-4.398438.398438s-2.398438 0-2.800781 0l-2.398438-.398438v12.800781l2.398438-.800781h2.402343 4.796876c3.203124.398438 5.601562 1.199219 7.601562 2.800781 2.398438 2 3.199219 4.800781 3.199219 8.398438 0 3.199219-1.199219 6-3.597657 8-2.402343 2-5.601562 3.199219-9.601562 3.199219-4.398438 0-8-.796876-10-2.796876s-3.199219-5.601562-4-10.402343v-2h-13.199219v2c.398438 8.402343 2.800781 14.402343 7.199219 18.800781 4.398438 4 11.199219 6.398438 19.601562 6.398438 7.597657 0 14.398438-2.398438 19.199219-6.796876 5.199219-4.402343 7.597657-10.402343 7.597657-17.601562.800781-7.199219-1.597657-12.398438-6.796876-16zm0 0" fill="#173851"></path><path d="m352.898438 42.398438h-210.796876c-12.402343-20.398438-35.601562-34.398438-61.601562-34.398438-40 0-72 31.601562-72 70.398438 0 38.800781 32 70.402343 72 70.402343 26.398438 0 49.199219-14 61.601562-34.402343h210.796876l30.402343-35.597657zm0 0" fill="#45c9a5"></path><path d="m80.5 156.398438c-44 0-80-35.199219-80-78.398438s36-78 80-78c26.398438 0 51.199219 13.199219 66 34.398438h206.398438c2.402343 0 4.402343 1.203124 6 2.800781l30.402343 35.601562c2.398438 2.800781 2.398438 7.199219 0 10.398438l-30.402343 35.601562c-1.597657 1.597657-3.597657 2.800781-6 2.800781h-206.398438c-14.800781 21.597657-39.601562 34.796876-66 34.796876zm0-140.398438c-35.199219 0-64 28-64 62.398438 0 34.402343 28.800781 62.402343 64 62.402343 22.398438 0 43.601562-11.601562 54.800781-30.800781 1.597657-2.398438 4-4 6.800781-4h206.796876l23.601562-27.601562-23.601562-27.597657h-206.796876c-2.800781 0-5.203124-1.601562-6.800781-4-11.601562-19.199219-32.402343-30.800781-54.800781-30.800781zm0 0" fill="#173851"></path><path d="m80.5 128.398438c-28.398438 0-52-22.398438-52-50.398438s23.199219-50 52-50c18.398438 0 35.199219 9.199219 44.800781 24.800781l6 9.597657h212.800781l13.199219 15.601562-13.199219 15.601562h-213.203124l-6 9.597657c-9.199219 15.601562-26.398438 25.199219-44.398438 25.199219zm0 0" fill="#fff"></path><path d="m75.699219 116.398438h13.601562v-74h-10.800781l-.398438 1.203124c-1.203124 4-3.601562 7.199219-6 9.199219-2.800781 2-6.402343 2.800781-10.800781 2.800781h-2v11.199219h16.800781v49.597657zm0 0" fill="#173851"></path></svg><svg id="productive" viewBox="0 0 64 64"><linearGradient id="productive_0" gradientUnits="userSpaceOnUse" x1="32" x2="32" y1="63" y2="1"><stop offset="0" stop-color="#9f2fff"></stop><stop offset="1" stop-color="#0bb1d3"></stop></linearGradient><path d="m13 41h2c0 .552.449 1 1 1s1-.448 1-1h2c0 1.654-1.346 3-3 3s-3-1.346-3-3zm42.024-15.012c-.012.404.058.807.215 1.187.466 1.128 1.507 1.825 2.672 1.825h3.089v14h-3.089c-1.166 0-2.207.697-2.651 1.775-.468 1.129-.226 2.359.598 3.183l2.184 2.185-9.899 9.898-2.184-2.184c-.824-.825-2.054-1.067-3.132-.618-1.13.466-1.827 1.507-1.827 2.672v3.089h-40v-5.262c0-3.8 2.705-7.099 6.431-7.844l2.412-.482c.794-.159 1.41-.775 1.569-1.569l.269-1.345c-.844-.665-1.529-1.518-1.996-2.497h-.685c-2.206 0-4-1.794-4-4 0-.933.334-1.78.871-2.461-.306-.953-.871-2.932-.871-4.54 0-2.226 1.508-4.158 3.668-4.697l.729-.183c.903-1.216 2.129-2.122 3.515-2.636-.114-.541-.374-1.046-.77-1.442l-2.184-2.185 9.899-9.898 2.184 2.184c.823.824 2.054 1.066 3.133.618 1.129-.466 1.826-1.507 1.826-2.672v-3.089h11.003c1.963-4.693 6.6-8 11.997-8 7.168 0 13 5.832 13 13 0 5.388-3.295 10.019-7.976 11.988zm3.424-4.954c1.391-1.667 2.295-3.751 2.502-6.034h-1.95v-2h1.949c-.207-2.283-1.111-4.366-2.502-6.034l-1.377 1.377-1.414-1.414 1.377-1.377c-1.667-1.391-3.75-2.294-6.033-2.501v1.949h-2v-1.949c-2.283.207-4.366 1.111-6.034 2.501l1.377 1.377-1.414 1.414-1.377-1.377c-1.391 1.667-2.295 3.751-2.502 6.034h1.95v2h-1.949c.207 2.283 1.111 4.366 2.502 6.034l1.377-1.377 1.414 1.414-1.377 1.377c1.667 1.391 3.751 2.294 6.034 2.501v-1.949h2v1.949c2.283-.207 4.366-1.111 6.034-2.501l-1.377-1.377 1.414-1.414zm-11.448 15.966h-4v13.396c1.506-.945 2.859-2.109 4-3.464zm2-2v8.983c1.273-2.382 2-5.098 2-7.983 0-3.253-.925-6.394-2.662-9.118-4.464-.574-8.217-3.415-10.077-7.333-1.385-.359-2.815-.549-4.261-.549-5.192 0-10.039 2.358-13.255 6.366 3.612 1.075 6.255 4.421 6.255 8.377 0 .941-.151 1.871-.449 2.766l-.366 1.098c.505.669.815 1.492.815 2.393 0 .732-.212 1.409-.556 2h2.556v10.24c.657.202 1.323.369 2 .489v-23.729h8v23.247c.688-.212 1.352-.479 2-.773v-16.474zm-12-4h-4v21.959c.333.02.665.041 1 .041 1.025 0 2.024-.107 3-.281zm-8 26.738c0-2.766-1.919-5.164-4.587-5.814l-3.025 9.076h7.612zm-6.08-15.738h.08c1.103 0 2-.897 2-2s-.897-2-2-2v3c0 .34-.033.672-.08 1zm4.08 2h-4v5.581l1.569.314c.875.175 1.69.495 2.431.925zm-8.856 12.271 1.356 4.067 1.31-3.929-1.682-1.121zm2.856-10.382c-.213.218-.441.419-.681.608l.269 1.345c.064.32.218.598.412.842zm-3.13 6.156 3.596 2.397.978-2.933-.678-.136c-.591-.119-1.133-.364-1.596-.707zm-1.87 1.157-1.43.954.844.844h1.171l.845-.845zm-4.81 3.206 1.31 3.929 1.356-4.067-.983-.984zm3.197 4.592h3.225l-1.333-4h-.559zm.468-35.956c.248-.024.498-.044.75-.044h2.651c.085 0 .168.01.253.013 3.567-5.025 9.311-8.013 15.491-8.013 1.162 0 2.314.116 3.447.323-.282-1.063-.447-2.173-.447-3.323 0-1.034.134-2.035.363-3h-8.363v1.089c0 1.979-1.183 3.745-3.013 4.5-1.875.777-3.96.366-5.359-1.032l-.77-.77-7.071 7.07.77.771c.663.664 1.101 1.51 1.298 2.416zm-7.855 7.956c0 1.045.313 2.352.578 3.273.443-.169.919-.273 1.422-.273h.184c.414-1.161 1.514-2 2.816-2h4c.551 0 1-.448 1-1s-.449-1-1-1h-1v-2h1c1.374 0 2.536.929 2.889 2.191l.323.08c1.855.465 3.23 1.928 3.645 3.729h.143c.535 0 1.045.11 1.512.301l.142-.425c.229-.689.346-1.407.346-2.133 0-3.718-3.025-6.743-6.744-6.743h-2.651c-1.922 0-3.707.955-4.773 2.555l-.214.321-1.464.366c-1.269.318-2.154 1.451-2.154 2.758zm2.08 9c-.047-.328-.08-.66-.08-1v-3c-1.103 0-2 .897-2 2s.897 2 2 2zm6.92 4c2.757 0 5-2.243 5-5v-3.877c0-1.374-.928-2.567-2.258-2.907-.467 1.05-1.52 1.784-2.742 1.784h-4c-.551 0-1 .448-1 1v4c0 2.757 2.243 5 5 5zm-2.487 1.535-.14.7c-.06.3-.162.582-.283.852l2.91 1.747 2.911-1.746c-.121-.271-.223-.553-.283-.852l-.14-.7c-.775.295-1.611.464-2.488.464s-1.713-.169-2.487-.465zm-3.956 3.974.978 2.933 3.596-2.397-2.299-1.379c-.464.343-1.005.589-1.596.707zm-6.557 9.491h7.612l-3.025-9.075c-2.668.649-4.587 3.047-4.587 5.813zm50.057-34.378c-.76.184-1.546.299-2.351.342 1.499 2.765 2.294 5.851 2.294 9.036 0 10.477-8.523 19-19 19-1.229 0-2.443-.131-3.637-.362.407.961.637 2.008.637 3.1v3.262h8v-1.089c0-1.979 1.183-3.745 3.013-4.5 1.875-.777 3.961-.366 5.359 1.032l.77.77 7.071-7.07-.77-.771c-1.398-1.398-1.811-3.484-1.051-5.314.774-1.875 2.54-3.058 4.519-3.058h1.089v-10h-1.089c-1.979 0-3.745-1.183-4.5-3.014-.186-.449-.3-.906-.354-1.364zm1.236-18.329 1.414 1.414-3.008 3.008c.188.391.301.823.301 1.285 0 1.654-1.346 3-3 3s-3-1.346-3-3c0-.462.113-.894.301-1.285l-2.008-2.008 1.414-1.414 2.008 2.008c.391-.188.823-.301 1.285-.301s.894.113 1.285.301zm-3.293 5.707c0-.552-.449-1-1-1s-1 .448-1 1 .449 1 1 1 1-.448 1-1zm-17 1c.552 0 1-.448 1-1s-.448-1-1-1-1 .448-1 1 .448 1 1 1zm-15.556 6.444c.256 0 .512-.098.707-.293.391-.391.391-1.024 0-1.414-.195-.195-.451-.293-.707-.293s-.512.098-.707.293c-.391.391-.391 1.024 0 1.414.195.195.451.293.707.293zm15.556 35.556c-.552 0-1 .448-1 1s.448 1 1 1 1-.448 1-1-.448-1-1-1zm15.556-6.444c-.256 0-.512.098-.707.293-.391.391-.391 1.024 0 1.414.195.195.451.293.707.293s.512-.098.707-.293c.391-.391.391-1.024 0-1.414-.195-.195-.451-.293-.707-.293zm6.444-13.556c.552 0 1-.448 1-1s-.448-1-1-1-1 .448-1 1 .448 1 1 1zm-27-12h2v-2h-2zm4 0h2v-2h-2zm4 0h2v-2h-2z" fill="url(#productive_0)"></path></svg><svg id="project" viewBox="0 0 297.001 297.001" style="enable-background:new 0 0 297.001 297.001;"><g><g><g><path d="M287.116,40.77H146.455l-13.576-27.152c-1.675-3.349-5.096-5.464-8.84-5.464H58.807c-5.458,0-9.884,4.425-9.884,9.884 v55.348H9.884C4.425,73.385,0,77.811,0,83.269v195.694c0,5.458,4.425,9.884,9.884,9.884h228.309c5.458,0,9.884-4.425,9.884-9.884 v-55.348h39.04c5.458,0,9.884-4.425,9.884-9.884V50.653C297,45.195,292.575,40.77,287.116,40.77z M228.309,269.079H19.767V93.152 h49.239l13.576,27.152c1.675,3.349,5.096,5.464,8.84,5.464h136.887V269.079z M277.233,203.848h-29.156v-87.963 c0-5.458-4.425-9.884-9.884-9.884H97.531L83.955,78.849c-1.675-3.349-5.096-5.464-8.84-5.464h-6.424V27.921h49.239l13.576,27.152 c1.675,3.349,5.096,5.464,8.84,5.464h136.887V203.848z" fill="currentColor"></path><path d="M81.539,197.424c0,5.459,4.425,9.884,9.884,9.884h22.732v22.732c0,5.458,4.425,9.884,9.884,9.884 c5.458,0,9.884-4.425,9.884-9.884v-22.732h22.732c5.458,0,9.884-4.425,9.884-9.884c0-5.459-4.425-9.884-9.884-9.884h-22.732 v-22.732c0-5.458-4.425-9.884-9.884-9.884c-5.458,0-9.884,4.425-9.884,9.884v22.732H91.423 C85.965,187.54,81.539,191.965,81.539,197.424z" fill="currentColor"></path></g></g></g></svg><svg id="settings-icon" viewBox="0 0 478.703 478.703" style="enable-background:new 0 0 478.703 478.703;"><g><g><path d="M454.2,189.101l-33.6-5.7c-3.5-11.3-8-22.2-13.5-32.6l19.8-27.7c8.4-11.8,7.1-27.9-3.2-38.1l-29.8-29.8 c-5.6-5.6-13-8.7-20.9-8.7c-6.2,0-12.1,1.9-17.1,5.5l-27.8,19.8c-10.8-5.7-22.1-10.4-33.8-13.9l-5.6-33.2 c-2.4-14.3-14.7-24.7-29.2-24.7h-42.1c-14.5,0-26.8,10.4-29.2,24.7l-5.8,34c-11.2,3.5-22.1,8.1-32.5,13.7l-27.5-19.8 c-5-3.6-11-5.5-17.2-5.5c-7.9,0-15.4,3.1-20.9,8.7l-29.9,29.8c-10.2,10.2-11.6,26.3-3.2,38.1l20,28.1 c-5.5,10.5-9.9,21.4-13.3,32.7l-33.2,5.6c-14.3,2.4-24.7,14.7-24.7,29.2v42.1c0,14.5,10.4,26.8,24.7,29.2l34,5.8 c3.5,11.2,8.1,22.1,13.7,32.5l-19.7,27.4c-8.4,11.8-7.1,27.9,3.2,38.1l29.8,29.8c5.6,5.6,13,8.7,20.9,8.7c6.2,0,12.1-1.9,17.1-5.5 l28.1-20c10.1,5.3,20.7,9.6,31.6,13l5.6,33.6c2.4,14.3,14.7,24.7,29.2,24.7h42.2c14.5,0,26.8-10.4,29.2-24.7l5.7-33.6 c11.3-3.5,22.2-8,32.6-13.5l27.7,19.8c5,3.6,11,5.5,17.2,5.5l0,0c7.9,0,15.3-3.1,20.9-8.7l29.8-29.8c10.2-10.2,11.6-26.3,3.2-38.1 l-19.8-27.8c5.5-10.5,10.1-21.4,13.5-32.6l33.6-5.6c14.3-2.4,24.7-14.7,24.7-29.2v-42.1 C478.9,203.801,468.5,191.501,454.2,189.101z M451.9,260.401c0,1.3-0.9,2.4-2.2,2.6l-42,7c-5.3,0.9-9.5,4.8-10.8,9.9 c-3.8,14.7-9.6,28.8-17.4,41.9c-2.7,4.6-2.5,10.3,0.6,14.7l24.7,34.8c0.7,1,0.6,2.5-0.3,3.4l-29.8,29.8c-0.7,0.7-1.4,0.8-1.9,0.8 c-0.6,0-1.1-0.2-1.5-0.5l-34.7-24.7c-4.3-3.1-10.1-3.3-14.7-0.6c-13.1,7.8-27.2,13.6-41.9,17.4c-5.2,1.3-9.1,5.6-9.9,10.8l-7.1,42 c-0.2,1.3-1.3,2.2-2.6,2.2h-42.1c-1.3,0-2.4-0.9-2.6-2.2l-7-42c-0.9-5.3-4.8-9.5-9.9-10.8c-14.3-3.7-28.1-9.4-41-16.8 c-2.1-1.2-4.5-1.8-6.8-1.8c-2.7,0-5.5,0.8-7.8,2.5l-35,24.9c-0.5,0.3-1,0.5-1.5,0.5c-0.4,0-1.2-0.1-1.9-0.8l-29.8-29.8 c-0.9-0.9-1-2.3-0.3-3.4l24.6-34.5c3.1-4.4,3.3-10.2,0.6-14.8c-7.8-13-13.8-27.1-17.6-41.8c-1.4-5.1-5.6-9-10.8-9.9l-42.3-7.2 c-1.3-0.2-2.2-1.3-2.2-2.6v-42.1c0-1.3,0.9-2.4,2.2-2.6l41.7-7c5.3-0.9,9.6-4.8,10.9-10c3.7-14.7,9.4-28.9,17.1-42 c2.7-4.6,2.4-10.3-0.7-14.6l-24.9-35c-0.7-1-0.6-2.5,0.3-3.4l29.8-29.8c0.7-0.7,1.4-0.8,1.9-0.8c0.6,0,1.1,0.2,1.5,0.5l34.5,24.6 c4.4,3.1,10.2,3.3,14.8,0.6c13-7.8,27.1-13.8,41.8-17.6c5.1-1.4,9-5.6,9.9-10.8l7.2-42.3c0.2-1.3,1.3-2.2,2.6-2.2h42.1 c1.3,0,2.4,0.9,2.6,2.2l7,41.7c0.9,5.3,4.8,9.6,10,10.9c15.1,3.8,29.5,9.7,42.9,17.6c4.6,2.7,10.3,2.5,14.7-0.6l34.5-24.8 c0.5-0.3,1-0.5,1.5-0.5c0.4,0,1.2,0.1,1.9,0.8l29.8,29.8c0.9,0.9,1,2.3,0.3,3.4l-24.7,34.7c-3.1,4.3-3.3,10.1-0.6,14.7 c7.8,13.1,13.6,27.2,17.4,41.9c1.3,5.2,5.6,9.1,10.8,9.9l42,7.1c1.3,0.2,2.2,1.3,2.2,2.6v42.1H451.9z" fill="#000000" style="fill: rgb(255, 255, 255);"></path><path d="M239.4,136.001c-57,0-103.3,46.3-103.3,103.3s46.3,103.3,103.3,103.3s103.3-46.3,103.3-103.3S296.4,136.001,239.4,136.001 z M239.4,315.601c-42.1,0-76.3-34.2-76.3-76.3s34.2-76.3,76.3-76.3s76.3,34.2,76.3,76.3S281.5,315.601,239.4,315.601z" fill="#000000" style="fill: rgb(255, 255, 255);"></path></g></g></svg><svg id="sidebar-icon" viewBox="0 0 469.333 469.333" style="enable-background:new 0 0 469.333 469.333;"><g><g><path d="M448,0H21.333C9.552,0,0,9.552,0,21.333V448c0,11.781,9.552,21.333,21.333,21.333H448 c11.781,0,21.333-9.552,21.333-21.333V21.333C469.333,9.552,459.781,0,448,0z M138.667,426.667h-96v-384h96V426.667z M426.667,426.667H181.333v-384h245.333V426.667z" fill="#000000" style="fill: rgb(255, 255, 255);"></path></g></g></svg><svg viewBox="0,0,256,256" id="simple"><g fill="#83008b" fill-rule="nonzero" stroke="none" stroke-width="1" stroke-linecap="butt" stroke-linejoin="miter" stroke-miterlimit="10" stroke-dasharray="" stroke-dashoffset="0" font-family="none" font-weight="none" font-size="none" text-anchor="none" style="mix-blend-mode: normal"><g transform="scale(5.12,5.12)"><path d="M41.9375,8.625c-0.66406,0.02344 -1.27344,0.375 -1.625,0.9375l-18.8125,28.78125l-12.1875,-10.53125c-0.52344,-0.54297 -1.30859,-0.74609 -2.03125,-0.51953c-0.71875,0.22266 -1.25391,0.83203 -1.37891,1.57422c-0.125,0.74609 0.17578,1.49609 0.78516,1.94531l13.9375,12.0625c0.4375,0.37109 1.01563,0.53516 1.58203,0.45313c0.57031,-0.08594 1.07422,-0.41016 1.38672,-0.89062l20.09375,-30.6875c0.42969,-0.62891 0.46484,-1.44141 0.09375,-2.10547c-0.37109,-0.66016 -1.08594,-1.05469 -1.84375,-1.01953z"></path></g></g></svg><svg id="support" viewBox="0 0 512 512" style="enable-background:new 0 0 512 512;"><polygon style="" points="264.435,342.407 325.245,403.217 203.615,403.217 253.385,353.457 " fill="#C6C5CB"></polygon><polygon style="" points="264.435,342.407 325.245,403.217 253.385,403.217 253.385,331.357 " fill="#898890"></polygon><path style="" d="M504.495,52.737v350.48h-107.6c-0.06-0.06-0.12-0.13-0.18-0.19l-143.33-143.33l-45.11-45.11 c6.67-19.15,2.36-41.28-12.94-56.58c-16.01-16.01-39.48-19.99-59.21-11.95l35.58,35.58l-6.38,23.54l-23.54,6.38l-35.58-35.58 c-8.03,19.72-4.05,43.2,11.96,59.2c14.37,14.38,34.76,19.04,53.06,14.03l46.09,46.09l-107.92,107.92H7.495V52.737H504.495z" fill="#C6C5CB"></path><g><path style="" d="M504.495,52.737v350.48h-107.6c-0.06-0.06-0.12-0.13-0.18-0.19l-143.33-143.33V52.737H504.495z" fill="#898890"></path><rect x="7.495" y="52.737" style="" width="497" height="66.06" fill="#898890"></rect></g><rect x="253.38" y="52.737" style="" width="251.11" height="66.06" fill="#57565C"></rect><g><circle style="fill: rgb(131, 0, 139);" cx="45.917" cy="86.32" r="12.445" fill="#47F8FE"></circle><circle style="fill: rgb(131, 0, 139);" cx="103.42" cy="86.32" r="12.445" fill="#47F8FE"></circle><circle style="fill: rgb(131, 0, 139);" cx="160.92" cy="86.32" r="12.445" fill="#47F8FE"></circle><path style="fill: rgb(131, 0, 139);" d="M455.448,98.761H326.851c-6.873,0-12.445-5.572-12.445-12.445l0,0 c0-6.873,5.572-12.445,12.445-12.445h128.596c4.938,0,9.204,2.876,11.215,7.043c0.788,1.634,1.23,3.466,1.23,5.402l0,0 C467.893,93.189,462.321,98.761,455.448,98.761z" fill="#47F8FE"></path></g><polygon style="" points="264.435,342.407 150.685,456.157 126.615,432.087 103.575,409.047 217.315,295.297 240.365,318.337 " fill="#FED322"></polygon><rect x="115.086" y="370.229" transform="matrix(-0.7071 0.7071 -0.7071 -0.7071 607.6001 522.8214)" style="" width="160.868" height="34.04" fill="#FF9911"></rect><rect x="371.056" y="155.703" transform="matrix(-0.7071 -0.7071 0.7071 -0.7071 538.0873 568.7017)" style="" width="31.54" height="34.412" fill="#57565C"></rect><path style="fill: rgb(131, 0, 139);" d="M404.595,421.847c0,5.93-2.04,11.8-6.13,16.46c-0.35,0.41-0.72,0.8-1.11,1.19 c-9.9,9.9-26.23,9.61-36.48-0.64l-189.65-189.65c-18.3,5.01-38.69,0.35-53.06-14.03c-16.01-16-19.99-39.48-11.96-59.2l35.58,35.58 l23.54-6.38l6.38-23.54l-35.58-35.58c19.73-8.04,43.2-4.06,59.21,11.95c15.3,15.3,19.61,37.43,12.94,56.58l188.44,188.44 c4.4,4.39,6.96,9.91,7.67,15.55C404.525,419.667,404.595,420.757,404.595,421.847z" fill="#FE0B37"></path><path style="fill: rgb(131, 0, 139);" d="M398.465,438.307c-0.35,0.41-0.72,0.8-1.11,1.19c-9.9,9.9-26.23,9.61-36.48-0.64l-189.65-189.65 c-18.3,5.01-38.69,0.35-53.06-14.03c-16.01-16-19.99-39.48-11.96-59.2l35.58,35.58l23.54-6.38L398.465,438.307z" fill="#A50020"></path><g><rect x="472" y="244.69" style="" width="15" height="15.186" fill="#FFFFFF"></rect><polygon style="" points="487,276.237 472,276.237 472,370.723 454.018,370.723 454.018,385.723 487,385.723 " fill="#FFFFFF"></polygon><polygon style="" points="81.939,385.723 81.939,370.723 40,370.723 40,313.035 25,313.035 25,385.723 " fill="#FFFFFF"></polygon></g><g><path style="" d="M0,45.236v81.057v284.43h94.643l56.041,56.041l56.041-56.041h115.414l33.438,33.438 c6.339,6.339,14.699,9.916,23.542,10.071c0.201,0.004,0.401,0.006,0.603,0.006c8.715-0.001,16.841-3.338,22.939-9.436 c7.108-7.109,10.45-17.009,9.169-27.16c-0.298-2.359-0.851-4.679-1.637-6.919H512v-284.43V45.236H0z M15,60.236h482v51.057H15 V60.236z M114.177,409.043l103.14-103.141l36.507,36.507l-51.068,51.069l-52.072,52.073L114.177,409.043z M221.725,395.723 l42.706-42.706l42.706,42.706H221.725z M392.052,434.195c-3.334,3.336-7.837,5.156-12.67,5.039 c-4.936-0.087-9.623-2.104-13.198-5.681L173.446,240.817l-4.204,1.152c-1.019,0.279-2.043,0.524-3.07,0.732 c-11.299,2.298-22.979,0.343-32.815-5.273c-3.577-2.042-6.91-4.569-9.893-7.551c-7.243-7.242-11.756-16.409-13.254-26.078 c-0.681-4.395-0.739-8.893-0.146-13.362l29.492,29.493l0,0l0,0l31.882-8.645l8.646-31.883l-29.493-29.492 c0.65-0.086,1.301-0.143,1.952-0.202c1.139-0.102,2.279-0.179,3.417-0.198c12.519-0.213,24.853,4.582,34.071,13.8 c0.874,0.873,1.704,1.78,2.498,2.712c10.672,12.525,14.117,30.069,8.77,45.782c-0.92,1.927-6.004,12.171-13.421,19.587L198.484,242 c4.819-4.819,8.748-10.412,11.577-15.022l61.344,61.344l0,0c0.001,0.001,0.002,0.002,0.003,0.003l119.897,119.897 c0.068,0.075,0.137,0.149,0.209,0.223l0.118,0.122c2.952,3.047,4.793,6.823,5.314,10.953 C397.643,425.039,395.859,430.389,392.052,434.195z M497,395.723h-96.979L287.317,283.02l87.342-87.344l11.15,11.15l34.939-34.939 l-32.908-32.909l-34.939,34.939l11.152,11.152c-28.333,28.344-72.301,72.323-87.338,87.349l-59.955-59.955 c5.553-21.158-0.527-44.163-16.122-59.759c-0.702-0.702-1.422-1.377-2.151-2.04c-1.569-1.428-3.194-2.772-4.876-4.016 c-17.241-12.756-40.014-15.808-60.311-7.537l-10.46,4.262l40.492,40.491l-4.121,15.195l-15.194,4.12l-40.493-40.492l-4.262,10.46 c-0.295,0.725-0.576,1.453-0.843,2.184c-8.263,22.656-2.719,47.998,14.437,65.154c0.918,0.917,1.86,1.802,2.826,2.654 c0.87,0.767,1.762,1.503,2.669,2.216c0.266,0.209,0.535,0.414,0.804,0.619c1.347,1.024,2.728,1.993,4.146,2.898 c0.367,0.234,0.738,0.459,1.109,0.685c0.183,0.111,0.364,0.228,0.549,0.338c0.123,0.073,0.249,0.141,0.372,0.214 c0.664,0.388,1.334,0.762,2.011,1.125c12.577,6.747,27.276,9.053,41.532,6.226l37.837,37.837L106.284,395.723H15v-269.43h482 V395.723z M374.114,173.917l13.727-13.727l11.695,11.696l-13.727,13.727L374.114,173.917z" fill="#020202"></path><path style="" d="M45.917,66.371c-10.998,0-19.945,8.947-19.945,19.944c0,10.998,8.947,19.945,19.945,19.945 s19.945-8.947,19.945-19.945C65.862,75.318,56.915,66.371,45.917,66.371z M45.917,91.261c-2.727,0-4.945-2.219-4.945-4.945 s2.218-4.944,4.945-4.944s4.945,2.218,4.945,4.944S48.644,91.261,45.917,91.261z" fill="#020202"></path><path style="" d="M103.418,66.371c-10.998,0-19.945,8.947-19.945,19.944c0,10.998,8.947,19.945,19.945,19.945 s19.945-8.947,19.945-19.945C123.364,75.318,114.416,66.371,103.418,66.371z M103.418,91.261c-2.727,0-4.945-2.219-4.945-4.945 s2.218-4.944,4.945-4.944s4.945,2.218,4.945,4.944S106.145,91.261,103.418,91.261z" fill="#020202"></path><path style="" d="M160.919,66.371c-10.997,0-19.945,8.947-19.945,19.944c0,10.998,8.947,19.945,19.945,19.945 s19.945-8.947,19.945-19.945C180.865,75.318,171.917,66.371,160.919,66.371z M160.919,91.261c-2.727,0-4.945-2.219-4.945-4.945 s2.218-4.944,4.945-4.944s4.945,2.218,4.945,4.944S163.646,91.261,160.919,91.261z" fill="#020202"></path><path style="" d="M455.447,66.371H326.852c-10.998,0-19.945,8.947-19.945,19.944c0,10.998,8.947,19.945,19.945,19.945 h128.596c10.998,0,19.945-8.947,19.945-19.945c0-3.032-0.665-5.947-1.976-8.66C470.11,70.801,463.057,66.371,455.447,66.371z M455.447,91.261H326.852c-2.727,0-4.945-2.219-4.945-4.945s2.219-4.944,4.945-4.944h128.596c1.917,0,3.626,1.073,4.461,2.805 c0.321,0.665,0.484,1.385,0.484,2.14C460.393,89.042,458.174,91.261,455.447,91.261z" fill="#020202"></path></g><g><rect x="190.508" y="366.809" transform="matrix(-0.707 -0.7072 0.7072 -0.707 73.8949 777.5145)" style="" width="15" height="13.283" fill="#FFFFFF"></rect><polygon style="" points="150.684,410.195 145.72,405.23 135.114,415.838 150.684,431.408 184.876,397.217 174.269,386.609 " fill="#FFFFFF"></polygon></g></svg><svg viewBox="0 0 463 463" id="task"><g><g><path d="M71.5,0C32.075,0,0,32.075,0,71.5S32.075,143,71.5,143S143,110.925,143,71.5S110.925,0,71.5,0z M71.5,128 C40.346,128,15,102.654,15,71.5S40.346,15,71.5,15S128,40.346,128,71.5S102.654,128,71.5,128z" fill="currentColor"></path><path d="M71.5,160C32.075,160,0,192.075,0,231.5S32.075,303,71.5,303s71.5-32.075,71.5-71.5S110.925,160,71.5,160z M71.5,288 C40.346,288,15,262.654,15,231.5S40.346,175,71.5,175s56.5,25.346,56.5,56.5S102.654,288,71.5,288z" fill="currentColor"></path><path d="M71.5,320C32.075,320,0,352.075,0,391.5S32.075,463,71.5,463s71.5-32.075,71.5-71.5S110.925,320,71.5,320z M71.5,448 C40.346,448,15,422.654,15,391.5S40.346,335,71.5,335s56.5,25.346,56.5,56.5S102.654,448,71.5,448z" fill="currentColor"></path><path d="m90.196,50.197l-26.696,26.697-10.696-10.697c-2.93-2.929-7.678-2.929-10.607,0s-2.929,7.678 0,10.606l16,16c1.464,1.465 3.384,2.197 5.303,2.197s3.839-0.732 5.304-2.197l32-32c2.929-2.929 2.929-7.678 0-10.606-2.93-2.929-7.678-2.929-10.608,7.10543e-15z" fill="currentColor"></path><path d="m90.196,210.197l-26.696,26.697-10.696-10.697c-2.93-2.929-7.678-2.929-10.607,0s-2.929,7.678 0,10.606l16,16c1.464,1.465 3.384,2.197 5.303,2.197s3.839-0.732 5.304-2.197l32-32c2.929-2.929 2.929-7.678 0-10.606-2.93-2.929-7.678-2.929-10.608,0z" fill="currentColor"></path><path d="m175.5,55h144c4.143,0 7.5-3.358 7.5-7.5s-3.357-7.5-7.5-7.5h-144c-4.143,0-7.5,3.358-7.5,7.5s3.357,7.5 7.5,7.5z" fill="currentColor"></path><path d="m175.5,103h280c4.143,0 7.5-3.358 7.5-7.5s-3.357-7.5-7.5-7.5h-280c-4.143,0-7.5,3.358-7.5,7.5s3.357,7.5 7.5,7.5z" fill="currentColor"></path><path d="m175.5,215h144c4.143,0 7.5-3.358 7.5-7.5s-3.357-7.5-7.5-7.5h-144c-4.143,0-7.5,3.358-7.5,7.5s3.357,7.5 7.5,7.5z" fill="currentColor"></path><path d="m455.5,248h-280c-4.143,0-7.5,3.358-7.5,7.5s3.357,7.5 7.5,7.5h280c4.143,0 7.5-3.358 7.5-7.5s-3.357-7.5-7.5-7.5z" fill="currentColor"></path><path d="m175.5,375h144c4.143,0 7.5-3.358 7.5-7.5s-3.357-7.5-7.5-7.5h-144c-4.143,0-7.5,3.358-7.5,7.5s3.357,7.5 7.5,7.5z" fill="currentColor"></path><path d="m455.5,408h-280c-4.143,0-7.5,3.358-7.5,7.5s3.357,7.5 7.5,7.5h280c4.143,0 7.5-3.358 7.5-7.5s-3.357-7.5-7.5-7.5z" fill="currentColor"></path></g></g></svg><svg id="theme-icon" viewBox="0 0 512 512" style="enable-background:new 0 0 512 512;"><g><g><path d="M334.769,249.436V78.769C334.769,35.266,299.503,0,256,0s-78.769,35.266-78.769,78.769v170.667H98.462V512h210.051 l26.256-39.385L361.026,512h52.513V249.436H334.769z M374.154,460.691l-39.385-59.077l-47.335,71.001H137.846V367.59h236.308 V460.691z M374.154,328.205H137.846V288.82h78.769V78.769c0-21.717,17.668-39.385,39.385-39.385s39.385,17.668,39.385,39.385 V288.82h78.769V328.205z" fill="#000000" style="fill: rgb(255, 255, 255);"></path></g></g></svg></svg>