<svg width="104" height="98" viewBox="0 0 104 98" fill="none" xmlns="http://www.w3.org/2000/svg">
<path d="M78.6061 62H25.5019C20.7932 62 17 57.8186 17 52.6279V2.16279C17 0.937209 17.8502 0 18.962 0H35.0502C37.9278 0 40.5437 1.58605 42.1133 4.18139L44.7947 8.57907C45.6449 10.0209 47.0836 10.814 48.5878 10.814H71.2814C75.9901 10.814 79.7833 14.9953 79.7833 20.186V45.4186C79.7833 46.6442 78.9331 47.5814 77.8213 47.5814C76.7095 47.5814 75.8593 46.6442 75.8593 45.4186V20.186C75.8593 17.3744 73.8319 15.1395 71.2814 15.1395H48.6532C45.7757 15.1395 43.1597 13.5535 41.5901 10.9581L38.9087 6.56047C38.0586 5.1186 36.6198 4.32558 35.1156 4.32558H20.924V52.6279C20.924 55.4395 22.9513 57.6744 25.5019 57.6744H78.6061C80.8951 57.6744 82.857 55.8 83.1186 53.2767L88.0236 13.6256C88.1544 12.1837 87.762 10.7419 86.9118 9.66047C86.0616 8.57907 84.819 7.93023 83.511 7.93023C82.3992 7.93023 81.549 6.99302 81.549 5.76744C81.549 4.54186 82.3992 3.60465 83.511 3.60465C85.9308 3.60465 88.2852 4.75814 89.8547 6.77674C91.4897 8.79535 92.2091 11.4628 91.9475 14.1302L87.0426 53.7814C86.5194 58.4674 82.857 62 78.6061 62Z" fill="#4D3E00"/>
<path d="M83.511 7.93007H41.1977C40.0859 7.93007 39.2357 6.99286 39.2357 5.76728C39.2357 4.5417 40.0859 3.60449 41.1977 3.60449H83.511C84.6228 3.60449 85.473 4.5417 85.473 5.76728C85.473 6.99286 84.5574 7.93007 83.511 7.93007Z" fill="#4D3E00"/>
<ellipse cx="32.5" cy="29" rx="4.5" ry="5" fill="#4D3E00"/>
<ellipse cx="64.5" cy="29" rx="4.5" ry="5" fill="#4D3E00"/>
<path d="M56 30C56 34.4182 52.6421 38 48.5 38C44.3579 38 41 34.4182 41 30C48.1512 30 44.3579 30 48.5 30C52.6421 30 49.7209 30 56 30Z" fill="#4D3E00"/>
<path d="M4.68555 88V72.5312H8.93945C10.0527 72.5312 10.8906 72.8418 11.4531 73.4629C12.0156 74.0781 12.2969 74.9805 12.2969 76.1699V83.4121C12.2969 84.877 12.0391 86.0078 11.5234 86.8047C11.0137 87.6016 10.1172 88 8.83398 88H4.68555ZM7.79688 85.2666H8.33301C8.90137 85.2666 9.18555 84.9912 9.18555 84.4404V76.46C9.18555 75.9443 9.11523 75.6133 8.97461 75.4668C8.83984 75.3145 8.56152 75.2383 8.13965 75.2383H7.79688V85.2666ZM13.1406 88L14.6348 72.5312H19.8818L21.3496 88H18.4229L18.2031 85.5039H16.3398L16.1465 88H13.1406ZM16.5596 83.0342H17.9658L17.2891 75.168H17.1484L16.5596 83.0342ZM22.1582 88V72.5312H25.1465V88H22.1582ZM26.377 88V72.5312H29.4707V85.3633H32.6523V88H26.377ZM34.8408 88V82.9111L32.3711 72.5312H35.4385L36.2998 77.7695L37.1611 72.5312H40.2197L37.7588 82.9111V88H34.8408ZM44.7988 88L46.293 72.5312H51.54L53.0078 88H50.0811L49.8613 85.5039H47.998L47.8047 88H44.7988ZM48.2178 83.0342H49.624L48.9473 75.168H48.8066L48.2178 83.0342ZM53.957 88V72.5312H60.1445V75.5459H57.0684V78.0068H59.9863V80.9863H57.0684V88H53.957ZM61.1465 88V72.5312H67.334V75.5459H64.2578V78.0068H67.1758V80.9863H64.2578V88H61.1465ZM67.7559 88L69.25 72.5312H74.4971L75.9648 88H73.0381L72.8184 85.5039H70.9551L70.7617 88H67.7559ZM71.1748 83.0342H72.5811L71.9043 75.168H71.7637L71.1748 83.0342ZM76.7734 88V72.5312H79.7617V88H76.7734ZM80.9922 88V72.5312H85.7383C86.5293 72.5312 87.127 72.7129 87.5312 73.0762C87.9355 73.4336 88.2051 73.9375 88.3398 74.5879C88.4805 75.2324 88.5508 75.9912 88.5508 76.8643C88.5508 77.708 88.4424 78.3818 88.2256 78.8857C88.0146 79.3896 87.6133 79.7383 87.0215 79.9316C87.5078 80.0312 87.8477 80.2744 88.041 80.6611C88.2402 81.042 88.3398 81.5371 88.3398 82.1465V88H85.29V81.9443C85.29 81.4932 85.1963 81.2148 85.0088 81.1094C84.8271 80.998 84.5312 80.9424 84.1211 80.9424V88H80.9922ZM84.1387 78.2617H84.8857C85.3135 78.2617 85.5273 77.7959 85.5273 76.8643C85.5273 76.2607 85.4805 75.8652 85.3867 75.6777C85.293 75.4902 85.1172 75.3965 84.8594 75.3965H84.1387V78.2617ZM93.2441 88.1406C91.832 88.1406 90.8125 87.7891 90.1855 87.0859C89.5645 86.3828 89.2539 85.2637 89.2539 83.7285V82.2168H92.3125V84.1504C92.3125 84.5078 92.3652 84.7891 92.4707 84.9941C92.582 85.1934 92.7725 85.293 93.042 85.293C93.3232 85.293 93.5166 85.2109 93.6221 85.0469C93.7334 84.8828 93.7891 84.6133 93.7891 84.2383C93.7891 83.7637 93.7422 83.3682 93.6484 83.0518C93.5547 82.7295 93.3906 82.4248 93.1562 82.1377C92.9277 81.8447 92.6084 81.5049 92.1982 81.1182L90.8096 79.7998C89.7725 78.8213 89.2539 77.7021 89.2539 76.4424C89.2539 75.124 89.5586 74.1191 90.168 73.4277C90.7832 72.7363 91.6709 72.3906 92.8311 72.3906C94.249 72.3906 95.2539 72.7686 95.8457 73.5244C96.4434 74.2803 96.7422 75.4287 96.7422 76.9697H93.5957V75.9062C93.5957 75.6953 93.5342 75.5312 93.4111 75.4141C93.2939 75.2969 93.1328 75.2383 92.9277 75.2383C92.6816 75.2383 92.5 75.3086 92.3828 75.4492C92.2715 75.584 92.2158 75.7598 92.2158 75.9766C92.2158 76.1934 92.2744 76.4277 92.3916 76.6797C92.5088 76.9316 92.7402 77.2217 93.0859 77.5498L94.8701 79.2637C95.2275 79.6035 95.5557 79.9639 95.8545 80.3447C96.1533 80.7197 96.3936 81.1592 96.5752 81.6631C96.7568 82.1611 96.8477 82.7705 96.8477 83.4912C96.8477 84.9443 96.5781 86.084 96.0391 86.9102C95.5059 87.7305 94.5742 88.1406 93.2441 88.1406Z" fill="#4D3E00"/>
<line x1="0.000148315" y1="67.5" x2="100" y2="67.5099" stroke="#4D3E00" stroke-width="3"/>
</svg>
