<svg width="890" height="30" viewBox="0 0 890 30" fill="none" xmlns="http://www.w3.org/2000/svg">
<path d="M279.334 25.541C279.481 25.4928 279.578 25.4101 279.749 25.4066C280.482 25.3928 281.239 25.3997 282.216 25.3997C280.726 25.2137 277.429 25.2309 276.281 25.3963C274.987 25.5824 274.864 25.5755 273.839 25.3377C273.668 25.2964 273.106 25.2929 272.788 25.2584C272.715 25.2516 272.959 25.1792 273.033 25.1551C269.809 25.0965 266.609 25.0138 263.41 24.9897C261.407 24.9759 259.624 25.0965 257.89 25.3101C256.669 25.4618 254.544 25.4445 252.834 25.4962C252.126 25.5169 251.418 25.5238 250.709 25.5376C250.734 25.572 250.758 25.6065 250.783 25.6409C251.662 25.6272 252.541 25.6099 253.396 25.603C254.104 25.5996 254.813 25.603 255.496 25.6306C255.667 25.6375 255.838 25.7822 255.741 25.7891C255.203 25.8339 254.568 25.8752 253.958 25.889C251.418 25.9373 248.853 25.9752 246.289 26.0165C246.289 26.0579 246.289 26.0958 246.289 26.1371C258.11 26.2819 269.931 26.4231 281.85 26.5678C281.874 26.5368 281.874 26.5093 281.898 26.4852C281.996 26.3818 286.075 25.8442 286.71 25.858C289.201 25.9132 291.57 25.9614 294.135 25.7994C295.82 25.6926 298.043 25.7788 300.021 25.8304C298.653 25.8477 297.285 25.8615 295.722 25.8821C296.773 26.1854 298.189 26.1027 299.508 26.0923C300.412 26.0854 301.34 26.0992 302.243 26.1165C304.075 26.1509 305.883 26.2026 307.714 26.2267C310.523 26.2646 313.332 26.3129 316.141 26.2956C317.533 26.2853 318.607 26.2887 319.535 26.492C318.852 26.5058 318.265 26.5093 317.679 26.5299C314.358 26.6402 311.256 26.7332 307.69 26.5472C304.906 26.4025 301.511 26.5196 298.384 26.5472C302.292 26.6161 306.2 26.6816 310.108 26.7505C310.108 26.7918 310.108 26.8332 310.108 26.8745C307.568 26.909 305.028 26.94 302.488 26.9744C302.512 27.0089 302.512 27.0434 302.537 27.0744C303.074 27.1088 303.587 27.1433 304.124 27.1743C304.148 27.1984 304.173 27.2225 304.197 27.2432C302.878 27.2777 301.56 27.3397 300.241 27.3431C298.849 27.3466 297.456 27.2984 296.064 27.2708C296.04 27.3087 296.015 27.3466 295.991 27.3845C300.265 27.4224 304.564 27.4637 308.838 27.5016C308.838 27.5327 308.838 27.5602 308.862 27.5912C305.492 27.8221 301.877 27.6636 298.336 27.6808C298.189 27.7532 298.067 27.8256 297.872 27.9255C302.976 28.0116 308.154 28.0978 313.576 28.1874C313.332 28.2735 313.161 28.3286 312.965 28.3976C315.628 28.5113 318.021 28.4423 320.415 28.3493C320.415 28.3114 320.415 28.277 320.415 28.239C318.314 28.2046 316.214 28.1667 313.723 28.1253C314.822 27.9151 315.383 27.7808 316.995 27.9255C317.704 27.991 319.023 27.8945 320.17 27.8669C321.025 27.9117 322.1 28.0047 323.175 28.0151C327.986 28.0564 332.797 28.0564 337.609 28.1047C341.712 28.146 345.791 28.2356 349.87 28.2907C351.091 28.308 352.581 28.146 353.362 28.5044C349.748 28.4561 346.279 28.401 342.836 28.3631C339.954 28.3286 337.072 28.3045 334.19 28.2942C332.48 28.2873 330.746 28.308 329.036 28.3286C328.45 28.3355 327.913 28.3872 327.327 28.401C326.887 28.4113 326.13 28.4217 326.032 28.3941C324.909 28.0357 323.052 28.3114 321.563 28.2149C322.027 28.6629 324.249 28.5733 325.91 28.6181C328.108 28.6767 330.355 28.7111 332.529 28.8041C321.782 28.6112 310.865 28.749 300.29 28.2804C300.216 28.3114 300.167 28.3424 300.094 28.3734C300.363 28.4251 300.631 28.4768 300.9 28.5285C300.827 28.5457 300.778 28.5595 300.705 28.5767C299.899 28.494 299.142 28.401 298.311 28.3286C297.603 28.2701 296.455 28.1632 296.089 28.2011C293.842 28.4458 291.302 28.3321 288.908 28.3769C286.466 28.4217 283.999 28.4561 281.557 28.4734C279.041 28.494 276.501 28.4871 273.961 28.4975C273.448 28.5009 272.959 28.5285 272.447 28.5457C272.447 28.5733 272.422 28.5974 272.422 28.625C274.62 28.6904 276.818 28.7594 279.017 28.8248C279.017 28.8386 278.992 28.8524 278.992 28.8662C276.989 28.8937 274.987 28.942 273.008 28.942C270.541 28.942 268.05 28.9316 265.632 28.8662C263.996 28.8214 262.433 28.5698 260.967 28.594C259.429 28.6215 258.012 28.7249 256.278 28.6801C254.324 28.6284 252.126 28.563 250.319 28.6491C247.29 28.7904 244.31 28.7387 241.306 28.7525C238.498 28.7628 235.713 28.7077 232.905 28.7042C231.293 28.7008 229.656 28.7421 228.044 28.7559C227.36 28.7628 226.603 28.7904 226.041 28.7525C222.524 28.5182 218.861 28.6319 215.271 28.6284C213.561 28.625 211.851 28.6767 210.117 28.6835C209.678 28.6836 209.214 28.5664 208.798 28.5733C207.528 28.594 206.307 28.6525 205.062 28.6904C204.231 28.718 203.376 28.7697 202.57 28.7525C200.421 28.7111 198.321 28.6422 195.805 28.5733C196.098 28.7215 196.245 28.78 196.44 28.8834C192.41 28.7835 188.624 28.6904 184.692 28.594C184.839 28.6629 184.985 28.7318 185.181 28.8317C184.57 28.8386 184.033 28.8524 183.52 28.8524C179.514 28.8352 175.533 28.8248 171.552 28.7938C169.623 28.78 167.718 28.7077 165.788 28.7042C164.958 28.7042 164.079 28.7973 163.346 28.8765C163.15 28.8972 163.272 29.0729 163.468 29.0833C164.933 29.1694 166.448 29.2418 167.962 29.3003C169.256 29.3486 170.648 29.2728 171.528 29.5588C171.845 29.6656 174.336 29.6587 175.802 29.638C178.488 29.5967 181.151 29.5036 183.813 29.4278C184.13 29.4175 184.423 29.4003 185.181 29.3624C183.105 29.2659 181.493 29.1866 179.856 29.1108C179.881 29.0867 179.905 29.066 179.929 29.0419C182.103 29.0591 184.277 29.0764 186.793 29.097C186.084 29.3762 186.524 29.4657 188.136 29.4692C189.186 29.4692 190.212 29.5657 191.262 29.6001C192.044 29.6277 192.996 29.8069 193.631 29.5588C193.68 29.5381 194.608 29.5416 194.633 29.5519C195.023 29.8103 196.367 29.7104 197.344 29.7173C200.323 29.7414 203.303 29.7759 206.283 29.769C208.701 29.7621 211.119 29.7035 213.536 29.6656C213.561 29.6966 213.585 29.7276 213.61 29.7621C210.459 29.8069 207.308 29.8689 204.133 29.893C198.345 29.9413 192.557 29.9964 186.768 29.9998C182.689 30.0033 178.586 29.9481 174.483 29.8896C167.547 29.7896 160.635 29.6725 153.723 29.5553C150.572 29.5036 147.446 29.4313 144.295 29.3762C137.774 29.2624 131.253 29.1556 124.707 29.0075C126.906 29.0075 129.128 28.9937 131.326 29.0109C136.675 29.0454 142.024 29.0936 147.373 29.1384C147.422 29.0936 147.47 29.0523 147.519 29.0075C146.884 28.9799 146.274 28.9385 145.639 28.9282C137.97 28.8076 130.276 28.7042 122.631 28.563C119.31 28.5009 116.013 28.3734 112.74 28.2459C111.152 28.1839 109.687 28.0461 108.124 27.96C107.538 27.9289 106.829 27.9565 105.926 27.9565C106.316 28.0495 106.487 28.0874 106.756 28.1529C103.263 28.1185 99.8686 28.084 96.0096 28.0426C96.6446 27.9565 96.9377 27.9151 97.4018 27.8531C95.3013 27.6119 92.859 27.6257 90.5387 27.6464C86.1913 27.6843 81.8683 27.7601 77.5453 27.8152C77.3255 27.8187 77.0812 27.798 76.3241 27.767C77.472 27.7084 78.0582 27.6774 78.6932 27.6464C78.4978 27.3776 77.472 27.4155 76.2997 27.4638C75.2006 27.5086 74.0771 27.5258 72.9536 27.5465C69.7297 27.5981 66.5302 27.6464 63.3063 27.6981L63.3551 27.7015C65.6021 27.6257 67.8491 27.5499 70.1205 27.4775C71.244 27.4431 72.3675 27.4155 73.4665 27.3363C70.5601 27.3052 67.6781 27.0675 64.9182 27.3569C59.5206 26.9572 53.7322 27.1433 48.188 27.0089C48.1391 27.0503 48.0903 27.0882 48.0659 27.1295C49.8244 27.1812 51.6073 27.2329 53.3414 27.2846C53.146 27.2949 52.8041 27.3363 52.4866 27.3328C47.4553 27.2811 42.424 27.2225 37.4171 27.164C35.7563 27.1433 35.3655 26.9745 35.39 26.8056C32.508 26.4541 29.7725 26.1199 26.9149 25.7719C28.8444 25.4376 31.1647 25.7753 33.2162 25.6892C32.8987 25.3997 31.9218 25.2619 29.9923 25.2619C29.3573 25.2619 28.7467 25.1551 27.9652 25.0827C28.6734 24.9036 29.4062 24.7588 29.7969 24.59C29.919 24.5383 29.1619 24.4005 28.6002 24.3557C27.3546 24.2592 25.9624 24.1972 24.6435 24.1214C24.5947 24.0835 24.5458 24.0421 24.497 24.0042C25.5472 23.9387 26.6218 23.8802 27.6232 23.8009C28.3071 23.7458 28.8933 23.6562 29.7969 23.5459C27.5744 23.4115 25.6205 23.2909 23.6422 23.1703C23.6666 23.129 23.6666 23.0876 23.691 23.0497C25.1808 22.9946 26.6951 22.9429 28.185 22.8878C21.6883 22.6052 16.022 22.0091 9.13447 21.8678C9.23216 21.8196 9.35428 21.7748 9.45198 21.7265C12.4561 21.8299 15.4358 21.9505 18.4399 22.0367C21.1021 22.1125 23.8131 22.1676 26.5242 22.2055C27.0126 22.2124 27.5744 22.0952 28.1361 22.0504C28.6246 22.0125 29.1619 21.9712 29.6992 21.9678C30.7983 21.9643 31.8974 21.985 32.6789 21.9919C33.2163 21.8506 33.5826 21.7541 34.1199 21.6128C31.6043 21.5129 29.0642 21.413 26.0357 21.2924C28.7956 21.1925 31.0181 21.1132 33.7291 21.0167C32.9476 20.9306 32.3858 20.8651 31.5066 20.7686C34.4863 20.7686 37.0752 20.7686 39.6397 20.7686C39.6885 20.7479 39.713 20.7307 39.7618 20.71C38.8093 20.6584 37.8568 20.6067 36.9775 20.5619C37.2217 20.5274 37.5881 20.4792 37.93 20.4309C37.5881 20.3827 37.295 20.3034 36.9287 20.2931C35.5121 20.2483 34.0467 20.2276 32.6301 20.1966C31.8729 20.1794 31.0914 20.1622 30.3343 20.0726C31.8729 20.0416 33.4116 20.0071 34.9259 19.9761C34.9259 19.9313 34.9259 19.8865 34.9259 19.8417C32.6545 19.8176 30.3587 19.79 27.9163 19.7659C28.0628 19.6901 28.185 19.6315 28.4048 19.5247C26.109 19.4868 23.9841 19.4489 21.8592 19.4144C21.8592 19.4007 21.8348 19.3834 21.8348 19.3696C23.4223 19.3283 25.0343 19.2869 26.6218 19.2456C26.6218 19.2249 26.6218 19.2042 26.6218 19.187C25.0832 19.1112 23.52 19.032 21.9813 18.9562C22.0302 18.9286 22.079 18.8976 22.1279 18.87C24.2772 18.9217 26.4509 18.9734 28.6002 19.0251C28.649 18.9906 28.6979 18.9596 28.7467 18.9251C27.0859 18.8424 25.132 18.8149 23.8375 18.6598C22.6896 18.522 22.2744 18.2429 21.444 18.0017C23.4223 18.0706 25.3274 18.1361 27.2569 18.2015C27.3057 18.1705 27.379 18.1395 27.4278 18.1085C26.3532 18.0396 25.2297 17.9776 24.2039 17.8914C23.8375 17.8604 23.691 17.7605 23.4468 17.695C23.862 17.6709 24.3016 17.6261 24.6924 17.6295C26.3288 17.6433 27.9896 17.6743 29.8458 17.7019C29.7725 17.6123 29.7237 17.5503 29.6015 17.4124C31.4089 17.4469 33.0941 17.4779 34.7794 17.5124C34.8038 17.4883 34.8526 17.4676 34.8771 17.4435C31.7508 17.3297 28.649 17.216 25.5228 17.1058C25.5472 17.0851 25.5716 17.0644 25.596 17.0403C27.3301 16.9748 29.0398 16.9128 31.067 16.837C30.6762 16.9059 30.4808 16.9438 30.1144 17.0058C31.1402 17.0403 32.0195 17.0679 33.1918 17.1058C32.801 16.7233 34.1444 16.7543 35.7075 16.8025C36.5379 16.8267 37.4416 16.806 38.3208 16.7543C37.3927 16.6888 36.3913 16.6406 35.5365 16.551C34.8038 16.4752 34.2665 16.3546 33.3384 16.2064C30.2854 16.0789 26.6463 15.9239 23.0316 15.7723C23.0804 15.7309 23.1293 15.6896 23.1781 15.6517C27.7942 15.7516 32.3858 15.8515 37.0019 15.9514C37.0263 15.9239 37.0508 15.8963 37.0996 15.8687C31.7753 15.6413 26.4509 15.4139 21.1265 15.1865C21.1265 15.1761 21.1509 15.1658 21.1509 15.1555C24.9366 15.2382 28.7223 15.3174 32.5324 15.4001C32.5568 15.3691 32.5812 15.3381 32.6301 15.3071C25.8159 15.0555 19.0016 14.8005 12.1874 14.549C12.2119 14.5214 12.2607 14.4973 12.2851 14.4697C15.7289 14.549 19.2215 14.6041 22.6164 14.7144C28.2827 14.9005 33.949 15.09 39.7862 15.1176C41.2272 15.1244 42.6682 15.1003 44.1092 15.0969C46.1608 15.0934 48.2368 15.0969 50.3128 15.0383C33.7047 14.4939 17.0722 13.9494 -7.26143e-07 13.3878C3.76125 13.119 6.98518 13.4016 10.722 13.3809C9.86718 13.4153 9.50082 13.4326 9.13447 13.4464C16.1685 13.8461 23.7887 13.6428 31.2623 14.0046C29.9923 13.7703 29.9923 13.784 27.2324 13.7461C25.9136 13.7289 24.6191 13.6393 23.3979 13.5084C25.2785 13.5291 27.1836 13.5497 29.0642 13.5739C29.1131 13.5497 29.1375 13.5256 29.1863 13.5049C27.2569 13.4085 25.3274 13.312 23.3002 13.212C23.9108 13.181 24.4481 13.15 25.0587 13.119C23.5445 12.9088 21.8104 12.8778 20.0274 12.9364C18.3422 12.9915 16.5593 12.9812 14.8252 12.9984C14.8008 12.9571 14.7519 12.9157 14.7275 12.8744C16.2418 12.8365 17.756 12.7572 19.2703 12.7675C22.2256 12.7882 25.1564 12.8709 28.1117 12.9123C30.6518 12.9467 33.2162 12.9674 35.7563 12.9812C36.1715 12.9846 36.5867 12.9295 37.6125 12.864C35.5609 12.7917 34.0955 12.74 32.2393 12.6745C33.8513 12.4678 36.0494 12.7951 36.831 12.4436C37.8812 12.3609 38.907 12.2748 40.2014 12.1714C37.8323 11.8889 34.6328 12.0853 31.6776 11.8165C36.8798 11.8923 41.5936 11.9647 46.3074 12.0336C46.3562 12.0095 46.4051 11.9853 46.4295 11.9612C44.8175 11.8785 43.23 11.7614 41.5692 11.7235C39.1268 11.6683 36.6111 11.6787 34.1688 11.6304C33.5826 11.6201 33.1186 11.4823 32.2149 11.3479C37.0996 11.3479 41.3982 11.4857 45.6479 11.2652C42.0576 11.1032 38.8581 10.6932 34.6817 10.9344C34.4619 10.8345 34.2176 10.7276 33.949 10.6105C40.2747 10.6105 46.576 10.6105 52.8773 10.6105C52.9018 10.5726 52.9262 10.5347 52.9262 10.4933C51.0944 10.4727 49.2626 10.4623 47.4553 10.4244C45.7212 10.39 43.9871 10.3279 42.3019 10.2762C42.9125 10.2487 43.5963 10.2177 44.5 10.1763C44.1336 10.1143 43.8406 10.0661 43.3277 9.97991C46.6249 9.91444 49.7511 9.85242 52.8529 9.79039C49.8976 9.47338 46.4539 9.56297 43.2544 9.4975C39.9816 9.42859 36.66 9.40792 33.3384 9.339C40.7876 9.03577 48.7009 9.2942 56.1013 8.95651C56.1013 8.92895 56.1257 8.90138 56.1257 8.87382C53.0239 8.77389 49.9221 8.67397 46.8447 8.57749C46.8203 8.58438 46.9912 8.54992 47.382 8.47756C46.3318 8.45344 45.4281 8.43276 44.1092 8.40175C45.3304 8.34662 46.2097 8.30527 47.0645 8.26392C47.0401 8.25014 47.0156 8.2398 46.9912 8.22601C44.4512 8.195 41.9111 8.16744 39.3466 8.13643C39.3466 8.10542 39.3466 8.0744 39.3466 8.04338C42.8636 8.01237 46.4051 7.98137 49.9221 7.95035C49.9465 7.91934 49.9465 7.89177 49.9709 7.86076C49.3603 7.80908 48.7497 7.76084 47.5285 7.66091C49.8 7.6299 51.4852 7.60578 53.1704 7.58166C53.1948 7.55753 53.1948 7.53341 53.2193 7.50585C48.7986 7.3818 44.3779 7.25776 39.9572 7.13371C39.9816 7.1027 40.006 7.07513 40.0305 7.04412C41.0807 7.02689 42.1553 7.00966 43.2056 6.98898C43.23 6.95108 43.23 6.91318 43.2544 6.87528C40.7143 6.8167 38.1743 6.76156 35.6342 6.70299C37.7102 6.48935 40.4457 6.79602 42.1309 6.43077C42.253 6.40665 41.9599 6.33773 41.8867 6.28949C45.2083 6.32739 48.5299 6.36874 51.876 6.4032C53.1948 6.41698 54.5137 6.42388 55.8326 6.42043C56.9317 6.42043 57.7865 6.36874 57.3957 6.18956C54.3916 6.10686 51.534 6.02761 48.6765 5.94836C53.7077 5.76574 59.1542 6.22057 63.7459 5.61067C50.3373 5.49696 36.9287 5.38326 23.52 5.26955C23.52 5.2282 23.52 5.19029 23.52 5.14894C28.6734 5.15928 33.8757 5.31434 39.0291 5.07658C32.4835 4.78714 25.6449 4.74924 18.5132 4.49425C35.7075 4.16345 52.3156 4.19101 68.9237 4.37364C68.9481 4.40465 68.9481 4.43222 68.9726 4.46323C65.9196 4.46323 62.8911 4.46324 59.8381 4.46324C59.8381 4.50458 59.8137 4.54593 59.8137 4.58728C62.2316 4.61829 64.674 4.64586 67.0919 4.67687C67.0919 4.71133 67.0919 4.74923 67.0919 4.78369C63.5261 4.8147 59.9358 4.84572 55.7838 4.88362C56.6874 4.93875 57.0782 4.98009 57.4934 4.98354C61.0837 5.01455 64.6984 5.02834 68.2887 5.06624C70.1937 5.08692 72.1232 5.13516 74.0039 5.17995C76.4462 5.23853 77.5697 5.14894 77.5941 4.86983C76.3241 4.81125 74.3946 4.87672 74.7366 4.50458C74.761 4.48391 73.0025 4.42189 71.9767 4.37709C73.2223 4.17724 75.8112 4.47357 76.5439 4.06352C75.8356 4.05663 75.225 4.05318 74.6389 4.04629C74.6144 4.02561 74.59 4.00839 74.5656 3.98772C75.86 3.90502 77.1301 3.82232 78.6199 3.72928C77.9605 3.65348 77.3743 3.58801 76.3729 3.47085C77.7895 3.39504 78.7665 3.32268 79.7678 3.29511C85.2632 3.1435 90.7585 2.98844 96.2783 2.86784C101.822 2.74724 107.367 2.6473 112.935 2.5715C114.23 2.55427 115.622 2.67488 116.99 2.73001C117.771 2.76102 118.553 2.80582 119.359 2.81615C124.561 2.88851 129.885 2.88507 134.965 3.05046C139.02 3.1814 142.854 3.11937 146.811 3.0987C149.522 3.08491 152.233 3.1814 154.944 3.20896C156.727 3.22619 158.534 3.22275 160.342 3.20896C161.563 3.19863 162.784 3.15383 163.663 3.13316C162.418 2.95742 161.026 2.75412 159.56 2.56461C158.412 2.41644 157.167 2.28205 156.238 2.17523C156.238 2.17523 156.874 2.16146 157.46 2.14767C157.704 1.79965 156.556 1.70316 154.627 1.69971C146.249 1.68249 137.872 1.62391 129.495 1.65148C126.124 1.66182 122.778 1.85133 119.408 1.95815C118.797 1.97883 118.186 2.00639 117.502 1.9995C120.091 1.70316 123.096 1.60668 126.197 1.58256C132.767 1.53432 139.337 1.51365 145.883 1.47919C151.793 1.44818 157.704 1.39305 163.614 1.38271C171.992 1.36893 180.394 1.38615 188.771 1.38615C192.557 1.38615 196.367 1.37582 200.152 1.38271C203.816 1.3896 207.455 1.4275 211.119 1.4275C218.861 1.42406 226.628 1.39649 234.37 1.38959C236.324 1.38959 238.302 1.4275 240.256 1.45162C240.256 1.47918 240.232 1.50675 240.232 1.53432C238.791 1.52054 237.35 1.49642 235.909 1.49986C229.265 1.52054 222.622 1.5481 215.979 1.58256C207.943 1.62391 199.908 1.66526 191.897 1.71695C187.403 1.74796 182.934 1.80654 178 1.85823C181.029 1.96505 183.74 2.06152 187.134 2.18212C186.035 2.26137 185.523 2.32684 184.961 2.33373C182.592 2.3613 180.223 2.37509 177.853 2.38543C177.414 2.38888 176.95 2.35441 176.51 2.29239C177.414 2.27516 178.293 2.25793 179.197 2.23725C179.197 2.21313 179.197 2.18557 179.197 2.16145C175.753 2.16145 172.309 2.16145 168.866 2.16145C168.841 2.1201 168.841 2.07875 168.817 2.0374C171.161 2.00984 173.506 1.98228 175.826 1.95471C175.826 1.93748 175.802 1.92369 175.802 1.90646C170.819 1.83755 165.861 1.76863 160.855 1.69971C160.488 2.07186 161.245 2.2028 163.443 2.20624C166.79 2.21314 170.136 2.26827 173.482 2.30272C173.482 2.33374 173.482 2.36819 173.482 2.3992C169.696 2.37508 165.91 2.34753 161.929 2.31996C162.198 2.71278 163.956 2.70588 165.3 2.74378C166.936 2.78858 168.621 2.77824 170.258 2.81959C171.479 2.8506 172.602 2.96776 173.824 2.98499C175.436 3.00567 177.072 2.96432 178.708 2.95398C180.613 2.94709 182.494 2.95742 184.399 2.94019C185.693 2.92985 186.988 2.89195 188.258 2.86094C189.821 2.82303 191.384 2.76791 192.972 2.75068C193.558 2.74379 194.169 2.81615 195.048 2.86784C194.046 2.99533 193.436 3.07114 192.361 3.21241C196.293 3.10215 199.395 3.51564 202.912 3.23309C204.036 3.1435 205.819 3.25031 207.308 3.25031C213.463 3.24342 219.618 3.24342 225.748 3.21241C230.633 3.18829 235.493 3.12627 240.378 3.06424C241.575 3.05046 243.089 3.05735 243.553 2.79891C243.602 2.7679 244.262 2.76446 244.652 2.74723C244.994 3.22619 248.389 2.94364 249.342 3.18829C247.095 3.21241 244.75 3.23653 242.381 3.26409C242.381 3.302 242.381 3.34335 242.381 3.38125C250.832 3.39503 259.307 3.40537 267.757 3.41916C267.782 3.44328 267.806 3.46739 267.83 3.48807C267.635 3.46739 267.415 3.44672 266.853 3.39159C267.782 3.3399 268.465 3.30199 269.32 3.25031C269.906 3.75339 272.447 3.49841 274.132 3.57077C275.768 3.63969 277.478 3.67069 279.09 3.76717C280.018 3.74994 281.093 3.55009 281.801 3.85332C283.633 3.75683 285.293 4.25992 287.321 3.88778C287.589 3.83609 288.762 3.89122 289.519 3.90845C291.741 3.96358 293.915 4.05662 296.138 4.07385C301.12 4.11175 306.102 4.12553 311.06 4.12553C312.77 4.12553 314.504 4.01871 316.214 4.01527C318.265 4.01182 320.341 4.06351 322.393 4.09797C323.663 4.11865 324.396 4.08418 323.419 3.83264C323.614 3.8292 323.81 3.8223 324.029 3.81885C324.518 3.92223 325.006 4.02216 325.812 4.191C326.496 4.15655 327.595 4.08763 328.719 4.04628C329.134 4.03249 329.793 4.05318 330.086 4.09797C332.065 4.40809 337.096 4.43221 339.245 4.14966C339.758 4.08074 340.54 4.05661 341.321 4.05661C340.955 4.1083 340.589 4.15999 340.198 4.21513C340.344 4.25303 340.442 4.30127 340.54 4.30127C343.422 4.31505 346.328 4.32194 349.21 4.32883C350.114 4.32883 351.018 4.32194 351.897 4.31505C353.631 4.29782 355.365 4.29438 357.05 4.25647C359.151 4.20823 361.153 4.19445 362.961 4.43221C364.231 4.08763 366.111 4.25647 367.772 4.2358C367.821 4.27026 367.87 4.30126 367.919 4.33572C365.599 4.40808 363.181 4.57348 360.958 4.53213C358.076 4.477 355.292 4.47011 352.41 4.50801C349.283 4.54936 346.108 4.49079 342.933 4.50457C339.954 4.51835 336.974 4.55281 333.994 4.60105C331.503 4.6424 329.061 4.7251 326.569 4.77334C325.934 4.78368 325.251 4.69753 324.591 4.69753C321.807 4.70098 319.023 4.71821 316.214 4.73199C316.189 4.76645 316.189 4.8009 316.165 4.83536C316.434 4.87327 316.702 4.91117 316.995 4.95252C315.872 4.96975 314.773 4.98698 313.674 5.00076C313.649 5.02488 313.649 5.05245 313.625 5.07657C314.016 5.10069 314.504 5.16271 314.773 5.14548C316.751 5.01454 318.412 5.20061 320.219 5.24541C320.732 5.25919 321.318 5.19372 321.758 5.0938C321.074 5.06623 320.415 5.04211 319.731 5.01454C319.78 4.97319 319.829 4.93529 319.877 4.89395C320.708 4.92151 321.611 4.9284 322.369 4.98353C323.541 5.06967 324.445 5.11102 324.786 4.81124C325.006 4.81813 325.202 4.82502 325.422 4.83536C325.861 4.98698 326.276 5.13514 326.716 5.28676C326.545 5.30399 326.35 5.32466 326.179 5.34189C327.253 5.36257 328.352 5.38324 329.451 5.40391C329.427 5.44182 329.403 5.47628 329.378 5.51418C328.01 5.50384 326.643 5.5004 325.275 5.46595C325.153 5.4625 325.251 5.2592 325.251 5.09725C324.762 5.13859 324.176 5.15582 323.981 5.20751C322.881 5.52108 320.903 5.48662 319.096 5.51763C315.432 5.57965 311.866 5.80362 308.081 5.71403C306.42 5.67613 304.759 5.621 303.074 5.58999C302.439 5.57965 301.73 5.60377 301.071 5.621C299.972 5.64856 298.897 5.68302 297.676 5.71748C298.262 6.0655 296.602 6.05172 295.087 6.05861C294.11 6.06205 293.133 6.05861 292.156 6.05861C292.132 6.08273 292.108 6.1103 292.108 6.13442C292.425 6.15165 292.767 6.17921 293.085 6.17921C297.261 6.15854 301.437 6.13097 305.638 6.11374C309.277 6.09996 312.941 6.1034 316.58 6.08273C317.753 6.07584 318.949 5.97936 320.122 5.98281C322.833 5.9897 325.519 6.04483 328.23 6.05517C331.576 6.06895 334.922 6.04138 338.268 6.06206C339.856 6.07239 341.444 6.1861 343.031 6.18266C347.354 6.16887 351.482 6.32049 355.682 6.4342C356.733 6.46177 357.832 6.45143 358.931 6.45832C359.199 6.46176 359.541 6.45488 359.737 6.47555C362.423 6.77878 365.428 6.72709 368.481 6.67885C369.97 6.65818 371.485 6.70641 372.999 6.7202C373.365 6.72364 373.756 6.70986 374.147 6.62717C373.512 6.62717 372.901 6.6375 372.291 6.62372C371.753 6.61338 371.24 6.57893 370.776 6.54102C370.703 6.53413 370.825 6.41697 370.947 6.41353C371.533 6.38941 372.51 6.34116 372.706 6.38251C374.44 6.7133 375.857 6.46176 377.542 6.37217C379.007 6.29292 380.717 6.32394 382.353 6.36873C381.254 6.38252 380.155 6.3963 379.08 6.41008C379.08 6.44109 379.056 6.47211 379.056 6.49967C379.496 6.52724 379.96 6.55824 380.448 6.58926C380.155 6.62371 379.911 6.65473 379.276 6.73398C382.842 6.73398 386.041 6.73398 388.923 6.73398C388.923 6.85803 388.923 6.96829 388.923 7.10957C388.801 7.11991 388.41 7.14747 388.044 7.17848C389.412 7.47826 391.341 7.49549 393.393 7.48171C395.249 7.47137 397.154 7.51962 398.986 7.47827C400.866 7.43692 402.649 7.31631 404.481 7.24395C405.141 7.21638 405.873 7.22673 406.557 7.21984C406.63 7.25774 406.704 7.29909 406.777 7.33699C405.873 7.38868 404.994 7.44036 404.066 7.4955C405.116 7.4955 406.215 7.51273 407.241 7.48861C407.925 7.47138 408.487 7.37489 409.17 7.34043C410.196 7.28875 410.831 7.0441 412.297 7.20605C412.516 7.23017 413.127 7.17504 413.86 7.08545C413.274 7.05099 412.712 7.01309 412.052 6.97174C414.934 6.58237 417.694 6.88559 420.283 6.86836C420.308 6.84079 420.356 6.81668 420.381 6.78912C418.793 6.72709 417.181 6.66507 415.594 6.60649C415.838 6.52724 416.082 6.44109 416.229 6.38941C419.111 6.50312 421.968 6.61683 424.875 6.73398C424.362 6.79601 423.898 6.8408 423.507 6.89593C422.603 7.02687 421.7 7.082 420.357 7.0441C418.5 6.98897 416.571 6.99242 414.69 6.97174C414.324 7.48516 414.324 7.47827 417.23 7.48861C418.916 7.4955 420.625 7.54719 422.31 7.54374C423.043 7.54374 423.727 7.44725 424.46 7.39901C424.753 7.37834 425.168 7.35077 425.412 7.368C427.684 7.49894 429.784 7.42314 431.982 7.30598C432.91 7.25429 434.131 7.33699 435.206 7.33354C438.161 7.32321 441.214 7.22328 444.047 7.30598C446.636 7.38179 448.981 7.2853 451.423 7.26118C451.863 7.25774 452.303 7.23016 452.742 7.21294C452.742 7.18537 452.742 7.15436 452.718 7.12679C450.666 7.11301 448.59 7.08545 446.539 7.0889C442.24 7.09234 437.942 7.15781 433.692 7.10957C431.884 7.08889 430.15 6.9545 428.221 7.06132C427.171 7.1199 426.047 7.15092 424.973 7.19227C424.85 7.14747 424.704 7.10268 424.582 7.05789C425.339 6.98897 426.047 6.88559 426.878 6.85803C429.173 6.77188 431.787 6.58581 433.814 6.67885C437.673 6.85114 441.41 6.73742 445.171 6.74432C446.124 6.74776 447.076 6.65128 448.053 6.59959C448.004 6.57202 447.931 6.54101 447.882 6.51345C445.611 6.51345 443.339 6.51345 441.043 6.51345C441.043 6.48243 441.043 6.45142 441.043 6.41697C443.974 6.41697 446.881 6.41697 450.031 6.41696C449.738 6.53412 449.567 6.60648 449.152 6.76499C450.788 6.72709 452.083 6.69952 452.742 6.68573C456.137 6.68573 458.946 6.69263 461.779 6.6823C464.979 6.67196 468.178 6.65128 471.353 6.62716C476.8 6.58926 482.271 6.58926 487.668 6.48588C490.794 6.4273 493.725 6.64439 496.729 6.53757C498.781 6.46176 501.223 6.62716 502.933 6.31359C503.08 6.28603 503.666 6.28602 503.886 6.30669C505.986 6.49621 505.986 6.49622 508.355 6.33427C508.795 6.30326 509.283 6.29636 509.747 6.27913C508.282 6.01381 508.282 6.01726 506.206 6.15509C505.742 6.1861 505.131 6.18265 504.594 6.1792C502.249 6.15853 499.905 6.11029 497.56 6.11718C496.363 6.12063 495.215 6.23089 494.018 6.27913C493.237 6.31015 492.406 6.31704 491.503 6.28258C491.942 6.25846 492.382 6.23434 492.846 6.21022C492.846 6.18265 492.846 6.15508 492.822 6.12752C488.767 6.12752 484.713 6.12752 480.366 6.12752C480.756 6.03448 481.001 5.97591 481.513 5.84841C479.853 5.83463 478.436 5.82085 477.044 5.81051C477.044 5.84497 477.044 5.88288 477.019 5.91733C477.777 5.90355 478.558 5.88632 479.315 5.87254C479.315 5.90699 479.34 5.94145 479.34 5.97591C475.285 6.16542 471.207 6.18266 466.957 5.92767C467.128 5.88632 467.348 5.83808 467.763 5.74505C465.931 5.64856 464.197 5.55897 462.487 5.46938C462.487 5.4487 462.512 5.43148 462.512 5.41081C464.93 5.46938 467.348 5.52796 469.766 5.58309C471.744 5.62789 473.722 5.66923 475.701 5.71402C475.774 5.67957 475.872 5.64166 475.945 5.6072C475.652 5.55552 475.383 5.50728 474.895 5.42458C476.775 5.366 478.436 5.28675 480.121 5.27641C481.196 5.26952 481.929 5.44181 483.443 5.38668C486.545 5.27297 489.842 5.19027 492.968 5.22473C495.093 5.24885 497.145 5.36256 499.294 5.26263C500.271 5.21783 501.248 5.18338 502.225 5.14203C502.225 5.11447 502.2 5.09034 502.2 5.06278C493.628 4.9663 485.079 4.86636 476.287 4.76644C478.631 4.48388 484.86 4.4322 488.499 4.64239C488.425 4.5528 488.328 4.46666 488.23 4.3495C491.918 4.64928 493.994 4.66996 496.314 4.38741C491.43 4.13587 486.471 4.34261 481.904 4.17032C481.929 4.14276 481.953 4.11519 481.953 4.08418C483.858 4.10485 485.739 4.13242 487.644 4.14965C490.746 4.17722 493.847 4.191 496.949 4.22546C497.267 4.2289 497.487 4.33916 497.877 4.37017C498.463 4.42186 499.147 4.48733 499.782 4.48733C502.542 4.47355 505.278 4.43909 508.062 4.36329C506.719 4.36329 505.351 4.36329 504.008 4.36329C504.008 4.33227 504.008 4.30126 504.032 4.27025C509.821 4.27025 515.633 4.27025 521.593 4.27025C521.104 4.53558 520.201 4.52868 519.004 4.47699C518.051 4.43564 517.026 4.43909 515.853 4.42186C516.855 4.72164 517.832 4.77333 519.566 4.6734C520.03 4.64584 520.64 4.6734 521.178 4.6734C523.449 4.6734 525.72 4.66306 527.992 4.6734C529.14 4.67685 530.263 4.7182 531.387 4.73887C531.387 4.77333 531.411 4.81123 531.411 4.84569C528.627 4.88015 525.843 4.91461 523.058 4.94562C523.058 4.96974 523.034 4.99386 523.034 5.02143C527.088 5.02143 531.142 5.02143 535.197 5.02143C535.197 5.05589 535.197 5.09034 535.221 5.1248C532.803 5.16959 530.41 5.21439 527.992 5.25919C528.016 5.29709 528.041 5.33499 528.065 5.37634C531.265 5.34533 534.464 5.31776 538.054 5.2833C537.444 5.17303 537.248 5.13858 536.76 5.05244C540.13 4.96974 543.11 4.89737 546.09 4.82157C546.065 4.78711 546.065 4.7561 546.041 4.72165C544.453 4.66307 542.963 4.50111 541.156 4.66306C540.13 4.75265 539.227 4.81813 537.981 4.67685C537.248 4.59071 536.003 4.60449 534.977 4.59071C532.461 4.54936 529.97 4.51835 527.454 4.48389C527.454 4.45632 527.454 4.4322 527.454 4.40463C529.555 4.42186 531.655 4.45287 533.756 4.44943C537.322 4.44254 540.888 4.40119 544.429 4.39429C545.259 4.39085 546.065 4.48732 546.92 4.49766C550.266 4.53212 553.612 4.5528 556.983 4.57692C563.675 4.62516 570.367 4.68718 577.035 4.71475C583.727 4.74231 590.443 4.73542 597.16 4.74921C599.602 4.75265 602.093 4.80433 604.511 4.76643C606.172 4.74231 607.784 4.60448 609.762 4.50111C611.863 4.82501 614.989 4.69752 618.042 4.6734C621.046 4.64928 624.075 4.65962 627.079 4.65272C631.158 4.64239 635.261 4.6286 639.364 4.56313C636.555 4.43908 633.38 4.65272 630.645 4.28402C632.94 4.27713 634.797 4.16687 637.117 4.222C641.147 4.31504 645.348 4.22889 649.475 4.20133C652.675 4.18065 655.826 4.02559 659.074 4.21511C660.026 4.27024 661.345 4.17031 662.518 4.14274C662.518 4.11173 662.518 4.08072 662.518 4.04626C661.834 4.00491 661.125 3.96012 660.442 3.91877C660.442 3.90154 660.466 3.88432 660.466 3.86709C661.834 3.8533 663.226 3.84297 664.594 3.82919C664.594 3.79818 664.618 3.77061 664.618 3.73959C659.782 3.71203 654.995 3.51561 650.086 3.72236L650.135 3.72926C650.892 3.64311 651.625 3.55697 652.382 3.47083C652.357 3.4467 652.357 3.42258 652.333 3.39502C650.428 3.39502 648.523 3.40191 646.618 3.39502C641.367 3.3709 636.14 3.31921 630.889 3.31576C623.44 3.30887 615.966 3.33644 608.517 3.35022C606.27 3.63622 603.852 3.52251 601.092 3.34677C601.434 3.51562 601.605 3.59487 601.776 3.68101C601.556 3.6948 601.361 3.71892 601.19 3.71892C598.283 3.69825 595.352 3.71547 592.519 3.63967C589.417 3.55697 586.511 3.64656 583.507 3.68791C581.211 3.71892 578.818 3.62933 576.497 3.59487C576.497 3.56386 576.473 3.5294 576.473 3.49839C578.524 3.47082 580.6 3.44326 582.652 3.41569C582.652 3.39157 582.677 3.37089 582.677 3.34677C579.037 3.2882 575.398 3.23306 571.759 3.17449C571.71 3.15037 571.661 3.1297 571.613 3.10558C572.541 3.07457 573.493 3.01943 574.421 3.01943C580.088 3.01254 585.754 3.01943 591.445 3.02287C598.503 3.02632 605.562 3.02977 612.596 3.02977C613.426 3.02977 614.427 3.07456 614.476 2.85058C614.476 2.82302 615.673 2.77477 616.308 2.77477C617.676 2.77477 619.068 2.80923 620.436 2.81957C624.881 2.84714 629.326 2.88849 633.795 2.88849C635.358 2.88849 636.922 2.77134 638.485 2.70931C638.875 2.69553 639.413 2.66451 639.681 2.69208C642.051 2.90916 644.688 2.78511 647.155 2.85403C649.378 2.91605 650.965 2.71965 652.895 2.69553C655.899 2.65418 658.952 2.60249 661.956 2.60938C671.432 2.63006 680.909 2.6783 690.409 2.70931C692.754 2.7162 695.099 2.70586 697.419 2.67829C706.48 2.57836 715.493 2.64383 724.529 2.80923C733.102 2.96429 741.699 3.11936 750.394 2.96774C754.229 2.90227 758.136 2.98496 762.02 2.97118C766.758 2.95395 771.496 2.90916 776.259 2.8747C779.654 2.85058 783.049 2.82646 786.419 2.78855C787.616 2.77477 788.813 2.71964 790.009 2.68173C790.009 2.64728 790.009 2.60937 790.009 2.57492C786.541 2.51634 783.097 2.45776 779.629 2.39918C779.654 2.36817 779.654 2.33371 779.678 2.3027C788.788 2.28547 797.825 2.53357 806.935 2.58525C806.984 2.54735 807.008 2.506 807.057 2.4681C802.417 2.33371 797.801 2.19933 793.16 2.06839C793.16 2.04082 793.185 2.01326 793.185 1.98569C798.46 2.04082 803.76 2.09251 809.035 2.14764C809.06 2.10974 809.084 2.07528 809.109 2.03738C808.229 2.02359 807.35 2.01325 806.349 1.99947C806.276 1.85819 807.057 1.6859 804.761 1.72036C801.22 1.77549 797.556 1.66523 793.942 1.63766C792.818 1.63077 791.67 1.66523 790.473 1.62388C792.037 1.59287 793.6 1.56186 795.163 1.53085C795.138 1.51017 795.138 1.48605 795.114 1.46538C794.308 1.45849 793.502 1.44815 792.696 1.44125C792.647 1.41024 792.574 1.37924 792.525 1.34822C793.722 1.27242 794.919 1.1966 796.115 1.11735C796.14 1.08289 796.164 1.05189 796.189 1.01743C793.917 0.951963 791.621 0.88649 789.35 0.82102C789.374 0.776224 789.399 0.727985 789.423 0.683191C793.893 0.869262 798.338 0.955404 803.052 0.734876C802.417 0.62461 801.928 0.538467 801.464 0.45577C804.053 0.559142 806.593 0.166322 809.133 0.410972C809.133 0.448874 809.109 0.483334 809.109 0.521239C807.79 0.521239 806.471 0.521239 805.152 0.521239C805.128 0.555696 805.103 0.59015 805.079 0.624608C805.763 0.662511 806.447 0.731427 807.13 0.731427C810.647 0.738318 814.311 0.800341 817.437 0.528126C818.952 0.397187 820.319 0.221453 822.029 0.162876C827.28 -0.0231952 832.482 0.135307 837.709 0.193885C839.638 0.214559 841.592 0.242124 843.497 0.214559C846.843 0.162872 850.189 0.0629454 853.535 0.000922087C854.048 -0.00941576 854.635 0.0698365 855.196 0.107741C854.732 0.231788 854.439 0.428199 853.78 0.466103C851.655 0.586705 849.359 0.631497 847.161 0.731425C844.328 0.862363 841.519 1.01054 838.71 1.15871C836.927 1.25519 835.291 1.25174 833.606 1.09324C831.505 0.900274 828.892 0.993303 828.281 1.25863C829.454 1.30687 830.65 1.35511 831.847 1.40335C831.823 1.42747 831.823 1.45504 831.798 1.47916C826.279 1.62044 820.734 1.76172 814.97 1.90988C815.337 1.95123 815.532 1.99258 815.728 1.99603C822.224 2.00637 828.721 2.02359 835.218 2.01325C836.17 2.01325 837.123 1.89954 838.319 1.82029C841.592 2.08561 845.231 1.91677 848.724 1.74448C851.899 1.58942 854.415 1.59976 856.686 2.02359C859.055 2.47154 862.23 2.56113 865.821 2.39229C867.188 2.32682 868.629 2.29925 870.046 2.26135C870.315 2.25445 870.779 2.25446 870.827 2.27513C871.878 2.59214 874.467 2.50255 875.639 2.70585C875.956 3.08489 876.152 3.44669 876.616 3.79816C876.787 3.9291 877.617 4.04281 878.179 4.15997C878.374 4.20132 878.863 4.23923 878.838 4.27024C878.619 4.51489 879.596 4.68372 880.109 4.88702C880.719 5.12478 881.403 5.12823 882.551 5.14202C883.064 5.14891 883.577 5.16958 884.114 5.18336C884.163 5.21438 884.212 5.24539 884.26 5.2764C880.035 5.53483 875.786 5.79671 871.414 6.06203C871.658 6.2481 871.878 6.41006 872.195 6.65471C865.137 6.60647 858.054 6.40661 851.337 6.84767C851.753 7.11644 852.949 7.21292 854.805 7.08198C855.685 7.01995 856.442 6.92692 857.321 6.87179C859.837 6.71673 862.157 6.91658 864.551 6.98895C866.602 7.05097 868.629 7.11645 870.657 7.19914C871.463 7.2336 872.195 7.31629 872.732 7.43C878.252 7.38176 883.748 7.33697 889.267 7.28873C889.341 7.33352 889.414 7.37487 889.487 7.41967C888.583 7.47135 887.704 7.52993 886.776 7.56783C885.457 7.62296 883.625 7.47136 883.137 7.83316C883.039 7.90208 881.623 7.9641 880.792 7.97444C879.009 7.99512 877.178 7.97788 875.395 7.98821C874.833 7.99166 874.32 8.0468 873.758 8.07781C874.003 8.17084 874.1 8.29489 874.54 8.35692C876.421 8.60501 878.667 8.72216 881.159 8.72905C882.087 8.7325 882.99 8.74974 883.894 8.76007C883.894 8.80142 883.919 8.84622 883.919 8.88757C880.792 8.94615 877.666 9.00127 873.856 9.07363C878.594 9.23214 882.722 9.432 885.335 10.0419C885.066 10.2349 884.09 10.3141 882.697 10.321C881.525 10.3279 880.353 10.3486 879.18 10.3624C879.18 10.3968 879.18 10.4278 879.156 10.4623C880.621 10.4933 882.087 10.5278 883.528 10.5588C883.528 10.5829 883.552 10.6036 883.552 10.6277C883.088 10.6621 882.624 10.6966 882.233 10.7242C883.186 11.2169 886.703 11.148 889.072 11.4237C887.68 11.4891 886.678 11.5339 885.677 11.5822C885.653 11.6097 885.604 11.6373 885.579 11.6649C887.045 11.7889 888.535 11.9129 890 12.037C889.951 12.0646 889.902 12.0921 889.829 12.1163C885.555 12.1852 881.134 12.0267 876.909 12.2127C876.836 12.2472 876.762 12.2816 876.689 12.3161C881.11 12.6676 885.506 13.019 889.927 13.374C889.902 13.3981 889.902 13.4222 889.878 13.4463C886.923 13.5152 883.967 13.5841 880.67 13.6634C883.503 13.9597 885.995 14.2147 888.584 14.4869C887.265 14.5283 885.921 14.5731 884.651 14.6144C884.407 14.8935 887.509 14.9487 886.19 15.3243C883.357 14.8143 879.986 14.7109 876.103 14.8281C873.539 14.9039 870.925 14.9314 868.336 14.9797C868.312 15.021 868.287 15.0589 868.263 15.1003C870.608 15.183 872.928 15.276 875.297 15.3415C877.568 15.4035 877.984 15.4759 877.642 15.8136C879.669 16.041 879.571 16.2064 877.349 16.4028C876.396 16.4889 875.395 16.5647 874.467 16.6509C874.125 16.6819 873.783 16.7233 873.587 16.7715C872.928 16.9438 872.342 17.1195 871.633 17.3228C872.488 17.3366 873.709 17.3538 875.492 17.3814C873.587 17.4951 872.195 17.5744 870.388 17.6846C871.145 17.8259 871.609 18.0016 872.439 18.0533C875.321 18.2291 876.714 18.4978 875.81 18.9802C875.785 18.9975 875.932 19.0181 875.956 19.0388C875.981 19.056 875.908 19.0767 875.834 19.1146C875.297 19.1318 874.638 19.1387 874.1 19.1766C873.636 19.2077 873.245 19.2766 872.83 19.3248C873.245 19.3937 873.636 19.504 874.125 19.5178C875.517 19.5591 876.958 19.5557 878.594 19.5763C876.958 20.0071 872.244 19.7038 871.902 20.3379C870.388 20.3482 868.605 20.3 868.214 20.6549C871.731 20.8168 875.199 20.7927 878.716 20.6893C879.547 20.6652 880.475 20.7169 881.378 20.7307C881.378 20.7686 881.354 20.8099 881.354 20.8478C878.228 20.9891 875.102 21.1304 871.902 21.2751C873.197 21.4819 874.393 21.6783 875.712 21.8919C875.297 21.9643 874.979 22.0229 874.662 22.078C875.932 22.7396 879.815 22.5397 883.479 22.5845C880.597 22.905 877.275 22.6293 875.468 22.9601C876.225 23.1496 876.86 23.2978 877.471 23.4494C876.469 23.5355 875.468 23.6182 874.076 23.7388C875.639 23.8009 876.836 23.8491 878.155 23.9042C877.593 23.9387 877.178 23.9663 876.518 24.0076C878.033 24.1351 879.302 24.2419 880.573 24.3487C880.499 24.3694 880.426 24.3866 880.353 24.4073C877.202 24.335 874.051 24.2626 870.876 24.1902C870.803 24.2247 870.754 24.2626 870.681 24.2971C872.073 24.4142 873.465 24.5279 874.833 24.6451C874.809 24.6554 874.76 24.6692 874.735 24.6795C872.879 24.5934 871.047 24.4797 869.142 24.4246C866.358 24.3453 863.525 24.2764 860.716 24.2661C858.86 24.2592 856.637 24.4797 855.172 24.3798C853.34 24.2592 851.655 24.204 849.823 24.2213C848.944 24.2281 848.113 24.3074 847.259 24.3522C847.307 24.4004 847.381 24.4487 847.43 24.4969C849.139 24.4969 850.824 24.4969 852.534 24.4969C852.559 24.5107 852.583 24.5279 852.607 24.5417C850.165 24.6761 847.747 24.807 845.231 24.9449C847.796 25.0758 850.385 25.2067 852.974 25.3411C852.949 25.3756 852.925 25.4066 852.925 25.441C852.339 25.4617 851.728 25.4859 850.995 25.5134C851.215 25.572 851.435 25.6271 851.704 25.696C851.411 25.7029 851.191 25.7133 851.02 25.7098C849.579 25.6685 848.626 25.7856 847.503 25.9062C845.598 26.113 843.473 26.268 841.446 26.4507C840.689 26.5196 839.858 26.5851 839.223 26.6746C838.979 26.7091 839.028 26.8642 839.223 26.8814C841.543 27.0537 843.351 27.4258 846.55 27.3362C846.428 27.2639 846.306 27.195 846.086 27.0744C846.746 27.1123 847.185 27.126 847.552 27.1605C848.944 27.288 850.238 27.4534 851.728 27.5499C853.145 27.6429 853.071 27.8152 853.023 27.9703C852.974 28.146 852.534 28.3183 852.241 28.4975C853.389 28.556 854.268 28.5974 855.123 28.6422C855.05 28.6766 855.001 28.7111 854.928 28.7456C852.705 28.656 850.458 28.5698 848.236 28.4802C848.187 28.5078 848.113 28.5354 848.04 28.5629C848.48 28.5974 848.895 28.6353 849.335 28.6697C849.383 28.6973 849.408 28.7249 849.457 28.7559C848.406 28.7869 847.307 28.8558 846.282 28.842C842.96 28.7938 840.2 29.0384 837.196 29.1763C834.9 29.2831 832.385 29.321 829.967 29.3175C823.543 29.3107 817.12 29.2624 810.721 29.2348C808.498 29.2245 806.398 29.2038 804.175 29.1142C801.733 29.0143 798.948 29.0901 796.335 29.0936C787.396 29.1039 778.457 29.0936 769.518 29.1315C759.358 29.1728 749.173 29.2417 739.013 29.321C733.42 29.3658 727.875 29.4554 722.307 29.5312C720.89 29.5519 719.474 29.6449 718.082 29.638C715.2 29.6208 712.269 29.4864 709.436 29.5312C702.963 29.6346 696.638 29.3141 690.165 29.483C690.165 29.4519 690.141 29.4209 690.141 29.3899C692.779 29.3624 695.441 29.3313 698.079 29.3038C682.325 28.9868 666.548 29.2693 650.819 29.1556C653.09 28.9385 653.31 28.9385 655.923 29.1108C656.216 29.1315 656.583 29.1418 656.925 29.1384C663.812 29.0729 670.675 29.0005 677.538 28.9385C680.2 28.9144 682.863 28.9144 685.525 28.8937C686.135 28.8903 686.721 28.8351 687.332 28.8041C687.332 28.7731 687.332 28.7421 687.308 28.7111C685.891 28.6663 684.426 28.6387 683.058 28.5698C681.422 28.4871 680.176 28.5319 679.272 28.7662C678.027 28.4802 676.659 28.432 674.217 28.5733C671.432 28.7318 668.721 28.7042 665.302 28.4665C667.036 28.4458 668.355 28.4286 669.698 28.4113C669.698 28.3838 669.698 28.3596 669.674 28.3321C668.501 28.3114 667.329 28.2907 666.157 28.2735C666.157 28.2528 666.157 28.2356 666.157 28.2149C670.773 28.2149 675.364 28.2149 679.81 28.2149C680.127 28.27 680.469 28.3837 680.811 28.3837C683.4 28.3837 685.989 28.3631 688.675 28.2735C688.382 28.2425 688.114 28.2115 687.405 28.1357C697.688 28.1081 707.653 28.2838 717.471 27.9186C711.609 27.8876 705.723 27.8565 699.861 27.8255C699.837 27.7807 699.837 27.7325 699.813 27.6877C700.594 27.6567 701.376 27.6257 702.157 27.5947C702.157 27.5671 702.182 27.5395 702.182 27.512C700.252 27.512 698.323 27.512 696.418 27.5154C696.247 27.5154 695.954 27.5395 695.929 27.5637C694.952 28.084 692.266 27.7359 690.409 27.8186C691.411 27.767 692.412 27.7187 693.438 27.667C693.414 27.6326 693.365 27.5947 693.34 27.5602C692.095 27.5602 690.825 27.5568 689.579 27.5602C680.445 27.5878 671.335 27.6188 662.2 27.6395C658.146 27.6498 654.091 27.6153 650.037 27.636C648.132 27.6464 646.227 27.7291 644.322 27.7807C644.371 27.8083 644.395 27.8324 644.444 27.86C644.053 27.8083 643.662 27.7084 643.296 27.7084C638.411 27.7222 633.551 27.7497 628.666 27.7773C628.642 27.8152 628.642 27.8497 628.617 27.8876C629.839 27.9048 631.109 27.9496 632.305 27.9324C635.969 27.8738 636.458 27.8876 639.706 28.3355C637.703 28.3734 635.92 28.401 634.137 28.4458C633.624 28.4596 633.16 28.525 632.257 28.6008C628.105 28.6456 623.415 28.6973 618.726 28.749C618.677 28.7766 618.628 28.8076 618.555 28.8351C619.043 28.9041 619.556 28.973 620.045 29.0384C619.971 29.0626 619.923 29.0832 619.849 29.1074C619.166 29.0522 618.531 28.9902 617.822 28.9489C617.163 28.911 616.406 28.8731 615.722 28.8799C613.695 28.9041 611.79 28.9523 609.64 28.8558C607.735 28.7697 605.464 28.8799 603.046 28.9041C605.488 28.749 607.76 28.5767 610.153 28.4665C612.718 28.3493 615.38 28.2804 618.042 28.208C620.704 28.1357 623.415 28.0805 626.419 28.0116C623.366 27.7015 607.418 27.8772 604.365 28.022C605.903 28.1184 606.954 28.1839 608.028 28.2494C607.784 28.4217 607.051 28.4527 603.021 28.4492C603.559 28.37 604.145 28.2873 605.097 28.1494C604.096 28.1322 603.583 28.1012 603.217 28.1253C600.457 28.3217 597.526 28.2459 594.669 28.2735C593.374 28.2838 591.86 28.339 591.347 28.0426C591.274 27.9944 590.15 27.9737 589.54 27.9772C589.344 27.9772 589.173 28.0978 588.831 28.2184C587.097 28.1253 585.241 28.0254 583.214 27.9151C583.434 27.8428 583.653 27.767 584.069 27.6291C582.115 27.6705 581.651 27.829 581.529 28.0598C580.649 28.0392 579.697 28.0185 578.744 27.9978C578.72 27.9772 578.72 27.9599 578.695 27.9392C579.282 27.9082 579.892 27.8772 580.478 27.8428C579.037 27.798 577.45 27.543 576.229 27.9082C576.107 27.9496 575.496 27.9737 575.13 27.9737C570.636 27.9772 566.142 27.9772 561.574 27.9151C564.383 27.8566 567.192 27.8014 570.001 27.7463C570.147 27.7428 570.318 27.7394 570.416 27.7497C572.321 27.9806 573.713 27.8497 575.081 27.6154C575.325 27.574 576.131 27.5912 576.668 27.605C579.257 27.6774 581.748 27.7187 583.58 27.3362C583.702 27.3087 584.24 27.3259 584.606 27.3225C583.947 27.5637 584.557 27.5947 588.611 27.5223C588.245 27.481 588.05 27.4534 587.439 27.3845C589.759 27.3845 591.738 27.3673 593.692 27.3879C596.622 27.4224 599.529 27.5051 602.435 27.5223C605.171 27.5361 607.906 27.4947 610.642 27.4672C610.984 27.4637 611.277 27.3983 611.57 27.2742C609.298 27.2501 607.027 27.2225 604.56 27.195C604.56 27.1571 604.658 27.095 604.536 27.0468C604.414 26.9951 604.096 26.9331 603.803 26.9227C603.486 26.9124 603.021 26.9434 602.728 26.9779C602.167 27.0399 601.703 27.1812 601.165 27.1846C597.306 27.2019 593.447 27.195 589.955 27.195C590.956 27.1054 592.226 26.9951 593.496 26.8848C593.374 26.8469 593.252 26.8125 593.13 26.7746C591.811 26.8125 590.028 26.5747 589.442 26.8917C588.147 26.8469 586.902 26.7987 585.656 26.7608C585.339 26.7505 584.777 26.7677 584.704 26.7953C583.751 27.1571 581.7 26.971 579.99 26.9951C580.405 26.9434 580.845 26.8917 581.382 26.8228C580.894 26.7987 580.527 26.7608 580.161 26.7608C577.621 26.7539 575.056 26.7573 572.516 26.7573C571.173 26.7573 569.781 26.6953 568.828 26.9331C568.657 26.9744 567.607 26.94 566.972 26.9331C565.58 26.9159 564.163 26.8814 562.771 26.8814C559.816 26.8814 556.836 26.8986 553.881 26.9055C551.732 26.9124 549.582 26.9124 547.433 26.9262C546.92 26.9296 546.432 26.9779 545.943 27.0054C545.504 27.0296 545.015 27.0847 544.673 27.0675C539.227 26.8469 533.78 27.064 528.334 27.0365C527.064 27.0296 525.769 27.0537 524.67 27.002C524.255 26.9744 523.84 26.9193 523.425 26.9193C520.42 26.9124 517.392 26.9124 514.388 26.9193C512.434 26.9227 510.456 26.9503 508.502 26.9572C506.939 26.9607 505.375 26.9607 503.812 26.9331C503.177 26.9228 502.616 26.8401 502.103 26.8435C498.195 26.8573 494.311 26.8642 490.404 26.8848C486.496 26.909 482.588 26.9503 478.68 26.9813C478.631 26.9469 478.583 26.909 478.534 26.8745C479.535 26.8332 480.512 26.7953 481.513 26.7539C481.513 26.7195 481.513 26.685 481.513 26.6505C479.902 26.6402 478.265 26.6161 476.653 26.6195C474.992 26.623 473.307 26.6299 471.695 26.685C470.083 26.7436 468.569 26.8676 467.006 26.9641C467.079 26.9296 467.177 26.8952 467.25 26.8607C466.786 26.809 466.297 26.7126 465.858 26.716C464.246 26.7298 462.634 26.7815 461.022 26.809C457.969 26.8573 454.916 26.8986 451.863 26.9365C451.472 26.94 451.057 26.9193 450.642 26.909C450.617 26.8814 450.593 26.8504 450.569 26.8228C451.961 26.7987 453.328 26.7505 454.721 26.7539C456.113 26.7574 457.31 26.7436 458.116 26.5368C458.287 26.4886 459.19 26.4438 459.263 26.4576C460.656 26.7091 462.365 26.5506 463.928 26.5506C466.224 26.5506 468.642 26.523 470.791 26.4714C472.77 26.4231 474.528 26.5265 476.336 26.4817C477.679 26.4472 479.022 26.3921 480.366 26.3714C483.223 26.3301 486.105 26.306 488.987 26.2784C489.72 26.2715 490.453 26.2784 491.185 26.2784C491.185 26.2474 491.185 26.2129 491.185 26.1819C489.012 26.1819 486.813 26.1785 484.64 26.1819C481.807 26.1888 478.802 26.2956 476.14 26.1923C470.498 25.9683 465.174 26.3197 459.679 26.2956C456.04 26.2784 452.4 26.3129 448.761 26.306C448.151 26.306 447.516 26.2198 446.905 26.175C446.954 26.1371 447.003 26.0992 447.052 26.0613C449.274 26.0337 451.472 26.0062 453.841 25.9752C453.646 25.92 453.402 25.858 453.084 25.7684C454.403 25.7305 455.478 25.6651 455.942 25.9338C456.04 25.9855 457.212 26.0165 457.896 26.0131C464.173 25.9924 470.425 25.9683 476.702 25.9373C480.39 25.92 484.078 25.8856 487.839 25.9097C487.204 25.9338 486.569 25.9579 485.934 25.9821C485.959 26.0062 485.959 26.0303 485.983 26.051C488.377 26.0269 490.746 25.9993 493.139 25.9752C493.115 25.9373 493.115 25.9028 493.09 25.8649C492.187 25.8752 491.283 25.8821 490.355 25.8925C490.355 25.8684 490.355 25.8408 490.33 25.8167C495.191 25.7684 500.076 25.7167 504.936 25.6685C504.96 25.6478 504.985 25.6306 505.009 25.6099C504.447 25.5617 503.91 25.51 503.226 25.448C503.69 25.4238 504.105 25.4032 504.521 25.3825C504.521 25.3549 504.496 25.3274 504.496 25.2963C501.663 25.2963 498.83 25.2963 495.753 25.2963C496.314 25.3446 496.754 25.379 497.389 25.4342C494.482 25.5169 491.845 25.603 489.158 25.6719C486.447 25.7409 483.736 25.796 481.22 25.5307C481.538 25.4996 481.782 25.4755 482.026 25.4514C482.002 25.4342 481.953 25.4169 481.929 25.3997C479.389 25.4169 476.849 25.4376 474.309 25.4549C470.376 25.4824 466.42 25.4997 462.487 25.5341C460.973 25.5479 459.459 25.603 457.774 25.572C459.19 25.4962 460.607 25.4204 461.877 25.3549C459.996 25.1792 457.603 25.2516 455.746 25.4893C455.063 25.5755 453.744 25.5479 452.693 25.5686C452.669 25.5341 452.645 25.4962 452.62 25.4618C453.28 25.4411 453.939 25.417 454.94 25.3859C454.33 25.2688 453.939 25.193 453.622 25.1344C456.406 25.1344 459.288 25.1344 462.414 25.1344C461.462 25.0379 460.656 24.9587 459.85 24.8829C459.679 24.8656 459.288 24.8553 459.288 24.8622C458.238 25.224 456.552 24.9208 455.209 24.9414C452.01 24.9897 448.737 24.9311 445.586 24.9966C440.97 25.0931 436.378 24.9759 431.762 25.0414C427.659 25.0999 423.507 25.0483 419.355 25.0483C419.111 25.0483 418.867 25.0758 418.036 25.1241C426.804 25.3618 435.182 24.9414 443.852 25.3136C442.9 25.3825 442.387 25.4169 441.703 25.4652C443.046 25.4652 444.267 25.4652 445.488 25.4652C445.562 25.5031 445.659 25.541 445.733 25.5789C445.049 25.6203 444.145 25.7236 443.706 25.6892C440.14 25.4101 436.965 25.6168 433.741 25.827C432.642 25.8994 431.543 25.9614 430.199 26.0406C430.566 25.6513 434.864 25.9648 433.667 25.4445C435.108 25.4238 436.256 25.4101 437.404 25.3928C437.404 25.3618 437.38 25.3343 437.38 25.3032C422.945 25.3584 408.511 25.4135 393.442 25.4721C394.443 25.5582 394.907 25.5961 395.395 25.6409C395.225 25.6651 395.102 25.6961 394.931 25.6995C393.295 25.734 391.732 25.7443 390.902 26.0475C390.682 26.1268 388.85 26.1027 387.751 26.1233C387.702 26.0889 387.653 26.0579 387.58 26.0234C388.313 25.9855 389.045 25.9442 389.778 25.9063C389.778 25.8856 389.754 25.8649 389.754 25.8442C383.159 25.8442 376.565 25.8442 369.97 25.8442C369.946 25.8373 369.922 25.8339 369.873 25.827C370.728 25.8063 371.558 25.7822 372.413 25.7615C372.193 25.3791 371.924 25.3515 366.966 25.1757C367.943 25.1654 368.945 25.1551 369.922 25.1447C369.922 25.1103 369.922 25.0793 369.897 25.0448C366.429 25.0448 362.985 25.0448 359.517 25.0448C356.073 25.0448 352.654 25.0448 349.21 25.0448C349.21 25.0827 349.21 25.1241 349.21 25.162C354.413 25.162 359.615 25.162 364.841 25.162C364.524 25.317 364.548 25.3274 360.176 25.4135C358.369 25.448 356.488 25.4204 354.632 25.448C358.809 25.7546 363.596 25.4307 368.114 25.7994C367.259 25.8408 366.551 25.9063 365.818 25.9063C361.74 25.92 357.685 25.9338 353.607 25.9269C345.522 25.9097 337.438 25.8649 329.354 25.858C324.322 25.8546 319.291 25.9063 314.26 25.9028C312.868 25.9028 311.476 25.7994 309.619 25.7236C310.596 25.6926 311.231 25.6513 311.818 25.6547C314.065 25.6651 316.287 25.6961 318.534 25.703C319.633 25.7064 320.879 25.7615 321.489 25.5203C321.636 25.4583 322.808 25.4514 323.516 25.3618C320.219 25.3308 316.922 25.2998 313.6 25.2688C313.576 25.3032 313.552 25.3377 313.527 25.3722C314.553 25.3928 315.579 25.4135 316.629 25.4342C315.066 25.5824 313.674 25.5617 312.282 25.4238C311.5 25.348 310.45 25.3101 309.497 25.3032C306.42 25.2757 303.318 25.2619 300.216 25.255C297.261 25.2481 294.306 25.255 290.862 25.255C291.619 25.286 291.985 25.2998 292.352 25.317C294.086 25.3963 295.82 25.5134 297.603 25.5513C299.19 25.5858 300.876 25.5307 302.488 25.5134C302.341 25.6582 301.535 25.703 300.216 25.6788C298.189 25.6409 296.138 25.5996 294.11 25.6099C291.204 25.6272 288.297 25.6995 285.391 25.7305C281.263 25.7719 277.038 25.7167 273.057 25.8546C270.053 25.9579 267.611 25.6478 264.826 25.796C264.826 25.7615 264.826 25.7271 264.826 25.6926C268.026 25.6823 271.25 25.6857 274.449 25.6582C275.988 25.6444 277.527 25.5789 279.065 25.5376C279.212 25.572 279.383 25.634 279.529 25.634C281.703 25.6409 283.901 25.6513 286.075 25.6237C286.466 25.6203 286.759 25.4445 287.101 25.3515C286.954 25.3377 286.783 25.3239 286.637 25.3101C287.321 25.2895 288.029 25.2653 288.713 25.2447C288.688 25.2274 288.664 25.2102 288.639 25.193C286.783 25.2102 284.951 25.2274 282.851 25.2481C283.413 25.3722 283.706 25.4376 283.828 25.4652C282.509 25.4859 280.922 25.5134 279.334 25.541ZM126.246 28.2597C127.199 28.3459 128.102 28.4561 129.153 28.5113C129.568 28.5319 130.276 28.4286 130.838 28.3838C131.058 28.4527 131.18 28.5561 131.546 28.5802C133.06 28.687 134.672 28.7973 136.48 28.6215C135.112 28.4734 133.549 28.4527 132.206 28.3252C130.691 28.1839 128.249 28.277 126.197 28.2701C123.218 27.9531 119.945 28.1391 116.77 28.1426C118.211 28.2459 119.749 28.2838 121.215 28.3597C122.558 28.4286 123.877 28.6319 124.878 28.2873C124.976 28.2528 125.782 28.2666 126.246 28.2597ZM268.417 27.133C268.441 27.1433 268.465 27.1536 268.514 27.1674C265.877 27.1192 263.239 27.0606 260.601 27.0227C257.719 26.9813 254.837 26.9503 251.955 26.9331C249 26.9193 246.044 26.9297 243.114 26.9262C240.207 26.9228 237.301 26.9159 234.419 26.9124C231.634 26.909 228.85 26.9124 226.09 26.9124C226.066 26.9503 226.066 26.9917 226.041 27.0296C227.8 27.0985 229.558 27.2088 231.366 27.2191C233.246 27.2329 235.152 27.1536 237.203 27.1088C237.154 27.2122 237.105 27.2983 237.057 27.381C242.186 27.7291 259.38 27.8566 264.094 27.5706C260.943 27.5361 257.792 27.5051 254.69 27.4706C255.692 27.2363 253.152 27.3466 252.712 27.1536C253.787 27.1812 254.666 27.2019 255.521 27.226C256.791 27.2605 258.061 27.3121 259.355 27.3294C261.187 27.3535 263.043 27.3466 264.875 27.3707C266.731 27.3983 268.563 27.4603 270.419 27.4879C271.567 27.5051 272.276 27.45 271.25 27.2605C271.86 27.2225 272.447 27.1812 273.033 27.1433C272.984 27.1088 272.959 27.0778 272.911 27.0434C271.372 27.0778 269.906 27.1054 268.417 27.133ZM85.5807 26.9745C89.1466 26.5506 93.494 26.9228 97.1575 26.6437C96.2539 26.5989 95.3502 26.592 94.4221 26.5851C87.1438 26.5093 79.8655 26.4335 72.5873 26.3577C72.2698 26.3542 71.7569 26.3508 71.6592 26.3198C70.9997 26.1302 70.3647 26.1406 69.4366 26.2853C69.168 26.3267 68.4108 26.2956 67.8979 26.2922C64.7717 26.2577 61.6455 26.244 58.5436 26.1785C56.7119 26.1406 54.8801 26.0475 53.1948 25.9304C50.9234 25.7719 48.7253 25.5962 46.112 25.7202C46.8935 25.7684 47.7239 25.765 48.5299 25.7926C49.2138 25.8132 49.8976 25.858 50.4838 25.9166C51.0456 25.9717 51.4119 26.0854 51.9981 26.1234C53.3414 26.2026 54.758 26.2577 56.1501 26.3129C58.9344 26.4266 61.7187 26.5437 64.5519 26.6368C67.4339 26.7332 70.5845 26.7195 73.1734 26.9021C77.301 27.1984 81.4042 27.2432 85.7517 27.1743C85.947 27.1709 86.0936 27.1467 86.3867 27.1226C86.1424 27.064 85.8982 27.0227 85.5807 26.9745ZM559.718 5.54863C559.718 5.52451 559.694 5.50039 559.694 5.47627C557.374 5.46249 555.053 5.43148 552.733 5.43148C543.208 5.43148 533.707 5.4418 524.182 5.44525C519.761 5.44525 515.243 5.37979 511.433 5.80706C511.433 5.80706 511.555 5.82429 511.677 5.82429C513.264 5.84152 514.559 5.69336 515.902 5.63823C518.271 5.5383 521.129 5.58653 523.547 5.6968C524.353 5.7347 525.354 5.82085 526.331 5.82774C528.529 5.84152 530.727 5.83463 532.95 5.82774C533.316 5.82774 533.658 5.78983 534.293 5.75882C533.658 5.68646 533.243 5.63821 532.412 5.54173C535.685 5.5693 538.47 5.59342 541.229 5.61754C541.229 5.6451 541.229 5.67268 541.229 5.70025C539.788 5.71403 538.347 5.72781 536.906 5.74504C543.818 5.81396 550.706 6.09306 557.691 5.74159C556.763 5.71403 555.81 5.68646 554.882 5.6589C554.882 5.64167 554.882 5.62099 554.907 5.60376C556.494 5.58309 558.106 5.56586 559.718 5.54863ZM295.869 27.6464C294.916 27.605 294.208 27.574 293.475 27.5464C291.57 27.4741 289.714 27.4121 288.322 27.1467C287.614 27.0089 286.344 26.8056 285 26.9641C284.097 27.0709 283.755 27.2811 283.169 27.4534C282.656 27.3879 281.923 27.2915 280.799 27.1433C278.87 27.1261 276.281 27.1054 273.692 27.0847C273.643 27.1157 273.594 27.1467 273.546 27.1777C274.181 27.2398 274.791 27.2983 275.89 27.4017C274.571 27.4155 273.741 27.4224 272.153 27.4396C273.546 27.6498 274.498 27.8014 275.622 27.9737C276.647 27.7876 277.869 27.8014 279.31 27.9737C279.871 28.0426 280.897 28.0564 281.679 28.0461C283.901 28.0185 286.124 27.9634 288.322 27.9186C288.42 27.9151 288.517 27.891 288.688 27.8703C288.468 27.8256 288.249 27.7773 288.004 27.7325C290.374 27.4327 292.987 27.7325 295.869 27.6464ZM572.052 5.92077C572.077 5.95523 572.101 5.98969 572.125 6.02415C573.615 6.03448 575.105 6.05171 576.595 6.0586C580.112 6.06893 583.702 6.14819 587.097 6.0586C589.222 6.00346 591.078 6.05515 593.081 6.07238C595.181 6.08961 597.599 6.12063 599.309 5.9828C600.677 5.87253 601.727 5.80706 603.192 5.82773C604.194 5.84152 605.244 5.83118 606.319 5.83118C606.221 5.78983 606.197 5.77605 606.148 5.7726C605.903 5.75537 605.659 5.73814 605.391 5.73125C602.215 5.64166 599.163 5.71058 596.134 5.88287C595.279 5.93111 594.034 5.82429 593.008 5.76571C592.886 5.75882 593.057 5.62099 593.154 5.46248C591.884 5.51762 590.541 5.51761 589.735 5.61754C588.367 5.78638 586.194 5.86908 584.118 5.71747C585.803 5.6899 587.195 5.66578 588.587 5.64511C588.563 5.61754 588.538 5.58653 588.538 5.55896C585.827 5.55896 583.116 5.55552 580.405 5.55897C579.648 5.55897 578.891 5.60376 578.158 5.58998C576.864 5.56586 575.374 5.41769 574.983 5.77605C574.934 5.8174 574.031 5.83807 573.518 5.86563C573.029 5.88631 572.541 5.90009 572.052 5.92077ZM494.434 7.4886C494.434 7.51273 494.409 7.54029 494.409 7.56441C495.533 7.57819 496.656 7.59198 497.78 7.60576C497.78 7.64022 497.78 7.67123 497.78 7.70569C496.143 7.70569 494.482 7.72636 492.846 7.70224C489.158 7.64366 489.183 7.63332 488.45 7.80906C496.485 7.80906 504.716 7.80906 512.922 7.80906C512.922 7.77115 512.922 7.73325 512.922 7.6919C512.532 7.69535 512.141 7.70913 511.774 7.70224C509.674 7.67467 507.281 7.7298 505.571 7.59197C503.837 7.4507 502.689 7.47482 501.223 7.59197C500.637 7.63677 500.002 7.66778 499.392 7.70569C499.196 7.66434 499.001 7.62299 498.805 7.58509C499.343 7.56786 499.905 7.55063 500.442 7.5334C500.295 7.50239 500.149 7.47137 500.002 7.44036C498.146 7.45759 496.29 7.47138 494.434 7.4886ZM838.49 0.552249C838.515 0.5109 838.515 0.469545 838.539 0.428196C836.952 0.3834 835.364 0.286924 833.801 0.304153C829.576 0.352394 825.35 0.445423 821.125 0.524678C820.49 0.53846 819.904 0.590149 819.293 0.624608C819.318 0.645281 819.342 0.665953 819.391 0.686629C825.741 0.645279 832.116 0.60049 838.49 0.552249ZM816.582 1.43092C814.384 1.29309 812.601 1.03121 809.841 1.08634C807.472 1.13113 804.981 0.965741 802.246 1.1208C804.102 1.17593 805.909 1.15526 807.033 1.2793C810.086 1.61699 813.261 1.5274 816.582 1.43092ZM582.701 24.6933C582.677 24.7278 582.652 24.7588 582.603 24.7933C583.434 24.8381 584.264 24.876 585.07 24.9311C585.656 24.969 586.193 25.0689 586.755 25.0689C589.002 25.0689 591.274 25.0379 593.521 25.0172C594.107 25.0103 594.717 25 595.304 24.9931C595.304 24.9483 595.304 24.9035 595.304 24.8587C591.225 24.6692 586.975 24.683 582.701 24.6933ZM520.665 25.796C520.689 25.8546 520.714 25.9097 520.738 25.9683C528.163 25.9338 535.612 25.8959 543.037 25.8614C543.037 25.8408 543.037 25.8201 543.012 25.7994C535.563 25.796 528.114 25.796 520.665 25.796ZM115.402 3.09181C115.378 3.05046 115.353 3.00911 115.304 2.97121C110.029 2.97465 104.729 2.79204 99.4778 2.99878C99.4778 3.02635 99.4778 3.05736 99.4778 3.08492C102.848 3.08492 106.219 3.08492 109.589 3.08492C109.589 3.10215 109.589 3.11593 109.589 3.13316C108.954 3.1435 108.319 3.15039 107.684 3.16073C107.709 3.19174 107.733 3.2262 107.782 3.25721C110.322 3.20553 112.862 3.14694 115.402 3.09181ZM116.086 3.10215C116.159 3.16417 116.257 3.22275 116.33 3.28477C118.943 3.24687 121.532 3.20552 124.146 3.17451C124.61 3.16761 125.098 3.19863 125.587 3.20208C127.565 3.20552 129.543 3.20208 131.522 3.20208C127.15 3.08492 122.754 3.02635 118.357 2.98844C117.6 2.98155 116.843 3.0608 116.086 3.10215ZM48.017 24.4143C51.705 24.528 55.2709 24.5693 59.3985 24.3936C56.7363 24.2971 54.6847 24.2213 52.6331 24.1489C52.2423 24.1351 51.7783 24.1351 51.4119 24.1558C50.3617 24.2282 49.3359 24.3143 48.017 24.4143ZM818.023 1.13459C817.999 1.17593 817.975 1.21728 817.95 1.25863C819.855 1.28964 821.76 1.31721 824.178 1.35511C823.861 1.13113 823.958 0.893383 823.299 0.824469C822.395 0.727986 820.808 0.669402 819.831 0.903716C820.197 0.969185 820.539 1.03466 821.198 1.15871C819.806 1.14837 818.927 1.14148 818.023 1.13459ZM297.53 27.0434C297.578 26.9986 297.603 26.9538 297.652 26.9055C295.893 26.8401 294.135 26.7746 292.376 26.7091C292.327 26.7332 292.303 26.7574 292.254 26.7815C292.962 26.8091 293.695 26.8366 294.428 26.8607C294.403 26.8883 294.403 26.9193 294.379 26.9469C293.524 26.9538 292.669 26.94 291.863 26.971C290.984 27.002 290.154 27.0709 289.299 27.1226C290.129 27.1571 291.009 27.2363 291.815 27.2225C293.72 27.1881 295.625 27.1054 297.53 27.0434ZM374.415 7.23361C374.245 7.082 374.171 6.99931 374.074 6.91661C373.365 6.93728 372.486 6.92694 372.022 6.98897C371.314 7.082 372.242 7.40246 373.219 7.39213C376.101 7.36801 378.983 7.31632 381.865 7.27152C381.84 7.22328 381.816 7.17849 381.767 7.13025C379.227 7.16815 376.711 7.2026 374.415 7.23361ZM259.111 4.09453C254.031 3.98426 248.951 3.83609 243.895 4.09453C248.975 4.09453 254.031 4.09453 259.111 4.09453ZM482.026 7.75047C483.834 7.92621 486.887 7.90554 487.4 7.69879C487.131 7.64021 486.862 7.57819 486.374 7.47482C487.864 7.47482 489.036 7.47482 490.208 7.47482C487.131 7.29908 483.565 7.41968 482.026 7.75047ZM413.42 8.03303C413.42 7.98824 413.396 7.94345 413.396 7.89865C409.512 7.96412 405.556 7.71602 401.746 8.03303C405.653 8.03303 409.537 8.03303 413.42 8.03303ZM242.21 25.5824C242.234 25.5513 242.259 25.5203 242.283 25.4893C240.622 25.4376 238.693 25.4514 237.325 25.3205C235.298 25.1275 233.979 25.1861 232.245 25.4893C235.738 25.6237 239.01 25.4997 242.21 25.5824ZM210.337 25.8994C214.513 25.9924 218.812 26.2715 222.793 25.7684C220.961 25.6099 220.644 25.6237 219.887 25.7512C219.447 25.8236 218.69 25.889 218.055 25.8925C215.49 25.9063 212.901 25.8994 210.337 25.8994ZM864.16 7.80215C864.184 7.83661 864.184 7.86762 864.209 7.90207C864.673 7.90897 865.161 7.91931 865.625 7.91586C867.774 7.90897 869.924 7.90208 872.049 7.8883C872.635 7.88485 873.221 7.84694 873.807 7.82627C873.27 7.76769 872.733 7.65053 872.244 7.65742C869.533 7.68844 866.846 7.75047 864.16 7.80215ZM489.793 5.64511C489.72 5.61066 489.647 5.57619 489.598 5.54173C486.105 5.54173 482.613 5.54173 479.12 5.54173C481.196 5.65889 483.272 5.72437 485.348 5.76572C486.423 5.78639 487.522 5.77605 488.596 5.75882C489.012 5.75193 489.378 5.68302 489.793 5.64511ZM633.331 26.7815C636.751 26.8952 639.51 26.5265 642.539 26.7022C642.881 26.7229 643.467 26.6402 643.931 26.6057C640.39 26.5609 636.824 26.3576 633.331 26.7815ZM540.008 25.4996C540.008 25.5238 540.008 25.5479 540.008 25.572C544.869 25.572 549.704 25.572 554.565 25.572C554.565 25.5479 554.54 25.5238 554.54 25.4996C549.68 25.4996 544.844 25.4996 540.008 25.4996ZM531.143 6.22745C527.65 6.24123 524.524 5.84497 520.909 6.04482C524.157 6.27913 527.699 6.21366 531.143 6.22745ZM296.138 27.8841C296.113 27.8359 296.113 27.7876 296.089 27.7394C294.623 27.7394 293.133 27.7256 291.668 27.7463C291.204 27.7532 290.422 27.8566 290.447 27.9082C290.496 28.0082 290.862 28.1322 291.375 28.1874C291.888 28.2425 292.718 28.2253 293.426 28.239C293.475 28.2184 293.5 28.1977 293.549 28.177C293.109 28.1322 292.694 28.0909 292.108 28.0289C293.597 27.9737 294.867 27.9289 296.138 27.8841ZM392.245 7.90209C394.98 8.12952 397.325 8.14675 400.427 7.99513C399.328 7.89521 398.693 7.78839 398.082 7.79184C396.299 7.80217 394.541 7.8573 392.245 7.90209ZM303.147 26.3301C301.071 26.1371 291.937 26.0854 288.517 26.2267C293.451 26.2612 298.091 26.2956 303.147 26.3301ZM644.957 24.8415C643.54 24.7829 642.002 24.7002 640.414 24.6623C638.729 24.621 636.995 24.6244 635.261 24.6106C635.236 24.6451 635.236 24.683 635.212 24.7175C637.019 24.7312 638.827 24.745 640.634 24.7588C640.634 24.7898 640.634 24.8174 640.634 24.8484C640.414 24.8794 640.194 24.907 639.95 24.9414C643.809 25.031 643.809 25.031 644.957 24.8415ZM639.486 27.3018C639.51 27.2742 639.535 27.2432 639.584 27.2156C637.703 27.0709 632.501 27.1226 631.133 27.3707C634.211 27.3431 636.848 27.3225 639.486 27.3018ZM633.917 26.5437C632.428 26.5437 631.329 26.5437 630.083 26.5437C630.376 26.6092 630.767 26.6609 630.694 26.6815C629.521 27.0709 626.786 26.7952 624.954 26.9606C627.079 27.2949 628.935 26.8607 630.278 26.9434C631.597 26.8021 632.55 26.6953 633.917 26.5437ZM343.715 25.1068C343.739 25.0689 343.764 25.0276 343.788 24.9897C342.762 24.9897 341.761 24.9897 340.735 24.9897C338.464 24.9862 336.192 24.9724 333.897 24.9793C333.53 24.9793 333.164 25.0689 332.822 25.1172C333.286 25.1379 333.75 25.1826 334.19 25.1758C335.167 25.1654 336.144 25.1137 337.12 25.1068C339.319 25.1 341.517 25.1068 343.715 25.1068ZM322.588 25.0758C322.54 25.0999 322.515 25.1241 322.466 25.1482C325.251 25.1758 328.035 25.2033 330.844 25.2309C330.941 25.2068 331.015 25.1792 331.112 25.1551C330.77 25.0999 330.428 24.9966 330.086 24.9966C327.571 25.0138 325.08 25.0483 322.588 25.0758ZM306.078 4.79746C306.102 4.82503 306.102 4.84914 306.127 4.87671C308.96 4.78023 312.086 5.10757 314.699 4.66996C311.818 4.71131 308.96 4.75267 306.078 4.79746ZM571.661 5.78983C569.439 5.78983 567.338 5.78983 565.262 5.78983C567.558 6.05515 570.172 6.03103 571.661 5.78983ZM513.044 5.57275C513.02 5.54519 513.02 5.52106 512.996 5.4935C510.553 5.4935 508.086 5.4935 505.644 5.4935C505.644 5.52106 505.669 5.54519 505.669 5.57275C508.135 5.57275 510.602 5.57275 513.044 5.57275ZM138.018 28.5285C144.686 28.9523 144.686 28.9523 145.175 28.6767C142.757 28.625 140.387 28.5767 138.018 28.5285ZM261.26 4.02561C261.26 4.0325 261.285 4.03595 261.285 4.04284C264.509 4.04284 267.733 4.04284 270.981 4.04284C270.957 4.00149 270.957 3.96014 270.932 3.91879C267.708 3.95669 264.484 3.99115 261.26 4.02561ZM203.01 25.7512C205.403 26.0096 209.531 25.92 209.849 25.6719C207.553 25.6995 205.281 25.7236 203.01 25.7512ZM675.56 24.6795C675.56 24.7106 675.56 24.7416 675.56 24.7726C678.246 24.7243 681.08 24.8415 683.669 24.6589C683.644 24.6313 683.62 24.6003 683.62 24.5727C680.933 24.6072 678.246 24.6416 675.56 24.6795ZM43.7429 22.9498C43.6208 23.0015 43.4986 23.0532 43.3765 23.1049C46.1364 23.029 47.6018 23.5631 50.6059 23.3633C48.3101 23.2255 46.0387 23.0876 43.7429 22.9498ZM474.577 7.685C472.355 7.72635 470.523 7.76082 468.642 7.79527C470.205 8.04681 473.258 8.01924 474.577 7.685ZM524.45 7.26118C522.472 7.19571 520.518 7.13368 518.32 7.06132C519.15 7.33009 521.935 7.42658 524.45 7.26118ZM521.837 7.80906C519.908 7.55407 517.905 7.57819 516.562 7.80906C518.369 7.80906 520.103 7.80906 521.837 7.80906ZM368.358 7.09924C365.232 6.80979 364.67 6.84425 364.158 7.29565C365.452 7.23707 366.698 7.17849 368.358 7.09924ZM35.9517 13.6497C35.9761 13.629 36.0006 13.6083 36.025 13.5876C34.4863 13.5497 32.9476 13.5153 31.0181 13.467C31.4333 13.6152 31.6531 13.6945 31.7997 13.753C33.2895 13.7151 34.6084 13.6807 35.9517 13.6497ZM466.981 7.85041C464.783 7.71257 462.585 7.59197 459.947 7.85041C462.61 7.85041 464.783 7.85041 466.981 7.85041ZM230.096 25.9166C227.58 25.8994 225.602 25.8856 223.624 25.8718C225.577 26.1337 227.58 26.0648 230.096 25.9166ZM619.312 24.714C619.312 24.6761 619.312 24.6382 619.312 24.6037C617.456 24.6382 615.624 24.6727 613.768 24.7071C613.792 24.7485 613.841 24.7864 613.866 24.8277C615.673 24.7898 617.505 24.7519 619.312 24.714ZM606.245 24.8105C606.221 24.8518 606.172 24.8932 606.148 24.9311C608.028 24.9173 609.909 24.9035 611.79 24.8863C611.765 24.8415 611.765 24.7933 611.741 24.7485C609.933 24.7691 608.102 24.7898 606.245 24.8105ZM539.251 6.43075C538.054 6.19299 535.294 6.16887 533.56 6.36873C535.612 6.39285 537.175 6.41007 539.251 6.43075ZM73.1002 6.56515C71.5126 6.58238 70.1937 6.59961 68.3864 6.62028C70.8288 6.88905 71.2684 6.88216 73.1002 6.56515ZM271.909 27.829C271.934 27.7945 271.934 27.7601 271.958 27.7222C269.98 27.705 267.977 27.6877 265.999 27.6705C265.974 27.7015 265.974 27.736 265.95 27.767C267.928 27.7876 269.906 27.8083 271.909 27.829ZM629.008 24.5934C628.984 24.6313 628.984 24.6658 628.959 24.7037C630.449 24.7037 631.939 24.7037 633.429 24.7037C633.429 24.6658 633.429 24.6313 633.429 24.5934C631.964 24.5934 630.498 24.5934 629.008 24.5934ZM155.799 29.2211C155.823 29.1797 155.848 29.1384 155.848 29.097C154.407 29.1039 153.039 28.9041 151.574 29.066C151.549 29.1074 151.549 29.1487 151.525 29.1901C152.941 29.2004 154.382 29.2108 155.799 29.2211ZM115.451 28.1632C114.376 27.8876 113.155 27.9289 111.909 27.9978C111.885 28.0392 111.861 28.084 111.836 28.1253C113.033 28.1391 114.254 28.1495 115.451 28.1632ZM844.816 28.494C843.424 28.4837 842.007 28.4699 840.615 28.4595C840.615 28.4975 840.591 28.5319 840.591 28.5698C841.91 28.7456 843.326 28.6732 844.816 28.494ZM600.359 27.9944C600.359 27.9703 600.384 27.9496 600.384 27.9255C597.966 27.9427 595.548 27.9599 593.154 27.9806C593.179 28.0116 593.179 28.0426 593.203 28.0736C595.572 28.0461 597.966 28.0185 600.359 27.9944ZM493.017 26.4507C494.092 26.3714 495.166 26.2887 496.241 26.2095C494.849 26.1922 493.164 26.0475 493.017 26.4507ZM154.431 28.942C154.48 28.8903 154.504 28.8386 154.553 28.7904C153.161 28.7594 151.769 28.7284 150.377 28.7008C150.352 28.7318 150.328 28.7594 150.304 28.7904C151.671 28.8386 153.039 28.8903 154.431 28.942ZM565.043 25.5203C565.067 25.5617 565.116 25.603 565.14 25.6444C567.143 25.603 569.146 25.5582 571.173 25.5169C571.148 25.4927 571.148 25.4652 571.124 25.4411C569.097 25.4652 567.07 25.4928 565.043 25.5203ZM543.892 5.11446C543.892 5.17304 543.892 5.23507 543.916 5.29365C545.064 5.27986 546.212 5.26263 547.36 5.24885C547.335 5.21439 547.335 5.18338 547.311 5.14892C546.163 5.13514 545.04 5.1248 543.892 5.11446ZM615.868 27.3604C615.893 27.4017 615.893 27.4431 615.917 27.4844C617.554 27.4706 619.19 27.4534 620.851 27.4396C620.826 27.4017 620.826 27.3638 620.802 27.3259C619.166 27.3397 617.505 27.35 615.868 27.3604ZM582.896 25.0827C582.823 25.0379 582.75 24.9966 582.652 24.9518C581.187 25.0172 579.697 25.0827 578.231 25.1482C578.305 25.1895 578.378 25.2274 578.451 25.2688C579.941 25.2067 581.431 25.1447 582.896 25.0827ZM719.523 27.8945C719.523 27.9082 719.523 27.922 719.523 27.9358C721.55 27.9358 723.552 27.9358 725.58 27.9358C725.58 27.9048 725.555 27.8738 725.555 27.8428C723.552 27.86 721.55 27.8772 719.523 27.8945ZM499.538 4.85948C499.514 4.81813 499.489 4.77334 499.489 4.73199C498.048 4.74232 496.607 4.75266 495.191 4.763C495.191 4.79401 495.215 4.82847 495.215 4.85948C496.656 4.85948 498.097 4.85948 499.538 4.85948ZM626.932 26.7608C626.957 26.7229 626.957 26.685 626.981 26.6471C625.418 26.623 623.855 26.6023 622.316 26.5782C622.292 26.6264 622.267 26.6781 622.243 26.7263C623.782 26.7401 625.369 26.7505 626.932 26.7608ZM58.2261 6.49624C59.545 6.39631 60.4487 6.33085 61.6699 6.24126C59.3252 6.09998 59.1298 6.11376 58.2261 6.49624Z" fill="url(#paint0_linear_6528_753)"/>
<defs>
<linearGradient id="paint0_linear_6528_753" x1="17.3893" y1="30.0039" x2="265.497" y2="-375.971" gradientUnits="userSpaceOnUse">
<stop stop-color="#533CA3"/>
<stop offset="0.294518" stop-color="#BF5AB8"/>
<stop offset="0.682384" stop-color="#ED641F"/>
<stop offset="1" stop-color="#FFE322"/>
</linearGradient>
</defs>
</svg>
