<svg viewBox="0 0 294 62" fill="none" xmlns="http://www.w3.org/2000/svg"><path d="M61.6 62h-53.1c-4.7 0-8.5-4.18-8.5-9.37v-50.47c0-1.22.85-2.16 1.96-2.16h16.09c2.88 0 5.5 1.59 7.06 4.18l2.68 4.4a4.4 4.4 0 0 0 3.8 2.23h22.7c4.7 0 8.5 4.19 8.5 9.38v25.23c0 1.22-.86 2.16-1.97 2.16-1.11 0-1.96-.94-1.96-2.16v-25.23c0-2.82-2.03-5.05-4.58-5.05h-22.63a8.29 8.29 0 0 1-7.06-4.18l-2.68-4.4a4.4 4.4 0 0 0-3.8-2.23h-14.19v48.3c0 2.81 2.03 5.04 4.58 5.04h53.1c2.3 0 4.26-1.87 4.52-4.4l4.9-39.64a5.62 5.62 0 0 0-1.1-3.97 4.36 4.36 0 0 0-3.4-1.73c-1.12 0-1.97-.94-1.97-2.16 0-1.23.85-2.17 1.96-2.17a8.08 8.08 0 0 1 6.34 3.18 10.1 10.1 0 0 1 2.1 7.35l-4.9 39.65c-.53 4.69-4.2 8.22-8.44 8.22Z" fill="#fff"/><path d="M66.51 7.93h-42.31c-1.11 0-1.96-.94-1.96-2.16 0-1.23.85-2.17 1.96-2.17h42.31c1.11 0 1.96.94 1.96 2.17 0 1.22-.91 2.16-1.96 2.16Z" fill="#fff"/><ellipse cx="15.5" cy="29" rx="4.5" ry="5" fill="#fff"/><ellipse cx="47.5" cy="29" rx="4.5" ry="5" fill="#fff"/><path d="M39 30c0 4.42-3.36 8-7.5 8-4.14 0-7.5-3.58-7.5-8h15Zm48.52 21v-34.38h9.46c2.47 0 4.33.7 5.58 2.08 1.25 1.36 1.88 3.37 1.88 6.01v16.1c0 3.25-.58 5.76-1.72 7.53-1.13 1.77-3.13 2.66-5.98 2.66h-9.22Zm6.92-6.07h1.19c1.26 0 1.9-.62 1.9-1.84v-17.73c0-1.15-.16-1.89-.48-2.21-.3-.34-.91-.5-1.85-.5h-.76v22.28Zm11.87 6.07 3.32-34.38h11.66l3.27 34.38h-6.5l-.5-5.55h-4.14l-.43 5.55h-6.68Zm7.6-11.04h3.13l-1.5-17.48h-.32l-1.31 17.48Zm12.44 11.04v-34.38h6.64v34.38h-6.64Zm9.38 0v-34.38h6.87v28.52h7.07v5.86h-13.94Zm18.8 0v-11.3l-5.48-23.08h6.81l1.92 11.65 1.91-11.64h6.8l-5.47 23.06v11.31h-6.49Zm22.13 0 3.32-34.38h11.67l3.26 34.38h-6.5l-.5-5.55h-4.14l-.43 5.55h-6.68Zm7.6-11.04h3.13l-1.5-17.48h-.32l-1.3 17.48Zm12.76 11.04v-34.38h13.75v6.7h-6.84v5.47h6.48v6.62h-6.48v15.59h-6.91Zm15.97 0v-34.38h13.75v6.7h-6.83v5.47h6.48v6.62h-6.48v15.59h-6.92Zm14.69 0 3.32-34.38h11.66l3.26 34.38h-6.5l-.49-5.55h-4.14l-.43 5.55h-6.68Zm7.6-11.04h3.12l-1.5-17.48h-.31l-1.31 17.48Zm12.44 11.04v-34.38h6.64v34.38h-6.64Zm9.37 0v-34.38h10.55c1.76 0 3.09.4 3.99 1.22a5.9 5.9 0 0 1 1.8 3.36c.3 1.43.46 3.11.46 5.05 0 1.88-.24 3.38-.72 4.5a4.09 4.09 0 0 1-2.68 2.32c1.08.22 1.84.76 2.27 1.62.44.85.66 1.95.66 3.3v13.01h-6.78v-13.46c0-1-.2-1.62-.62-1.85a3.94 3.94 0 0 0-1.97-.37v15.68h-6.96Zm7-21.64h1.66c.95 0 1.42-1.04 1.42-3.1 0-1.35-.1-2.23-.31-2.64-.2-.42-.6-.63-1.17-.63h-1.6v6.37Zm20.23 21.95c-3.14 0-5.4-.78-6.8-2.34-1.38-1.56-2.07-4.05-2.07-7.46v-3.36h6.8v4.3c0 .79.12 1.41.35 1.87.25.44.67.66 1.27.66.63 0 1.06-.18 1.29-.54.25-.37.37-.97.37-1.8 0-1.05-.1-1.93-.31-2.64a5.7 5.7 0 0 0-1.1-2.03 20.4 20.4 0 0 0-2.12-2.26l-3.09-2.93c-2.3-2.18-3.46-4.66-3.46-7.46 0-2.93.68-5.17 2.03-6.7 1.37-1.54 3.34-2.3 5.92-2.3 3.15 0 5.39.83 6.7 2.51 1.33 1.68 2 4.23 2 7.66h-7v-2.36c0-.47-.14-.84-.4-1.1a1.5 1.5 0 0 0-1.08-.39c-.55 0-.95.16-1.21.47-.25.3-.38.69-.38 1.17s.14 1 .4 1.56.77 1.2 1.54 1.94l3.96 3.8c.8.76 1.53 1.56 2.2 2.4.66.84 1.19 1.82 1.6 2.94.4 1.1.6 2.46.6 4.06 0 3.23-.6 5.76-1.8 7.6-1.18 1.82-3.25 2.73-6.21 2.73Z" fill="#fff"/></svg>