<svg width="77" height="15" viewBox="0 0 77 15" fill="none" xmlns="http://www.w3.org/2000/svg">
<path d="M70.2481 6.79267C70.1063 6.74494 69.9623 6.70103 69.8205 6.6514C69.6185 6.57885 69.3585 6.6323 69.2467 6.35739C69.2338 6.37648 69.2209 6.39366 69.208 6.41275C69.2274 6.44903 69.2467 6.48721 69.2703 6.52921C69.0211 6.49294 68.7804 6.45857 68.5397 6.4223C68.5333 6.43566 68.529 6.44712 68.5225 6.46048C68.6257 6.50821 68.7288 6.55785 68.8105 6.59603C68.7546 6.59603 68.6321 6.6304 68.5934 6.5903C68.3399 6.32112 67.9488 6.37839 67.6436 6.23902C67.6501 6.21611 67.6565 6.19511 67.6608 6.1722C67.8585 6.19511 68.0541 6.21611 68.2518 6.23902C68.2539 6.2333 68.2561 6.22757 68.2582 6.22184C68.1894 6.19511 68.1228 6.16839 68.0541 6.14166C68.0562 6.12829 68.0584 6.11493 68.0584 6.10157C68.2303 6.12257 68.4022 6.14357 68.5741 6.16457C68.5784 6.15693 68.5827 6.1493 68.587 6.14357C68.5483 6.12257 68.5118 6.09966 68.4731 6.07866C68.4709 6.06338 68.4709 6.05002 68.4688 6.03475C68.6192 6.01757 68.7675 6.00038 68.9179 5.9832C68.9158 5.96793 68.9158 5.95266 68.9136 5.93738C68.7439 5.98702 68.5891 5.87247 68.4 5.95838C68.2947 6.00611 68.1271 5.92975 67.9939 5.87438C68.0906 5.86102 68.1873 5.84765 68.284 5.83429C68.284 5.82474 68.2818 5.8152 68.2797 5.80565C68.1336 5.80565 67.9874 5.80565 67.8112 5.80565C67.8628 5.86484 67.8993 5.90493 67.9681 5.9832C67.721 5.95075 67.519 5.91638 67.3148 5.90111C67.0462 5.88202 66.7755 5.88393 66.5068 5.86484C66.4445 5.86102 66.3844 5.8152 66.3263 5.75029C67.0161 5.73692 67.7081 5.72356 68.3979 5.71211C68.3979 5.69492 68.4 5.67583 68.4 5.65865C68.2281 5.62429 68.0541 5.58801 67.8821 5.55365C67.8821 5.5441 67.8821 5.53647 67.8843 5.52692C68.1228 5.52692 68.3635 5.52692 68.602 5.52692C68.6042 5.50401 68.6063 5.4811 68.6106 5.45819C68.5591 5.45819 68.5053 5.45628 68.4538 5.45819C68.3699 5.4601 68.2861 5.47156 68.2023 5.46774C68.1271 5.46392 68.0498 5.44483 67.9595 5.43146C67.9831 5.38565 67.9982 5.35319 68.0111 5.32837C67.8564 5.29783 67.7059 5.26728 67.5534 5.23673C67.5555 5.22528 67.5555 5.21191 67.5577 5.20046C67.7188 5.21764 67.8821 5.23482 68.0433 5.25201C68.0433 5.23482 68.0433 5.21955 68.0433 5.20237C68.1013 5.20619 68.1594 5.2081 68.2152 5.21191C68.2152 5.20237 68.2174 5.19091 68.2174 5.18137C67.8284 5.126 67.4395 5.07064 66.9903 5.00573C67.1816 4.97709 67.3277 4.95609 67.4717 4.93509C67.4717 4.91791 67.4739 4.90073 67.4739 4.88355C67.39 4.88736 67.3084 4.895 67.2246 4.895C67.1171 4.895 67.0054 4.90073 66.9001 4.87973C66.8055 4.86064 66.7196 4.80527 66.6358 4.72509C66.8507 4.72509 67.0634 4.72509 67.2783 4.72509C67.0161 4.52463 66.7174 4.685 66.4445 4.622C66.4445 4.60481 66.4445 4.58763 66.4445 4.56854C66.582 4.56854 66.7217 4.57809 66.8593 4.56663C67.1128 4.54754 67.3664 4.5819 67.6221 4.48645C67.8026 4.41963 68.0326 4.46163 68.2389 4.46927C68.3979 4.47499 68.5569 4.50172 68.7224 4.5189C68.6536 4.52845 68.587 4.53799 68.5225 4.54754C68.5268 4.56854 68.529 4.58954 68.5333 4.61054C68.6794 4.57999 68.8298 4.56281 68.9673 4.51318C69.0791 4.47117 69.1693 4.36808 69.2811 4.33181C69.3907 4.29744 69.5196 4.32035 69.6378 4.3089C69.7259 4.29935 69.814 4.26117 69.9021 4.25926C70.0289 4.25544 70.1557 4.27453 70.2846 4.28217C70.3749 4.2879 70.4651 4.28981 70.5575 4.29363C70.5597 4.27644 70.5618 4.25926 70.5618 4.24208C70.4651 4.23635 70.3684 4.23062 70.2717 4.2249C70.2717 4.21535 70.2717 4.20771 70.2739 4.19817C70.4501 4.18481 70.6263 4.17144 70.8025 4.15999C70.8025 4.15044 70.8025 4.14281 70.8025 4.13326C69.9687 4.13326 69.1328 4.13326 68.299 4.13326C68.299 4.1218 68.299 4.11035 68.299 4.09699C68.602 4.06453 68.9072 4.01489 69.2102 4.00726C69.5175 3.99962 69.8269 4.04162 70.1364 4.04353C70.5554 4.04544 70.9766 4.0588 71.3913 4.01298C71.7738 3.97098 72.1477 3.86025 72.5281 3.75525C72.1456 3.74762 71.7631 3.74189 71.3827 3.73043C71.0561 3.72089 70.7187 3.7438 70.405 3.67698C69.9494 3.57961 69.496 3.60252 69.0383 3.58343C68.6214 3.56625 68.2066 3.51661 67.7919 3.51088C67.6071 3.50898 67.4223 3.58343 67.2353 3.61398C67.1902 3.62161 67.1386 3.59489 67.0398 3.57198C67.1623 3.54334 67.2375 3.52616 67.3449 3.50325C67.1343 3.34479 66.9108 3.37915 66.7002 3.33334C66.8421 3.33334 66.9817 3.33334 67.1322 3.33334C67.0548 3.3047 66.9882 3.27988 66.9194 3.25506C66.9237 3.23979 66.9259 3.22261 66.9302 3.20733C67.0827 3.22452 67.2353 3.2417 67.3879 3.25697C67.39 3.24552 67.3922 3.23597 67.3943 3.22452C67.3686 3.20924 67.3428 3.19397 67.317 3.17679C67.3664 3.11188 67.4567 3.14242 67.7726 3.33334C67.7167 3.35052 67.6694 3.36579 67.6243 3.37915C67.635 3.38488 67.6458 3.39252 67.6544 3.39825C67.9939 3.39825 68.3334 3.39825 68.6729 3.39825C68.6751 3.38106 68.6751 3.36388 68.6772 3.34861C68.3377 3.28943 67.996 3.23024 67.6565 3.17106C67.6544 3.16151 67.6522 3.15006 67.6501 3.14051C68.1937 3.1176 68.7396 3.09469 69.2832 3.06988C69.2854 3.05078 69.2854 3.0336 69.2875 3.01451C69.2338 2.9916 69.1801 2.96678 69.0855 2.92669C69.2102 2.93624 69.2897 2.94196 69.3692 2.94769C69.3713 2.94006 69.3735 2.93433 69.3756 2.92669C69.3155 2.90187 69.2532 2.87515 69.1715 2.84078C69.2145 2.80642 69.2424 2.78542 69.2317 2.79496C68.8126 2.76251 68.3678 2.72814 67.923 2.69569C67.764 2.68423 67.6028 2.68232 67.4416 2.66896C67.2095 2.64987 66.9796 2.62314 66.7497 2.60023C66.7497 2.58496 66.7518 2.56778 66.7518 2.5525C67.635 2.5525 68.5161 2.5525 69.3993 2.5525C69.4014 2.53914 69.4014 2.52387 69.4036 2.5105C69.1865 2.49523 68.9673 2.46659 68.7503 2.46468C68.1594 2.46086 67.5684 2.47996 66.9753 2.47041C66.6723 2.46659 66.3715 2.41696 66.0685 2.39977C65.9954 2.39596 65.918 2.44368 65.8428 2.46659C65.8041 2.47805 65.7633 2.49905 65.7246 2.49523C65.5463 2.47614 65.3679 2.44177 65.1896 2.43032C64.9102 2.41123 64.6308 2.40168 64.3515 2.39405C64.1516 2.38832 63.9496 2.39214 63.7476 2.39214C63.7541 2.38068 63.7734 2.35014 63.8014 2.30623C63.5972 2.29095 63.4017 2.28332 63.2061 2.26041C62.8945 2.22604 62.5851 2.18404 62.2756 2.13822C61.9082 2.08286 61.5428 2.00649 61.1732 1.96831C61.0228 1.95304 60.8659 2.02558 60.7091 2.04277C60.6081 2.05422 60.5028 2.04849 60.4039 2.0294C60.1289 1.97404 59.8581 1.90531 59.5852 1.84231C59.4305 1.99504 59.1618 1.83085 59.0136 2.0294C58.9921 2.05804 58.8911 2.03322 58.8266 2.03322C58.8374 1.97213 58.8459 1.90913 58.8567 1.85376C58.659 1.9454 58.5752 1.72967 58.4248 1.68385C58.313 1.64949 58.1991 1.62276 58.0852 1.59794C58.0036 1.58076 57.9198 1.57694 57.8381 1.56549C57.8209 1.56358 57.8037 1.55403 57.7865 1.55403C57.6125 1.54639 57.4384 1.54067 57.2515 1.53303C57.2214 1.55021 57.1633 1.61703 57.1053 1.61703C56.8818 1.61512 56.6584 1.59412 56.4349 1.57503C56.2286 1.55785 56.0223 1.53494 55.816 1.51585C55.5517 1.49294 55.2873 1.47385 55.008 1.48721C55.1326 1.52349 55.2594 1.56167 55.384 1.59794C55.3776 1.61703 55.3711 1.63421 55.3647 1.6533C55.1219 1.57694 54.879 1.50058 54.6362 1.42421C54.6405 1.4013 54.6427 1.37839 54.647 1.35357C54.9908 1.35357 55.3346 1.35357 55.6913 1.35357C55.6741 1.28293 55.4807 1.28866 55.6591 1.16075C55.1971 1.10921 54.7802 1.06338 54.3246 1.01375C54.3848 1.06148 54.4192 1.09011 54.4579 1.12066C54.1205 1.16075 53.7895 1.20084 53.4436 1.24284C53.8734 1.35357 54.2924 1.46239 54.7136 1.57121C54.7093 1.59985 54.705 1.62849 54.7007 1.65521C54.157 1.62849 53.6133 1.59985 53.0718 1.57312C53.0718 1.54639 53.0718 1.52158 53.0718 1.49485C53.2136 1.49485 53.3555 1.49485 53.5403 1.49485C53.3189 1.35548 53.1363 1.42803 52.9515 1.44903C52.7839 1.46812 52.6141 1.47385 52.4443 1.47576C52.4056 1.47576 52.3691 1.42039 52.3261 1.41276C52.2509 1.39939 52.1736 1.40321 52.0983 1.4013C52.0231 1.39939 51.9458 1.4013 51.8512 1.4013C51.9006 1.43566 51.9415 1.46239 51.9866 1.49294C51.8555 1.5063 51.733 1.52921 51.6105 1.5273C51.5611 1.5273 51.5117 1.47576 51.473 1.41276C51.3849 1.42421 51.2968 1.43566 51.2065 1.44712C51.2044 1.42803 51.2001 1.40894 51.198 1.39175C51.5654 1.27721 51.9651 1.37266 52.3369 1.25812C52.3046 1.23711 52.2638 1.2123 52.2251 1.18557C52.2294 1.17411 52.2337 1.16266 52.238 1.1512C52.3691 1.1913 52.5023 1.23139 52.6442 1.27339C52.6184 1.30393 52.5947 1.33066 52.5303 1.40703C52.7194 1.39748 52.8634 1.38985 53.0159 1.38412C53.003 1.32494 52.9944 1.29248 52.9816 1.23712C53.1212 1.26575 53.2459 1.29057 53.3727 1.31539C53.3748 1.2963 53.3791 1.27912 53.3813 1.26002C52.93 1.05002 52.4078 1.19512 51.9393 1.0462C52.0081 1.08057 52.0747 1.11684 52.1435 1.1512C52.1413 1.16266 52.1392 1.1722 52.1349 1.18366C51.8512 1.11302 51.5676 1.04048 51.2839 0.969839C51.2775 0.985112 51.2732 0.998475 51.2667 1.01375C51.4021 1.07102 51.5396 1.1283 51.6987 1.19511C51.6578 1.21803 51.6256 1.25048 51.5955 1.24857C51.1829 1.2333 50.7703 1.21612 50.3556 1.19511C50.3126 1.19321 50.2739 1.15502 50.2331 1.13402C50.2245 1.14739 50.218 1.16266 50.2094 1.17602C50.2546 1.20275 50.2954 1.23521 50.3427 1.2543C50.3964 1.27721 50.4544 1.28675 50.5662 1.31921C50.4738 1.36694 50.4351 1.38603 50.3878 1.40894C50.4394 1.4433 50.4802 1.47194 50.5318 1.50821C50.3513 1.66285 50.1342 1.58458 49.943 1.62467C49.6421 1.68576 49.3413 1.64758 49.0404 1.65521C48.9008 1.65903 48.746 1.74494 48.63 1.70867C48.2926 1.59985 47.9466 1.68385 47.6222 1.62467C47.4051 1.58458 47.1795 1.62658 46.9689 1.53494C47.0119 1.53494 47.057 1.53494 47.1 1.53494C47.1021 1.52539 47.1021 1.51585 47.1043 1.5063C47.0376 1.49676 46.971 1.48721 46.9044 1.47766C46.87 1.51394 46.8335 1.57885 46.7991 1.57885C46.711 1.57694 46.6251 1.54067 46.537 1.52921C46.2963 1.49676 46.0556 1.47194 45.8171 1.44139C45.7719 1.43566 45.729 1.41466 45.6838 1.4013C45.86 1.36121 46.0341 1.35357 46.206 1.36312C46.3156 1.36884 46.4231 1.39557 46.5284 1.42039C46.5821 1.43376 46.6294 1.4643 46.6788 1.48721C46.6766 1.5063 46.6745 1.5273 46.6723 1.54639C46.7497 1.52348 46.8271 1.50058 46.9044 1.47576C46.9753 1.44139 47.0527 1.36885 47.115 1.3803C47.2869 1.41085 47.4395 1.41276 47.605 1.3383C47.7038 1.29439 47.8328 1.30966 47.9488 1.30012C47.9531 1.28484 47.9552 1.26957 47.9595 1.2543C47.8306 1.21611 47.7017 1.17793 47.5727 1.13975C47.62 1.11875 47.6737 1.09584 47.7253 1.07293C47.7232 1.05766 47.721 1.04238 47.7189 1.02711C47.3364 1.15693 46.9538 1.13402 46.5713 1.04048C46.5692 1.05766 46.5649 1.07293 46.5627 1.09011C46.6186 1.10729 46.6766 1.12257 46.7325 1.13975C46.7325 1.1493 46.7325 1.15884 46.7325 1.16839C46.6315 1.16266 46.5284 1.15884 46.4274 1.14548C46.408 1.14357 46.3779 1.10539 46.3779 1.08439C46.3779 1.06339 46.4059 1.02902 46.4274 1.02329C46.4789 1.01184 46.5327 1.01375 46.5864 1.00038C46.3414 1.00038 46.0986 1.00038 45.8214 1.00038C45.9761 1.0672 46.1115 1.12639 46.2963 1.20657C45.7805 1.28675 45.3099 1.18748 44.792 1.19511C44.9339 1.24093 45.0241 1.26957 45.1144 1.29821C45.1122 1.31921 45.1101 1.3383 45.1079 1.3593C45.0112 1.34975 44.9124 1.34975 44.8221 1.32303C44.777 1.30966 44.7491 1.24666 44.7125 1.20657C44.7233 1.18748 44.7319 1.1703 44.7426 1.1512C44.4289 1.11875 44.113 1.08629 43.7992 1.05384C43.7992 1.02902 43.8014 1.0042 43.8014 0.977475C44.1259 0.941202 44.4525 0.904927 44.777 0.870563C44.777 0.864835 44.777 0.859108 44.7748 0.853382C44.4267 0.853382 44.0807 0.853382 43.7283 0.853382C43.8336 0.826654 43.9411 0.799926 44.0485 0.773199C44.0464 0.761744 44.0442 0.752197 44.0399 0.740742C43.6789 0.782743 43.3179 0.826654 42.9612 0.868655C43.1846 0.94502 43.406 1.02138 43.6617 1.1073C43.2985 1.15502 42.9805 1.19512 42.6625 1.23712C42.6625 1.25048 42.6625 1.26384 42.6625 1.27721C42.7592 1.28293 42.8559 1.28866 42.974 1.29439C42.8838 1.41848 42.9246 1.45667 43.06 1.47576C43.3136 1.51394 43.565 1.57503 43.8164 1.62849C43.8207 1.60749 43.825 1.58839 43.8293 1.56739C43.6101 1.52348 43.3909 1.48148 43.1309 1.42994C43.2083 1.40321 43.247 1.38985 43.3372 1.35739C43.2018 1.3383 43.1137 1.32684 43.0256 1.31348C43.0278 1.30393 43.0278 1.29248 43.0299 1.28293C43.247 1.28293 43.464 1.28293 43.6832 1.28293C43.6832 1.2963 43.6853 1.30775 43.6853 1.32112C43.6381 1.33448 43.5929 1.34785 43.5457 1.3593C43.681 1.39748 43.8121 1.51012 43.9432 1.34784C43.969 1.31539 44.0958 1.34975 44.1731 1.36884C44.2849 1.39557 44.3902 1.46239 44.5019 1.46812C44.8651 1.48339 45.2304 1.47385 45.5936 1.48339C45.6602 1.4853 45.7268 1.5273 45.7934 1.55212C45.7891 1.5693 45.7848 1.58649 45.7805 1.60367C45.5699 1.60367 45.3572 1.60367 45.1466 1.60367C45.0542 1.60367 44.9639 1.60367 44.8715 1.60367C44.7856 1.60558 44.7018 1.60939 44.6158 1.60939C44.5234 1.60939 44.4504 1.58458 44.3494 1.66476C44.2677 1.72967 44.0764 1.66667 43.9346 1.66667C43.7863 1.66667 43.6359 1.67049 43.4876 1.68385C43.3308 1.69721 43.1717 1.78313 43.0342 1.6323C43.0213 1.61894 42.9869 1.61321 42.9655 1.61894C42.7226 1.67621 42.4905 1.66476 42.2649 1.53112C42.2778 1.55594 42.2907 1.58076 42.3014 1.60367C42.2327 1.61894 42.1639 1.6323 42.1016 1.64567C42.1252 1.55021 42.1403 1.48721 42.1596 1.4013C42.295 1.43375 42.4433 1.46621 42.5894 1.50057C42.4046 1.31921 42.1661 1.31921 41.9361 1.29248C41.79 1.2753 41.646 1.25239 41.4999 1.24475C41.371 1.23711 41.242 1.2543 41.1131 1.24857C40.9713 1.24093 40.8294 1.22375 40.6897 1.19893C40.4598 1.15884 40.2299 1.1092 39.9956 1.08248C40.2428 1.2543 40.593 1.1703 40.866 1.39557C40.3072 1.39939 39.7958 1.39175 39.2607 1.30775C39.3209 1.21993 39.3531 1.17411 39.3897 1.11875C39.4541 1.14166 39.525 1.16648 39.611 1.19702C39.5379 1.0882 39.5401 1.08057 39.1941 1.00802C39.0437 0.975565 38.8847 0.979383 38.7299 0.925927C38.9255 0.908745 39.121 0.891564 39.3144 0.872472C38.717 0.767471 38.1089 0.969837 37.5136 0.803744C37.8704 0.715923 38.2421 0.920201 38.5946 0.738834C38.4506 0.752197 38.3045 0.76747 38.1562 0.780833C38.1884 0.731197 38.2163 0.689196 38.2443 0.645286L38.2486 0.649105C37.8618 0.664378 37.475 0.689196 37.0882 0.694924C36.8088 0.698742 36.5294 0.67965 36.2522 0.660559C36.1018 0.649104 35.9514 0.620467 35.8053 0.589921C35.7666 0.582284 35.7365 0.538375 35.6828 0.494465C35.7 0.557466 35.7107 0.601376 35.7236 0.651012C35.6033 0.691104 35.4335 0.70256 35.3948 0.8782C35.21 0.864835 35.0209 0.85529 34.8339 0.834291C34.7179 0.820927 34.5761 0.887745 34.4923 0.742651C34.4837 0.727379 34.4235 0.733106 34.387 0.736924C34.1162 0.757925 33.8476 0.777016 33.5768 0.803743C33.5382 0.807562 33.5016 0.847654 33.4651 0.903019C33.9701 0.681561 34.4235 0.98702 34.907 1.00229C34.6212 1.06339 34.3333 1.11875 34.0367 1.06338C33.8992 1.03857 33.7595 1.02329 33.6198 1.0042C33.536 0.992747 33.4436 1.00229 33.3705 0.969838C33.2996 0.937383 33.248 0.862926 33.1793 0.799926C33.2674 0.771289 33.3319 0.750288 33.3963 0.729287C33.2287 0.719742 33.0611 0.708286 32.8956 0.698741C33.0718 0.620467 33.2459 0.559375 33.3942 0.733106C33.5253 0.72165 33.6563 0.70065 33.7874 0.698741C34.0775 0.693013 34.3698 0.696833 34.6857 0.696833C34.6448 0.72356 34.6255 0.735015 34.6062 0.748379C34.6083 0.761743 34.6126 0.773198 34.6148 0.786562C34.763 0.754107 34.9092 0.712106 35.0596 0.689197C35.1907 0.670105 35.3261 0.673923 35.4614 0.666287C35.4593 0.643376 35.455 0.620467 35.4528 0.597557C34.9113 0.597557 34.3719 0.597557 33.8304 0.597557C33.8283 0.582285 33.8261 0.567012 33.824 0.549829C33.9121 0.52692 33.998 0.505919 34.0861 0.48301C34.0453 0.4391 34.0088 0.39901 33.94 0.322644C33.9464 0.402827 33.9507 0.4391 33.955 0.490647C33.7187 0.490647 33.4823 0.490647 33.2072 0.490647C33.248 0.475374 33.2781 0.463919 33.3233 0.446736C33.1664 0.389462 33.0332 0.341735 32.8935 0.292098C33.0203 0.271097 33.1406 0.252006 33.2631 0.231006C33.2631 0.22337 33.2609 0.217642 33.2609 0.210006C33.0998 0.210006 32.9365 0.210006 32.7581 0.210006C32.7452 0.318826 32.7345 0.427646 32.7194 0.559376C32.4873 0.536466 32.2531 0.494465 32.021 0.494465C31.8169 0.494465 31.6149 0.546012 31.4107 0.568922C31.3312 0.576558 31.2496 0.565103 31.1679 0.561285L31.1722 0.567012C30.9745 0.404736 30.7553 0.477282 30.5834 0.578466C30.4888 0.633831 30.4437 0.631923 30.3556 0.609013C30.2847 0.589922 30.2009 0.609012 30.1257 0.599467C30.0677 0.59183 30.0118 0.567012 29.9559 0.549829C29.8399 0.549829 29.7238 0.549829 29.6078 0.549829C29.6787 0.484919 29.7496 0.44101 29.8205 0.444828C29.8657 0.446737 29.9086 0.515466 29.9516 0.553648C30.1149 0.494466 30.2761 0.425737 30.4416 0.376099C30.5103 0.3551 30.592 0.372281 30.6994 0.372281C30.5189 0.223368 30.3384 0.263461 30.1729 0.28828C29.9409 0.324553 29.7152 0.393281 29.481 0.448645C29.4982 0.467737 29.5261 0.504011 29.5562 0.540284C29.5519 0.555557 29.5455 0.572739 29.5412 0.588012C29.4359 0.576558 29.3306 0.565102 29.2059 0.551739C29.0641 0.639559 28.8643 0.580375 28.6794 0.580375C28.4882 0.580375 28.2969 0.551738 28.0992 0.536465C28.0928 0.509738 28.0842 0.471555 28.0799 0.456282C28.1723 0.416191 28.2647 0.3761 28.3679 0.330281C28.2669 0.202369 28.0584 0.345552 28.0477 0.160368C28.2604 0.120276 28.4517 0.0840032 28.6408 0.0477302C28.6408 0.0324571 28.6408 0.0152748 28.6408 1.66205e-06C28.4366 1.65296e-06 28.2325 1.64387e-06 28.0025 1.63364e-06C27.9445 0.118367 27.1107 0.397099 26.7497 0.372281C26.7777 0.408554 26.797 0.433372 26.8228 0.462009C26.6186 0.462009 26.4188 0.462009 26.2189 0.462009C26.1889 0.462009 26.1502 0.442918 26.1308 0.454373C25.9052 0.599466 25.6946 0.399008 25.4862 0.467737C25.4991 0.379917 25.5076 0.322644 25.5162 0.267279L25.5227 0.273006C25.3336 0.378008 25.0564 0.427644 25.0521 0.35128C25.0908 0.343644 25.1294 0.336008 25.1681 0.330281C25.1445 0.299735 25.123 0.271097 25.1015 0.24246C24.6803 0.383735 24.0163 0.429554 23.7219 0.368463C23.7541 0.414281 23.7713 0.463918 23.795 0.467737C23.9239 0.481101 24.055 0.490647 24.1861 0.486829C24.5471 0.475374 24.9081 0.452465 25.2713 0.444828C25.3142 0.442918 25.3572 0.500192 25.4002 0.530738C25.3572 0.561284 25.3207 0.610921 25.2734 0.620467C24.9468 0.694923 24.6309 0.582285 24.3086 0.561285C24.199 0.553649 24.0872 0.607104 23.9733 0.616649C23.8917 0.622377 23.8057 0.601376 23.7219 0.593739C23.6553 0.588012 23.5887 0.582284 23.522 0.576557C23.5178 0.59183 23.5156 0.607104 23.5113 0.622377C23.5715 0.641468 23.6338 0.658649 23.7477 0.693014C23.4898 0.817107 23.2556 0.715923 23.0428 0.769378C23.0514 0.725469 23.0557 0.70065 23.06 0.673922C23.161 0.664377 23.2771 0.652923 23.391 0.643377C23.391 0.628104 23.3888 0.61474 23.3888 0.599467C23.2491 0.599467 23.1116 0.599467 22.9719 0.599467C22.9698 0.588012 22.9698 0.576558 22.9676 0.567011C23.0235 0.555557 23.0815 0.542193 23.1718 0.523101C22.8795 0.427645 22.6045 0.69874 22.3423 0.507828C22.1596 0.52501 21.9598 0.54601 21.7578 0.557466C21.7298 0.559374 21.6976 0.502101 21.646 0.450555C21.4612 0.450555 21.2377 0.450555 20.9734 0.450555C21.0443 0.4181 21.083 0.402826 21.1196 0.385644C21.1153 0.368462 21.111 0.351281 21.1067 0.334098C20.7048 0.475374 20.275 0.385643 19.8689 0.542192C20.073 0.542192 20.275 0.542192 20.4792 0.542192C19.5917 0.643376 18.7085 0.807561 17.8081 0.731197C17.8425 0.725469 17.8747 0.72165 17.9091 0.715923C18.0402 0.691104 18.1734 0.696832 18.3066 0.673922C18.6569 0.610921 19.0222 0.630012 19.3811 0.605193C19.5079 0.597557 19.6325 0.561284 19.7593 0.538374C19.7571 0.523101 19.7528 0.509737 19.7507 0.494464C19.4842 0.509737 19.2178 0.530738 18.9513 0.538374C18.4635 0.551738 17.9757 0.559375 17.4879 0.559375C17.2451 0.559375 17.0001 0.515465 16.7594 0.530738C16.5617 0.544102 16.3705 0.622377 16.1749 0.664377C16.0675 0.687287 15.9536 0.712105 15.844 0.704469C15.4958 0.685377 15.1499 0.651012 14.8017 0.624284C14.7996 0.641466 14.7953 0.65865 14.7932 0.675832C14.8576 0.687286 14.9199 0.696832 14.9844 0.708286C14.9865 0.72165 14.9865 0.735014 14.9887 0.748378C14.7201 0.778924 14.4515 0.811379 14.1829 0.841925C14.1807 0.834288 14.1786 0.824742 14.1764 0.817106C14.2538 0.794197 14.3311 0.769378 14.4085 0.746469C14.0948 0.801833 13.8089 0.616649 13.4931 0.668195C13.1686 0.72165 12.8333 0.727378 12.5024 0.752196C12.4981 0.771288 12.4917 0.78847 12.4874 0.807562C12.554 0.847653 12.6206 0.887744 12.7259 0.952654C12.5927 0.958382 12.4874 0.964109 12.3799 0.969837C12.3778 0.958382 12.3756 0.946927 12.3735 0.935472C12.3971 0.922109 12.4207 0.906836 12.4465 0.893472C12.4379 0.885835 12.4315 0.872471 12.4229 0.870562C12.3026 0.845743 12.1801 0.824742 12.0597 0.801833C12.0296 0.796105 11.9867 0.778924 11.9738 0.790379C11.7868 0.945018 11.6085 0.765559 11.4215 0.780832C11.2324 0.796105 11.039 0.757924 10.8477 0.74456C10.8456 0.723559 10.8413 0.702559 10.8391 0.683468C10.9982 0.651013 11.1572 0.593739 11.3184 0.588012C11.9029 0.567012 12.4895 0.567011 13.074 0.549829C13.3448 0.542192 13.6134 0.505919 13.8842 0.492556C13.9658 0.488737 14.0475 0.521193 14.1313 0.521193C14.3913 0.521193 14.6513 0.515465 14.9113 0.509737C14.9242 0.509737 14.9371 0.490646 14.9479 0.463919C14.7523 0.509737 14.5804 0.379917 14.3677 0.444827C14.2 0.494465 13.998 0.421917 13.8089 0.420008C13.5382 0.414281 13.2653 0.427645 12.9945 0.423827C12.8978 0.421918 12.799 0.37228 12.7044 0.376099C12.5518 0.381826 12.4014 0.420009 12.251 0.437191C11.7438 0.490646 11.2367 0.565103 10.7274 0.582285C10.2546 0.599466 9.76897 0.605193 9.30911 0.517374C8.96314 0.450554 8.67948 0.528828 8.37863 0.626194C8.3335 0.641467 8.30341 0.70065 8.25399 0.752196C8.01546 0.731196 7.74471 0.706378 7.48683 0.683468C7.68238 0.4391 7.99612 0.616648 8.23895 0.488736C7.9381 0.488736 7.63725 0.488736 7.28913 0.488736C7.37938 0.519282 7.43311 0.538374 7.53411 0.572738C7.43311 0.603285 7.37508 0.633831 7.31706 0.63574C6.90447 0.651013 6.49403 0.652921 6.08144 0.675831C5.39378 0.712104 4.70613 0.757924 4.01848 0.805651C3.47051 0.845743 2.92253 0.899198 2.37241 0.93929C2.28215 0.945017 2.18975 0.910654 2.09734 0.893471C2.09734 0.878198 2.0995 0.861016 2.0995 0.845743C2.51424 0.761741 2.92468 0.660558 3.34372 0.601375C3.7864 0.538375 4.23552 0.515463 4.68249 0.475372C4.68034 0.456281 4.68034 0.43719 4.67819 0.420007C4.36446 0.444826 4.05286 0.463917 3.73912 0.494464C3.42967 0.525009 3.11808 0.559374 2.80863 0.599466C2.49059 0.641467 2.17471 0.691104 1.85667 0.738832C1.54077 0.784651 1.22488 0.830471 0.885361 0.882017C0.881058 0.815197 0.885354 0.757923 0.870316 0.706377C0.855271 0.654829 0.827332 0.582284 0.786507 0.568921C0.741379 0.553647 0.63823 0.580374 0.625336 0.61283C0.504998 0.893471 0.225632 1.04047 5.8862e-07 1.28675C0.107445 1.30393 0.176217 1.30775 0.240685 1.32684C0.3116 1.34784 0.380364 1.38412 0.446976 1.41657C0.47921 1.43184 0.507142 1.45475 0.537232 1.47576C0.547974 1.44139 0.550126 1.40321 0.569466 1.37648C0.618889 1.30584 0.664017 1.22757 0.732781 1.17984C0.765015 1.15693 0.84668 1.19893 0.917588 1.2123C0.782212 1.33257 0.676911 1.42803 0.532929 1.55594C0.661866 1.58076 0.732781 1.58648 0.797249 1.60748C0.872468 1.63421 0.943375 1.6743 1.01644 1.70676C1.04868 1.72203 1.08306 1.74494 1.11314 1.74303C1.13033 1.74112 1.15827 1.68958 1.15397 1.66476C1.12604 1.48148 1.27216 1.48339 1.41399 1.4013C1.37531 1.48912 1.35381 1.5273 1.34307 1.5693C1.28505 1.80222 1.29365 1.81176 1.54722 1.82131C1.60739 1.82321 1.66541 1.83658 1.72558 1.84612C1.77931 1.85376 1.83088 1.86331 1.88461 1.87094C1.83733 2.08668 1.84377 2.09049 2.078 2.10576C2.20264 2.1134 2.32513 2.13822 2.44762 2.18595C2.38315 2.18595 2.31439 2.1955 2.25207 2.18404C2.04362 2.14777 1.87815 2.11913 1.69979 2.32531C1.58805 2.45514 1.3001 2.4475 1.08736 2.49332C1.02504 2.50668 0.956269 2.49523 0.842377 2.49523C0.990655 2.63077 1.11099 2.74341 1.20984 2.83314C1.16257 3.04887 1.13248 3.23024 1.07661 3.40397C1.05082 3.48415 0.971314 3.54715 0.915436 3.61779C0.88321 3.65788 0.827332 3.69607 0.820885 3.73807C0.782204 4.06644 0.810143 4.38908 0.924035 4.70218C0.930481 4.72127 0.95842 4.73463 0.99495 4.76518C0.915436 4.83009 0.842377 4.89118 0.767167 4.95418C0.878907 5.11264 0.741379 5.22146 0.631783 5.33601C0.913292 5.48874 1.09165 5.67774 1.02934 6.00993C1.01859 6.06147 1.13248 6.13402 1.1819 6.18747C1.05942 6.25239 0.941224 6.31348 0.786507 6.39557C0.883202 6.43375 0.930481 6.45284 0.988503 6.47575C0.936928 6.51775 0.887505 6.55594 0.820885 6.60939C0.902542 6.65903 0.969162 6.70103 1.05727 6.75639C1.00355 6.81558 0.954125 6.86903 0.911141 6.91676C0.949822 7.00076 1.05512 7.13249 1.02504 7.1764C0.951973 7.27949 0.814446 7.3425 0.683358 7.43413C0.719895 7.63268 0.982056 7.60405 1.13893 7.73196C1.04437 7.78923 0.956269 7.84078 0.870316 7.89232C0.889656 7.89614 0.908989 7.89996 0.92833 7.90378C0.943375 7.97442 0.990647 8.05651 0.967011 8.11187C0.898247 8.27033 0.805847 8.42115 0.711296 8.56815C0.664017 8.64261 0.651123 8.6827 0.722039 8.76098C0.831635 8.88125 0.949822 9.02062 0.801544 9.19817C0.771462 9.23444 0.752121 9.30699 0.769318 9.34708C0.876763 9.59908 0.659714 9.78045 0.631783 10.0076C0.661865 10.042 0.700546 10.084 0.752121 10.1413C0.668312 10.1527 0.610291 10.1604 0.599549 10.1604C0.642525 10.2348 0.702698 10.3188 0.737084 10.4105C0.786507 10.5384 0.771462 10.6892 0.936928 10.7656C0.975609 10.7827 0.99495 10.8801 0.988503 10.9393C0.97776 11.071 1.01429 11.1627 1.15397 11.2027C1.19265 11.2142 1.22919 11.2371 1.26787 11.2562C1.25927 11.2753 1.24852 11.2963 1.23993 11.3154C1.13033 11.3536 1.02074 11.3937 0.911141 11.4318C0.911141 11.4433 0.908997 11.4528 0.908997 11.4643C1.01214 11.47 1.11959 11.4643 1.21844 11.4853C1.28506 11.4987 1.35812 11.5407 1.4011 11.5903C1.46127 11.6628 1.49565 11.7545 1.54292 11.8366C1.64393 12.0103 1.61813 12.0752 1.42043 12.1516C1.37316 12.1707 1.32803 12.1936 1.28291 12.2165C1.2872 12.2318 1.28935 12.2451 1.29365 12.2604C1.43763 12.2604 1.57946 12.2604 1.72988 12.2604C1.79649 12.3921 1.87815 12.5315 1.93617 12.6804C1.97701 12.7892 1.95337 12.8904 1.88461 13.0088C1.75352 13.2341 1.85452 13.362 2.15537 13.3906C2.09734 13.4364 2.04577 13.4765 1.99635 13.5147C2.00279 13.5281 2.00924 13.5414 2.01569 13.5529C2.11453 13.5262 2.21339 13.4994 2.33157 13.467C2.381 13.5452 2.39819 13.6884 2.56796 13.6922C2.58945 13.6922 2.60664 13.7705 2.63242 13.8087C2.66251 13.8526 2.69044 13.9156 2.73342 13.9328C2.88599 13.9882 2.91608 14.1084 2.93542 14.2383L2.93112 14.2344C3.08155 14.1485 3.08155 14.1485 3.38025 14.2535C3.26636 14.3967 3.24916 14.4005 3.12238 14.2993C3.13312 14.3394 3.13527 14.3872 3.15891 14.4234C3.1761 14.4521 3.24272 14.4903 3.24702 14.4864C3.40388 14.3318 3.57365 14.4559 3.73912 14.4578C3.82722 14.4597 3.91533 14.4406 4.00558 14.433C4.02277 14.4521 4.03996 14.4712 4.05715 14.4922C3.95401 14.5475 3.85086 14.601 3.74986 14.6564C3.77135 14.685 3.79284 14.7136 3.81432 14.7442C4.03567 14.6888 4.25485 14.6182 4.48049 14.5819C4.6739 14.5494 4.87589 14.5514 5.07359 14.5475C5.34221 14.5418 5.61298 14.5514 5.88159 14.5456C6.12656 14.5399 6.37154 14.5246 6.61652 14.5055C6.79058 14.4922 6.96464 14.4559 7.1387 14.454C7.28483 14.4521 7.43095 14.4884 7.57708 14.5074L7.57063 14.5017C7.76189 14.4807 7.95529 14.4578 8.14655 14.4368C8.17663 14.433 8.22391 14.4292 8.23465 14.4444C8.39582 14.6583 8.6365 14.5437 8.87503 14.5857C8.79552 14.6735 8.7289 14.748 8.66229 14.8205C8.66659 14.832 8.67088 14.8454 8.67519 14.8568C8.89437 14.7995 9.1114 14.727 9.33489 14.6907C9.51756 14.6621 9.70881 14.6735 9.89577 14.6716C10.2783 14.6697 10.6608 14.6793 11.0411 14.6659C11.5075 14.6487 11.9716 14.6144 12.4379 14.5876C12.4917 14.5838 12.5454 14.5934 12.6206 14.5972C12.5819 14.6411 12.5583 14.6678 12.5003 14.7346C12.7796 14.7136 13.0181 14.8129 13.2567 14.6583C13.3426 14.6029 13.4716 14.6144 13.5833 14.5704C13.7961 14.4884 14.0432 14.4884 14.2774 14.4559C14.2839 14.4712 14.2924 14.4864 14.2989 14.4998C14.2301 14.5724 14.1635 14.6449 14.0948 14.7194C14.1012 14.7327 14.1098 14.7461 14.1162 14.7594C14.344 14.6964 14.5697 14.6163 14.8039 14.5762C14.9694 14.5475 15.1434 14.5704 15.3132 14.5685C15.7064 14.5666 16.1018 14.5781 16.4951 14.5609C16.8088 14.5475 17.1204 14.4845 17.4342 14.475C17.6147 14.4693 17.7973 14.5304 17.98 14.5475C18.2035 14.5685 18.4205 14.6163 18.6483 14.496C18.7772 14.4292 18.9642 14.4616 19.1254 14.454C19.2027 14.4502 19.2801 14.4616 19.3746 14.4654C19.3531 14.4234 19.3424 14.3967 19.3274 14.37C19.4241 14.37 19.5143 14.37 19.6304 14.37C19.5788 14.4425 19.5401 14.4998 19.467 14.601C19.7314 14.5304 19.9463 14.4521 20.1697 14.4177C20.3524 14.3891 20.5458 14.3929 20.7328 14.4063C21.2893 14.4464 21.8437 14.5017 22.4003 14.4044C22.5121 14.3853 22.6302 14.4063 22.7463 14.412C22.8903 14.4177 23.0364 14.4234 23.1804 14.433C23.262 14.4387 23.3845 14.37 23.3867 14.5342C23.3867 14.5456 23.4275 14.5647 23.449 14.5647C23.6424 14.5647 23.8487 14.601 24.0227 14.5475C24.3171 14.454 24.603 14.5189 24.8909 14.5227C24.9919 14.5246 25.0951 14.5304 25.1961 14.5361C25.6022 14.5533 26.0083 14.5724 26.4145 14.5876C26.5563 14.5934 26.7003 14.5876 26.8013 14.5876C26.6702 14.685 26.5155 14.8014 26.3264 14.9427C26.7368 15.0286 27.0721 14.9351 27.4417 14.8434C27.2268 14.7785 27.0527 14.7251 26.8658 14.6678C27.0506 14.5265 27.2569 14.5284 27.461 14.5304C27.4846 14.5304 27.5212 14.5342 27.5276 14.5494C27.6523 14.7881 27.8758 14.7041 28.0735 14.7079C28.0906 14.7079 28.11 14.7117 28.1616 14.7194C28.0778 14.8091 28.0047 14.8874 27.9338 14.9637C27.9381 14.9752 27.9424 14.9885 27.9467 15C28.1723 14.9446 28.3936 14.8759 28.6236 14.8377C28.8062 14.8072 28.9953 14.811 29.1823 14.8091C29.5519 14.8053 29.9194 14.8224 30.289 14.8053C30.6457 14.79 31.0003 14.7308 31.3591 14.7136C31.7417 14.6945 32.1242 14.7003 32.5067 14.6964C32.7345 14.6945 32.9622 14.6964 33.2223 14.6964C33.2223 14.6124 33.2223 14.5265 33.2223 14.4234C33.8197 14.4024 34.4364 14.3891 35.0531 14.3585C35.4528 14.3394 35.8504 14.2822 36.2479 14.2669C36.538 14.2554 36.8303 14.2841 37.1225 14.2974C37.2622 14.3032 37.4019 14.3184 37.5416 14.328C38.1562 14.37 38.7708 14.4139 39.3875 14.4521C39.712 14.4712 40.0365 14.4826 40.3631 14.4941C40.8746 14.5113 41.386 14.5208 41.8974 14.5437C42.5013 14.5704 43.1073 14.6105 43.7111 14.6392C44.2763 14.6659 44.8415 14.6659 45.4045 14.7117C45.9438 14.7556 46.4703 14.6793 47.0033 14.6487C47.2504 14.6354 47.4975 14.6468 47.7446 14.6411C48.2196 14.6315 48.6945 14.6277 49.1694 14.601C49.5562 14.58 49.9408 14.5265 50.3276 14.4979C50.7016 14.4693 51.0755 14.4616 51.4472 14.4292C51.8426 14.3948 52.238 14.3375 52.6334 14.3013C52.7989 14.286 52.9687 14.3089 53.1341 14.3051C53.5016 14.2993 53.8712 14.2994 54.2365 14.2745C54.6083 14.2478 54.98 14.1924 55.3497 14.1523C55.715 14.1123 56.0824 14.0588 56.4478 14.0416C56.9033 14.0187 57.361 14.0302 57.8188 14.0225C57.9799 14.0187 58.139 13.9977 58.3001 13.9882C58.6568 13.9672 59.0157 13.95 59.3724 13.929C59.5766 13.9156 59.7807 13.8927 59.987 13.8793C60.0945 13.8736 60.2041 13.8851 60.3115 13.8832C60.6403 13.8774 60.9712 13.8679 61.3 13.8622C61.4483 13.8603 61.5987 13.8583 61.747 13.866C61.9533 13.8774 62.1445 13.8965 62.3573 13.8087C62.5356 13.7362 62.7699 13.7973 62.9805 13.7934C63.0729 13.7915 63.1631 13.7705 63.2555 13.7591C63.2555 13.7438 63.2555 13.7285 63.2555 13.7132C63.0191 13.6884 62.7828 13.6617 62.5464 13.6369C62.5485 13.6235 62.5507 13.6102 62.5507 13.5987C62.8343 13.5987 63.1158 13.5987 63.4339 13.5987C63.3952 13.5548 63.378 13.5357 63.3522 13.5052C63.782 13.3715 64.2161 13.5052 64.6588 13.4689C64.633 13.4269 64.6158 13.3963 64.5879 13.3524C64.9424 13.3524 65.2863 13.3524 65.6322 13.3524C65.6322 13.3448 65.6322 13.3352 65.6322 13.3276C65.5183 13.3028 65.4023 13.2761 65.2884 13.2512C65.2906 13.2283 65.2927 13.2073 65.2948 13.1844C65.817 13.1653 66.3392 13.1462 66.8636 13.1291C66.8657 13.1214 66.8679 13.1157 66.87 13.1081C66.6078 13.0603 66.3435 13.0126 66.0814 12.9649C66.0835 12.9401 66.0857 12.9171 66.0899 12.8923C66.1501 12.8885 66.221 12.8637 66.2683 12.8866C66.4295 12.963 66.582 12.942 66.754 12.921C67.0527 12.8847 67.3557 12.8885 67.6716 12.8751C67.6393 12.69 67.7188 12.6747 67.8929 12.6919C68.3377 12.7339 68.7868 12.7396 69.2338 12.7587C69.236 12.7396 69.2403 12.7205 69.2424 12.7014C69.1973 12.6919 69.1543 12.6785 69.1092 12.6728C69.0576 12.667 69.0039 12.667 68.9158 12.6632C68.9867 12.6117 69.0318 12.5811 69.0769 12.5487C69.0318 12.5296 68.9781 12.5086 68.8792 12.4666C68.9609 12.4532 69.006 12.4456 69.049 12.438L69.0447 12.4418C68.9158 12.4284 68.7868 12.4074 68.6579 12.4036C68.3936 12.394 68.1293 12.3921 67.865 12.3902C67.6071 12.3902 67.3492 12.3998 67.0913 12.396C66.9882 12.394 66.885 12.3654 66.7819 12.3482C66.784 12.333 66.7862 12.3158 66.7862 12.3005C67.1558 12.289 67.5276 12.2833 67.8972 12.2604C68.2539 12.2394 68.63 12.4208 69.0189 12.1535C68.9072 12.1249 68.8384 12.0924 68.7675 12.0905C68.2389 12.0733 67.7102 12.0523 67.1816 12.0561C66.8378 12.058 66.4961 12.0981 66.1523 12.121C66.1286 12.1229 66.105 12.1172 66.0792 12.0867C66.2189 12.0752 66.3607 12.0657 66.5004 12.0542C66.5025 12.0447 66.5047 12.0332 66.5068 12.0237C66.423 12.0103 66.3371 11.9817 66.2533 11.9855C65.9567 11.9969 65.6473 12.079 65.3679 12.0199C65.0391 11.9492 64.7426 12.1096 64.431 12.0523C64.3794 12.0428 64.3343 12.0084 64.2612 11.974C64.4525 11.9569 64.5986 11.9454 64.7469 11.932C64.7447 11.9149 64.7447 11.8977 64.7426 11.8805C64.5535 11.8805 64.3644 11.8805 64.1753 11.8805C64.1753 11.8709 64.1753 11.8614 64.1753 11.8519C64.532 11.8347 64.8887 11.8156 65.2454 11.7984C65.2454 11.785 65.2454 11.7698 65.2454 11.7564C64.5019 11.7564 63.7605 11.7564 63.017 11.7564C63.0148 11.7507 63.0148 11.7449 63.0127 11.7392C63.2061 11.7029 63.3995 11.6552 63.5951 11.6342C64.0764 11.5808 64.5556 11.5254 65.0391 11.4987C65.5097 11.4719 65.9804 11.4872 66.451 11.4738C66.7045 11.4662 66.9581 11.4376 67.2117 11.4166C67.3492 11.4051 67.4846 11.3879 67.6221 11.3459C67.3299 11.3459 67.0376 11.3459 66.7454 11.3459C66.7432 11.3402 66.7432 11.3345 66.7432 11.3307C66.7991 11.3173 66.855 11.302 66.9108 11.2887C66.7282 11.2257 66.5133 11.3746 66.3199 11.1607C66.9882 11.0729 67.6286 10.9889 68.2711 10.9068C68.2754 10.9183 68.2775 10.9278 68.2818 10.9393C68.2518 10.9259 68.2217 10.9145 68.1851 10.8992C68.2066 10.882 68.2152 10.8687 68.2238 10.8687C68.2775 10.8667 68.3313 10.8667 68.3871 10.8667C68.4215 10.9966 68.7632 11.0023 69.2832 10.8648C69.1457 10.8763 69.0082 10.8858 68.8706 10.8973C68.8706 10.8858 68.8685 10.8744 68.8685 10.861C69.7453 10.7637 70.6199 10.6644 71.4966 10.567C71.4966 10.5498 71.4945 10.5307 71.4945 10.5136C71.4601 10.5097 71.4236 10.5059 71.3892 10.5059C71.213 10.5059 70.9981 10.4467 70.8691 10.5231C70.7252 10.609 70.5833 10.5804 70.448 10.6109C70.2116 10.6663 69.9623 10.6644 69.7173 10.6835C69.4745 10.7026 69.2317 10.7236 68.9888 10.7274C68.5934 10.7331 68.198 10.7217 67.8026 10.7255C67.4696 10.7274 67.1386 10.7388 66.8055 10.7465C66.7561 10.7484 66.7088 10.7522 66.6508 10.756C66.8206 10.651 66.8206 10.6625 67.0312 10.6796C67.1193 10.6873 67.2095 10.6281 67.3019 10.6205C67.4781 10.6033 67.6544 10.6033 67.8306 10.588C67.9015 10.5823 67.9767 10.5976 68.0304 10.4983C68.0605 10.441 68.2002 10.4372 68.2904 10.4105C68.2947 10.4257 68.3012 10.4429 68.3055 10.4582C68.2389 10.4868 68.1722 10.5136 68.1056 10.5422C68.1078 10.5536 68.1078 10.5632 68.1099 10.5746C68.2797 10.5746 68.4473 10.5785 68.6171 10.5746C68.8663 10.5689 69.1156 10.5613 69.3649 10.5498C69.5153 10.5441 69.6872 10.5689 69.814 10.5097C70.1127 10.3742 70.4093 10.4926 70.7037 10.4677C71.0411 10.441 71.3806 10.4219 71.7201 10.4047C71.9135 10.3952 72.1048 10.3933 72.2982 10.3876C72.4164 10.3837 72.5346 10.3876 72.6506 10.3761C72.7451 10.3666 72.8375 10.378 72.9278 10.2864C72.9923 10.2196 73.1577 10.2444 73.2802 10.2291C73.4435 10.21 73.6069 10.1928 73.768 10.1394C72.1757 10.3436 70.5747 10.3284 68.9759 10.3341C68.9738 10.3169 68.9738 10.2978 68.9716 10.2806C69.2274 10.2558 69.4852 10.231 69.741 10.2062C69.7453 10.1966 69.7496 10.1871 69.7539 10.1756C69.6185 10.1203 69.4852 10.0668 69.3499 10.0115C69.352 9.99809 69.352 9.98664 69.3542 9.97327C69.6142 9.97327 69.8742 9.97327 70.175 9.97327C70.0568 9.91218 69.973 9.86827 69.8871 9.82436C69.5454 9.916 69.2123 9.94273 68.9115 9.73272C68.9136 9.71172 68.9179 9.69072 68.9201 9.66972C69.2424 9.72127 69.5626 9.77472 69.8849 9.82627C69.9129 9.82627 69.943 9.82627 70.016 9.82627C69.9537 9.78045 69.9236 9.75754 69.8935 9.73654C69.8978 9.72318 69.9021 9.7079 69.9064 9.69454C70.0526 9.7289 70.1987 9.76518 70.3448 9.79954C70.347 9.77854 70.3513 9.75563 70.3534 9.73463C70.0869 9.70409 69.8183 9.67545 69.539 9.64299C69.5905 9.6239 69.6378 9.60863 69.6851 9.59145C69.6657 9.56663 69.6507 9.54754 69.6529 9.54945C69.915 9.50936 70.175 9.46735 70.4351 9.42726C70.4372 9.43681 70.4394 9.44635 70.4415 9.45781C70.3878 9.47308 70.3341 9.49026 70.2825 9.50554C70.7939 9.55517 71.2989 9.59527 71.834 9.47117C71.6299 9.42535 71.473 9.38908 71.314 9.35281C71.3204 9.32799 71.3269 9.30317 71.3312 9.27835C71.5246 9.26499 71.7137 9.27072 71.8748 9.40245C71.9672 9.4769 72.0081 9.47499 72.1434 9.39863C72.1714 9.38144 72.223 9.40054 72.2638 9.40245C72.3218 9.40626 72.3798 9.41199 72.4378 9.41581C72.44 9.39481 72.4443 9.37381 72.4464 9.3509C72.1434 9.29935 71.8383 9.24972 71.5353 9.19817C71.5353 9.18671 71.5375 9.17526 71.5375 9.1638C71.7008 9.17717 71.8662 9.21535 72.0253 9.19626C72.1907 9.17717 72.3497 9.10462 72.5045 9.0168C72.0253 8.99771 71.5525 9.15044 71.0797 8.99198C71.5138 8.94616 71.95 8.89844 72.3626 8.85453C72.5023 8.82207 72.6248 8.79534 72.7473 8.76671C72.7473 8.75907 72.7473 8.75143 72.7473 8.7438C72.2874 8.76671 71.8297 8.78962 71.3698 8.81062C71.3677 8.78198 71.3655 8.75334 71.3634 8.7228C72.5238 8.63498 73.6864 8.54525 74.8511 8.45552C74.6641 8.36961 74.4772 8.35243 74.2623 8.3887C74.0925 8.41734 73.9077 8.37724 73.7014 8.36579C73.7573 8.33906 73.7895 8.32379 73.8346 8.30279C73.7809 8.27797 73.7358 8.25888 73.6756 8.23215C73.9142 8.20351 74.1355 8.17679 74.359 8.15197C74.359 8.14242 74.359 8.13288 74.3568 8.12333C74.2129 8.12333 74.0689 8.12333 73.9249 8.12333C73.9249 8.10424 73.9249 8.08515 73.9249 8.06797C74.2451 8.06797 74.5674 8.06988 74.8876 8.06797C75.066 8.06606 75.2465 8.05078 75.4248 8.0546C75.5366 8.05651 75.6505 8.10042 75.7622 8.0966C76.0051 8.08706 76.2457 8.05651 76.4886 8.03551L76.4843 8.03933C76.3897 8.02215 76.2973 8.00687 76.2028 7.98969C76.1705 7.98396 76.1361 7.97824 76.1082 7.93242C76.4048 7.91333 76.7013 7.89233 76.9979 7.87324C76.9979 7.85414 77 7.83505 77 7.81596C76.1705 7.70141 75.3324 7.69187 74.4901 7.69951C74.5524 7.71096 74.6147 7.72432 74.6792 7.73578C74.6813 7.74532 74.6813 7.75487 74.6835 7.76251C74.6362 7.76632 74.5911 7.77014 74.5438 7.77205C74.2279 7.78351 73.912 7.79114 73.5961 7.80833C73.4736 7.81596 73.3533 7.85224 73.2308 7.85796C73.1019 7.8656 73.0696 7.79114 73.1191 7.64605C72.9579 7.68614 72.8161 7.72051 72.7065 7.74723C72.7989 7.76632 72.9192 7.78923 73.0395 7.81405C73.0374 7.83314 73.0352 7.85224 73.0331 7.87133C72.425 7.89615 71.8168 7.92096 71.2108 7.94578C71.2087 7.93433 71.2087 7.92287 71.2065 7.91142C71.5095 7.88278 71.8125 7.85224 72.1155 7.8236C72.1155 7.80451 72.1155 7.78542 72.1155 7.76632C71.6385 7.75296 71.1614 7.7396 70.6865 7.72623C70.6886 7.7186 70.6886 7.70905 70.6908 7.70141C71.0088 7.66323 71.3269 7.61359 71.6449 7.58878C71.8082 7.57541 71.9758 7.61359 72.1391 7.60405C72.4357 7.58496 72.7323 7.53532 73.031 7.52196C73.3361 7.50859 73.6434 7.52387 73.9507 7.52768C74.056 7.52768 74.1613 7.52768 74.3246 7.52768C74.2472 7.47805 74.2193 7.46086 74.1892 7.44177C74.1892 7.42841 74.1892 7.41505 74.1892 7.40168C74.5911 7.40168 74.9908 7.40168 75.3926 7.40168C75.3926 7.37686 75.3926 7.35204 75.3948 7.32913C74.8812 7.28904 74.3676 7.24895 73.8175 7.20504C73.9636 7.16877 74.0689 7.12868 74.1785 7.11722C74.3074 7.10386 74.4299 7.1134 74.5674 7.15159C74.7479 7.20122 74.965 7.14204 75.1648 7.11913C75.2938 7.10577 75.4227 7.05995 75.5516 7.05613C75.7794 7.0504 76.0072 7.05995 76.235 7.07331C76.3639 7.08095 76.4907 7.10386 76.6239 7.08477C76.5874 7.07331 76.5487 7.05995 76.5122 7.04849C76.5122 7.03704 76.5122 7.02749 76.51 7.01604C76.6454 6.99695 76.783 6.97786 76.9183 6.95877C76.9205 6.94349 76.9205 6.92822 76.9226 6.91295C76.538 6.87476 76.1555 6.82703 75.7708 6.80413C75.5817 6.79267 75.3883 6.84613 75.1971 6.84804C74.8253 6.84994 74.4535 6.83467 74.0818 6.82894C74.0345 6.82894 73.9872 6.85758 73.9421 6.85567C73.8841 6.85567 73.8282 6.83849 73.8003 6.83276C73.6477 6.85567 73.5059 6.90722 73.3791 6.88622C73.1126 6.84231 72.8762 6.95876 72.6227 6.97595C72.5388 6.98167 72.4357 7.01986 72.3734 6.9874C72.0661 6.82703 71.7287 6.88049 71.4042 6.84804C71.1506 6.82322 70.8906 6.8404 70.6349 6.83276C70.5017 6.82894 70.3706 6.80985 70.2374 6.7984C70.1557 6.81176 70.0762 6.83467 69.9945 6.83658C69.8334 6.8404 69.6722 6.82894 69.5132 6.83276C69.034 6.84231 68.5569 6.85949 68.0777 6.8614C67.8929 6.8614 67.7016 6.85185 67.534 6.6934C67.6823 6.70103 67.8069 6.70485 67.9552 6.71249C67.9144 6.66094 67.8972 6.63612 67.8435 6.56548C68.183 6.6323 68.4688 6.68767 68.7782 6.74876C68.7739 6.75258 68.804 6.70867 68.8384 6.70676C68.9824 6.6934 69.1285 6.67812 69.2725 6.69149C69.6013 6.70867 69.9236 6.75449 70.2481 6.79267ZM40.9197 1.62849C40.9584 1.67621 40.9949 1.72585 41.0465 1.79076C40.8681 1.76785 40.7112 1.74685 40.5329 1.72394C40.6833 1.68767 40.8015 1.65903 40.9197 1.62849C40.9412 1.62467 40.9605 1.61894 41.0207 1.60367C40.8853 1.57503 40.7886 1.55403 40.6919 1.53303C40.7972 1.50821 40.9068 1.52539 40.997 1.49103C41.1561 1.42803 41.2463 1.53303 41.3602 1.5903C41.4032 1.61321 41.4505 1.6323 41.4934 1.6533C41.4591 1.60558 41.4268 1.55785 41.3903 1.50821C41.4032 1.49676 41.4182 1.48721 41.4311 1.47576C41.5837 1.35166 41.6868 1.37266 41.8136 1.52539C41.8588 1.58076 41.9404 1.60939 42.0006 1.64949C41.8394 1.64949 41.6654 1.64949 41.4891 1.64949C41.4591 1.76212 41.3215 1.82131 41.2442 1.72776C41.1432 1.60558 41.025 1.65712 40.9197 1.62849ZM66.5111 5.49256C66.3801 5.66056 66.2339 5.51928 66.0878 5.50019C66.1007 5.53647 66.1071 5.55938 66.1157 5.58228C66.0878 5.58038 66.0577 5.58229 66.0341 5.57274C65.9739 5.54792 65.9159 5.49637 65.8557 5.49637C65.6236 5.49256 65.3916 5.50592 65.1595 5.50783C65.1272 5.50783 65.095 5.48683 65.0628 5.47537C65.2562 5.4391 65.456 5.46965 65.6236 5.41428C65.8665 5.3341 66.0856 5.43528 66.3177 5.42765C66.3886 5.42574 66.4617 5.46583 66.5326 5.48683C66.7174 5.49637 66.9022 5.50592 67.087 5.51356C67.087 5.52883 67.0849 5.5441 67.0849 5.55938C66.9216 5.55938 66.7604 5.56319 66.5971 5.55556C66.5692 5.55365 66.5391 5.51356 66.5111 5.49256ZM27.085 0.828561C27.0162 0.843835 26.9453 0.85529 26.8808 0.880109C26.8507 0.891563 26.8335 0.931655 26.7863 0.983202C26.6079 0.96411 26.3887 0.939292 26.1674 0.916382C26.1695 0.904928 26.1695 0.891563 26.1717 0.880108C26.3221 0.880108 26.4725 0.880108 26.6702 0.880109C26.5971 0.85529 26.5692 0.845744 26.5305 0.830471C26.7261 0.719741 26.9044 0.796106 27.085 0.828561C27.1881 0.790378 27.2891 0.750288 27.4159 0.70065C26.84 0.70065 26.2985 0.70065 25.7569 0.70065C25.7569 0.683467 25.7569 0.666286 25.7569 0.647194C26.4532 0.647195 27.1494 0.647195 27.8457 0.647195C27.8457 0.658649 27.8478 0.670105 27.8478 0.681559C27.7167 0.691105 27.5835 0.70256 27.4524 0.712105C27.4524 0.725469 27.4524 0.738832 27.4524 0.754105C27.5233 0.76556 27.5942 0.777015 27.6673 0.78847C27.6652 0.801834 27.6652 0.815198 27.663 0.828561C27.4696 0.828561 27.2762 0.828561 27.085 0.828561ZM19.3768 0.841925C19.3725 0.822833 19.3703 0.803743 19.366 0.784652C19.4219 0.771288 19.4778 0.748378 19.5358 0.74265C19.8947 0.704468 20.2557 0.666286 20.6146 0.635741C20.7951 0.620468 20.9756 0.61474 21.1561 0.620467C21.5107 0.631922 21.8652 0.656741 22.2177 0.673922C22.3273 0.67965 22.4347 0.673922 22.5443 0.673922C22.353 0.702559 22.1639 0.719742 21.9748 0.744561C21.8502 0.759834 21.6912 0.748378 21.6095 0.817107C21.5107 0.901108 21.429 0.878199 21.3323 0.878199C21.2549 0.878199 21.1776 0.87438 21.0981 0.87438C20.8724 0.87438 20.6468 0.883927 20.4233 0.87438C20.376 0.872472 20.3331 0.807562 20.2772 0.759834C20.0129 0.948837 19.6884 0.799924 19.3768 0.841925ZM58.0358 1.92631C58.0272 1.93395 58.0637 1.87858 58.0874 1.88431C58.2485 1.91486 58.4377 1.92058 58.5601 2.0084C58.7557 2.14777 58.9319 2.18022 59.1103 2.08477C59.1898 2.13822 59.2521 2.18022 59.3316 2.23368C59.3509 2.16495 59.3617 2.12295 59.366 2.1115C59.8173 2.1115 60.2535 2.1115 60.7048 2.1115C60.8595 2.23559 61.0765 2.23368 61.2871 2.24704C61.3451 2.25086 61.4032 2.24704 61.4612 2.24704C61.4612 2.26232 61.4612 2.27568 61.4612 2.29095C61.3838 2.3005 61.3086 2.3215 61.2312 2.31768C60.9347 2.30432 60.6403 2.2795 60.3459 2.26995C60.0021 2.2585 59.6582 2.26995 59.3166 2.25277C58.9727 2.23368 58.6311 2.19168 58.2872 2.15541C58.255 2.15159 58.2163 2.13822 58.1948 2.11722C58.1475 2.06759 58.1067 2.01222 58.0358 1.92631ZM16.7551 0.958381C15.9192 0.958381 15.1004 0.958381 14.2817 0.958381C14.2817 0.931653 14.2796 0.904926 14.2796 0.878199C14.6621 0.857198 15.0424 0.826652 15.4249 0.817106C15.6957 0.80947 15.9665 0.847653 16.2351 0.83047C16.4199 0.820925 16.5939 0.792287 16.7551 0.958381ZM4.15386 0.927835C4.15171 0.910654 4.14957 0.891562 4.14957 0.87438C4.41173 0.841925 4.67175 0.796105 4.93606 0.782741C5.15525 0.771287 5.37875 0.803742 5.60008 0.805651C5.77415 0.805651 5.94605 0.788469 6.07069 0.780832C6.13946 0.853379 6.18028 0.895381 6.21252 0.927835C5.93745 1.03284 5.64951 0.866743 5.34866 0.994654C5.1574 1.07484 4.89308 0.992745 4.661 0.985108C4.661 0.964108 4.65886 0.943108 4.65886 0.920199C4.79209 0.903017 4.92532 0.883925 5.07144 0.864834C4.74481 0.763651 4.46115 1.01756 4.15386 0.927835ZM67.4201 6.62467C67.4115 6.64376 67.4029 6.66285 67.3943 6.68194C67.3127 6.63612 67.2332 6.56548 67.1451 6.55212C67.0462 6.53685 66.9409 6.57694 66.8313 6.59221C66.8034 6.55594 66.769 6.50821 66.7325 6.46048C66.7303 6.47766 66.7282 6.49676 66.726 6.51394C66.61 6.53876 66.4939 6.57312 66.3758 6.58458C66.2919 6.59412 66.1716 6.53685 66.1222 6.57503C65.9653 6.6934 65.8514 6.58649 65.7203 6.53494C65.802 6.52539 65.8858 6.51585 66.0083 6.50248C65.9417 6.47194 65.9159 6.46048 65.8407 6.42612C66.2361 6.42612 66.5756 6.42612 66.9173 6.42612C66.971 6.42612 67.029 6.42803 67.0806 6.41466C67.216 6.3803 67.3256 6.40321 67.4094 6.53494C67.3793 6.55021 67.3492 6.56358 67.3127 6.58076C67.3514 6.59603 67.3857 6.60939 67.4201 6.62467ZM20.0924 1.60748C20.1955 1.58267 20.2793 1.5483 20.3653 1.54448C20.6575 1.53494 20.9476 1.37648 21.2463 1.52539C21.2678 1.53685 21.328 1.52921 21.3302 1.51967C21.3645 1.39748 21.4677 1.45475 21.5364 1.45094C21.6697 1.4433 21.8051 1.44521 21.9362 1.46239C22.0071 1.47194 22.0737 1.52157 22.1424 1.55212C22.1338 1.57121 22.1253 1.58839 22.1188 1.60748C21.4505 1.60748 20.7822 1.60748 20.0924 1.60748ZM6.24261 0.815197C6.75835 0.815197 7.28268 0.815197 7.80487 0.815197C7.80487 0.840015 7.80702 0.866743 7.80702 0.891562C7.73825 0.899198 7.67163 0.908744 7.60287 0.912562C7.51476 0.91829 7.42666 0.916381 7.33855 0.922108C7.24185 0.929744 7.14515 0.946926 7.0463 0.952654C6.90232 0.962199 6.7562 0.967928 6.61222 0.969837C6.4618 0.971745 6.31997 0.937381 6.24261 0.815197ZM37.3912 1.33639C37.3912 1.34784 37.3912 1.36121 37.3912 1.37266C37.3374 1.39175 37.273 1.39939 37.2343 1.43376C37.1677 1.49485 37.1763 1.50057 37.1247 1.43566C37.1075 1.41466 37.0624 1.38985 37.0473 1.39748C36.783 1.53876 36.5208 1.38985 36.2651 1.37266C36.1061 1.36121 35.932 1.31157 35.7601 1.29821C35.6957 1.29248 35.6333 1.27721 35.5689 1.26575C35.571 1.2543 35.5732 1.24284 35.5753 1.2333C35.9235 1.2333 36.2694 1.2333 36.6197 1.2333C36.6154 1.25239 36.609 1.29248 36.6025 1.33448C36.8754 1.33639 37.1333 1.33639 37.3912 1.33639ZM17.1441 1.63421C17.1484 1.65521 17.1527 1.6743 17.1548 1.6953C16.6735 1.78694 16.1835 1.7984 15.6849 1.76212C15.816 1.70103 15.9514 1.65903 16.0889 1.62657C16.1255 1.61894 16.1856 1.62658 16.2071 1.64948C16.2974 1.75067 16.3726 1.72203 16.4564 1.64758C16.48 1.62658 16.5166 1.60557 16.5467 1.60748C16.7465 1.61321 16.9442 1.62467 17.1441 1.63421ZM5.34006 1.81558C5.34221 1.8194 5.34221 1.82322 5.34436 1.82894C4.77705 1.89767 4.21188 1.96449 3.64457 2.03322C3.68325 1.96258 3.73912 1.91104 3.79929 1.9034C4.0679 1.86713 4.33866 1.83467 4.60943 1.8194C4.85011 1.80603 5.09509 1.81558 5.34006 1.81558ZM66.1114 6.12639C66.1136 6.11111 66.1157 6.09775 66.1179 6.08248C66.2189 6.07293 66.3263 6.04048 66.423 6.05766C66.5455 6.07866 66.6766 6.05957 66.7883 6.16648C66.8528 6.22757 67.0032 6.22948 67.1128 6.22184C67.2482 6.21421 67.2762 6.2123 67.3514 6.36503C66.9689 6.30966 66.6057 6.25812 66.2447 6.20657C66.2447 6.19893 66.2447 6.19321 66.2468 6.18557C66.3672 6.18557 66.4875 6.18557 66.6078 6.18557C66.6078 6.17793 66.6078 6.16839 66.61 6.16075C66.4424 6.1493 66.2769 6.13784 66.1114 6.12639ZM4.45041 1.75639C4.44827 1.74112 4.44396 1.72585 4.44181 1.71058C4.77919 1.67049 5.11443 1.63039 5.4604 1.58839C5.44106 1.80221 5.62587 1.69149 5.73116 1.7564C5.28849 1.7564 4.86945 1.75639 4.45041 1.75639ZM28.3227 0.870562C28.3292 0.883926 28.3356 0.899199 28.3442 0.912563C28.2368 0.925927 28.1293 0.939292 28.0326 0.950746C28.1315 0.660559 28.4001 0.731196 28.6021 0.715923C28.8234 0.698742 29.077 0.605194 29.2769 0.81138C29.2188 0.824744 29.1565 0.830471 29.1049 0.81138C28.8707 0.715923 28.6343 0.784652 28.3979 0.792289C28.37 0.794198 28.3464 0.843835 28.3227 0.870562ZM7.79413 1.05384C7.40947 1.12829 7.02266 1.24666 6.66164 1.06529C7.02266 1.06911 7.40732 0.950744 7.79413 1.05384ZM66.0921 6.13784C66.0985 6.1512 66.105 6.16457 66.1093 6.17984C66.0856 6.19893 66.0642 6.21611 66.0362 6.23902C66.0706 6.24857 66.1028 6.25812 66.1093 6.26002C66.0899 6.2963 66.0685 6.33448 66.0427 6.38221C65.8278 6.32493 65.585 6.26193 65.3335 6.19511C65.5828 6.03857 65.8471 6.24093 66.0921 6.13784ZM23.8293 1.0462C23.8293 1.03093 23.8272 1.01375 23.8272 0.998475C23.9217 0.998475 24.0184 1.00229 24.113 0.998475C24.3128 0.98702 24.5191 0.988929 24.7125 0.950746C24.8501 0.924018 24.8716 0.910655 24.9124 1.05957C24.5514 1.07293 24.1882 1.12257 23.8293 1.0462ZM32.3305 0.987019C32.1091 0.969837 31.9308 0.956474 31.7567 0.94311C31.7567 0.910655 31.7567 0.878199 31.7567 0.847654C31.8706 0.862926 31.9716 0.874382 32.1263 0.895382C32.0554 0.853381 32.0318 0.838107 31.9952 0.817107C32.3111 0.799925 32.6077 0.784652 32.9042 0.767469C32.9042 0.778924 32.9064 0.792289 32.9064 0.803743C32.6807 0.840016 32.4551 0.874381 32.208 0.914472C32.251 0.9412 32.2724 0.952655 32.3305 0.987019ZM12.9859 0.916382C12.9838 0.89729 12.9816 0.878198 12.9795 0.857198C13.3125 0.834289 13.6478 0.80947 13.9809 0.786561C13.983 0.805653 13.9852 0.822833 13.9873 0.841925C13.665 0.975563 13.319 0.880108 12.9859 0.916382ZM38.197 1.17984C38.4291 1.10539 38.6483 0.994656 38.8825 1.1512C38.8395 1.26766 38.7235 1.2753 38.6182 1.26384C38.4807 1.25048 38.3453 1.2123 38.197 1.17984ZM66.6637 3.51661C66.6164 3.65598 66.0104 3.65025 65.6945 3.51661C66.0212 3.51661 66.3349 3.51661 66.6637 3.51661ZM37.3718 1.2333C37.6189 1.19893 37.8747 1.15884 38.1196 1.2753C37.8639 1.30966 37.6039 1.44521 37.3718 1.2333ZM67.7145 3.95762C67.4975 4.06071 67.3385 3.94426 67.1752 3.82589C67.2568 3.81825 67.3363 3.84307 67.4158 3.85071C67.4502 3.85262 67.4846 3.81443 67.5233 3.80298C67.577 3.7858 67.635 3.77434 67.6909 3.7648C67.7016 3.76289 67.7167 3.78389 67.7403 3.80107C67.7038 3.83353 67.6716 3.86216 67.6372 3.8908C67.6694 3.91753 67.693 3.93853 67.7145 3.95762ZM21.9856 1.09584C21.977 1.07675 21.9705 1.05575 21.9619 1.03666C21.7556 0.988928 21.5343 1.04811 21.328 0.992746C21.6074 0.967927 21.8846 0.943109 22.1639 0.91829C22.1725 0.937381 22.1811 0.958383 22.1897 0.977474C22.1231 1.01757 22.0543 1.05766 21.9856 1.09584ZM18.4291 1.0042C18.4291 0.996565 18.4291 0.987018 18.427 0.979382C18.5516 0.969836 18.6762 0.954564 18.8009 0.948837C18.9255 0.943109 19.0523 0.946927 19.1769 0.946927C19.1683 0.950745 19.1383 0.960291 19.091 0.977474C19.164 1.01757 19.2049 1.04047 19.2779 1.08057C18.9663 1.05384 18.6977 1.02902 18.4291 1.0042ZM22.7613 1.47766C22.5357 1.59603 22.3187 1.58076 22.2499 1.47766C22.4218 1.47766 22.5916 1.47766 22.7613 1.47766ZM72.9729 8.21115C73.3425 8.11188 73.5617 8.12524 73.6219 8.26652C73.4027 8.24933 73.19 8.23024 72.9729 8.21115ZM64.8393 6.64567C64.8371 6.6724 64.835 6.69912 64.8328 6.72394C64.5836 6.69149 64.3343 6.65903 64.085 6.62658C64.1774 6.59603 64.2698 6.5903 64.3601 6.59794C64.4503 6.60558 64.5384 6.62658 64.6265 6.63612C64.6974 6.64567 64.7684 6.64376 64.8393 6.64567ZM9.40366 1.18557C9.40151 1.20466 9.40151 1.22184 9.39937 1.24093C9.20596 1.32493 9.04694 1.20657 8.87073 1.17411C8.87502 1.15311 8.87718 1.13211 8.88148 1.1092C9.05769 1.13402 9.2296 1.15884 9.40366 1.18557ZM50.6156 1.50057C50.7983 1.50057 50.9809 1.50057 51.2151 1.50057C51.0024 1.60939 51.0024 1.60939 50.6156 1.50057ZM15.6892 1.12257C15.917 1.00038 16.0223 1.01184 16.1706 1.17602C16.0073 1.15693 15.859 1.14166 15.6892 1.12257ZM66.653 5.25392C66.8141 5.25392 66.9603 5.25392 67.1128 5.25392C67.0613 5.3971 66.8807 5.3971 66.653 5.25392ZM7.8457 0.883925C8.05629 0.868652 8.21531 0.857198 8.39797 0.843834C8.2282 1.04429 8.06274 0.956472 7.8457 0.883925ZM66.2576 11.3211C66.2576 11.3326 66.2576 11.344 66.2576 11.3536C66.1028 11.3536 65.946 11.3536 65.7891 11.3536C65.7955 11.3402 65.8063 11.3097 65.8149 11.2868C65.9653 11.2982 66.1114 11.3097 66.2576 11.3211ZM23.3781 0.861017C23.3824 0.87629 23.3867 0.891563 23.391 0.906836C23.1675 0.935473 22.9461 0.964109 22.7227 0.994655C22.7205 0.983201 22.7205 0.971746 22.7184 0.960291C22.9375 0.927836 23.1567 0.895381 23.3781 0.861017ZM67.2095 3.96717C66.9946 3.96717 66.7991 3.96717 66.5627 3.96717C66.7991 3.90989 66.9946 3.86598 67.2095 3.96717ZM22.6711 1.6934C22.5164 1.74685 22.4025 1.78885 22.2843 1.82131C22.2692 1.82513 22.237 1.77549 22.2112 1.75067C22.237 1.73158 22.2606 1.69721 22.2886 1.6953C22.396 1.68958 22.5035 1.6934 22.6711 1.6934ZM57.7715 1.79267C57.765 1.80413 57.7607 1.81749 57.7543 1.82895C57.6254 1.80222 57.4964 1.77549 57.389 1.75449C57.4105 1.71058 57.4277 1.67431 57.4534 1.62467C57.5502 1.67431 57.6619 1.73349 57.7715 1.79267Z" fill="url(#paint0_linear_6582_1931)"/>
<defs>
<linearGradient id="paint0_linear_6582_1931" x1="75.4955" y1="15.002" x2="2.4161" y2="-5.68918" gradientUnits="userSpaceOnUse">
<stop stop-color="#533CA3"/>
<stop offset="0.294518" stop-color="#BF5AB8"/>
<stop offset="0.682384" stop-color="#ED641F"/>
<stop offset="1" stop-color="#FFE322"/>
</linearGradient>
</defs>
</svg>
