<!-- icon666.com - MILLIONS vector ICONS FREE --><svg id="Capa_1" enable-background="new 0 0 512 512" viewBox="0 0 512 512" xmlns="http://www.w3.org/2000/svg"><g><path d="m0 75v437h256l31-239-31-198-119-37z" fill="#e6f8fc"></path><path d="m512 75-121-28-135 28v437h256z" fill="#d0e8ff"></path><path d="m246.594 190h-135.875c-19.144 0-34.719 15.575-34.719 34.719v89.125c0 19.144 15.575 34.719 34.719 34.719h59.281l86-67.651 11-45.912-11-43.694c-2.994-.845-6.146-1.306-9.406-1.306z" fill="#ff637b"></path><path d="m281.312 224.719c0-15.884-10.726-29.301-25.312-33.413v89.606l25.312-19.912z" fill="#e53950"></path><path d="m188.062 246.719c-19.144 0-34.719 15.575-34.719 34.719v89.125c0 19.144 15.575 34.719 34.719 34.719h58.938l9-7.116 15-81.166-15-70.281z" fill="#00ddc0"></path><path d="m358.656 281.438c0-19.144-15.575-34.719-34.719-34.719h-67.937v151.447l102.656-81.166z" fill="#00b5bd"></path><path d="m60 120h49v30h-49z" fill="#ff637b"></path><path d="m230.688 338.156v89.125c0 15.884 10.726 29.301 25.312 33.413l18-74.694-18-81.257c-14.586 4.112-25.312 17.53-25.312 33.413z" fill="#ffd92e"></path><path d="m401.281 303.438h-135.875c-3.26 0-6.413.461-9.406 1.306v155.951c2.994.844 6.146 1.306 9.406 1.306h135.875c19.144-.001 34.719-15.576 34.719-34.72v-89.125c0-19.143-15.575-34.718-34.719-34.718z" fill="#ffb54c"></path><path d="m0 0v75h256l14-36-14-39z" fill="#6354b1"></path><path d="m256 0h256v75h-256z" fill="#54469c"></path><path d="m139 150h117l10-15-10-15h-117z" fill="#6354b1"></path><path d="m256 120h87v30h-87z" fill="#54469c"></path></g></svg>