<!-- icon666.com - MILLIONS vector ICONS FREE --><svg id="Layer_35" enable-background="new 0 0 64 64" viewBox="0 0 64 64" xmlns="http://www.w3.org/2000/svg" xmlns:xlink="http://www.w3.org/1999/xlink"><linearGradient id="SVGID_1_" gradientUnits="userSpaceOnUse" x1="31.793" x2="31.793" y1="63.414" y2="1"><stop offset="0" stop-color="#9f2fff"></stop><stop offset="1" stop-color="#0bb1d3"></stop></linearGradient><path d="m63 19c0-7.168-5.832-13-13-13-3.479 0-6.636 1.381-8.971 3.615l-8.615-8.615h-20.414v2h19.586l8.108 8.108c-1.682 2.191-2.694 4.922-2.694 7.892 0 2.389.647 4.691 1.871 6.715l-3.144 3.144c-.486-1.093-1.577-1.859-2.848-1.859-.36 0-.707.072-1.037.188-.4-1.263-1.569-2.188-2.963-2.188-.808 0-1.565.31-2.147.865-.485-1.096-1.579-1.865-2.853-1.865-.834 0-1.618.325-2.207.914l-7.28 7.279c-.839.84-1.455 1.887-1.781 3.027l-1.146 4.01c-.233.814-.673 1.562-1.272 2.162l-1.193 1.194-1-1-7.414 7.414 14.414 14.414 7.414-7.414-1-1 1.194-1.193c.599-.6 1.347-1.04 2.162-1.271l4.553-1.302c.737-.211 1.43-.539 2.061-.975l11.054-7.653c.978-.677 1.562-1.792 1.562-2.981 0-1.999-1.626-3.625-3.625-3.625h-.701l-8.289 6.028 11.9-11.9c.627.379 1.279.705 1.954.971l1.872 15.901h15.889v-2h-2v-11h-2v11h-2v-5h-2v5h-2v-7h-2v7h-2.111l-1.563-13.282c.873.182 1.766.282 2.674.282 7.168 0 13-5.832 13-13zm-45 38.586-8.293-8.293-1.414 1.414 8.293 8.293-1.586 1.586-11.586-11.586 1.586-1.586 2.293 2.293 1.414-1.414-2.293-2.293 1.586-1.586 11.586 11.586zm11.325-11.586 11-8h.05c.896 0 1.625.729 1.625 1.625 0 .533-.262 1.032-.7 1.336l-11.054 7.653c-.451.312-.946.546-1.473.696l-4.551 1.301c-1.142.325-2.188.941-3.028 1.781l-1.194 1.194-9.586-9.586 1.194-1.193c.839-.84 1.455-1.887 1.781-3.027l1.146-4.01c.233-.814.673-1.562 1.272-2.162l7.279-7.279c.212-.212.493-.329.793-.329.618 0 1.121.503 1.121 1.121 0 .3-.117.581-.328.793l-6.379 6.379 1.414 1.414 6.379-6.379 2-2c.212-.211.493-.328.793-.328.618 0 1.121.503 1.121 1.121 0 .3-.117.581-.328.793l-8.379 8.379 1.414 1.414 8.379-8.379 1-1c.212-.211.493-.328.793-.328.618 0 1.121.503 1.121 1.121 0 .3-.117.581-.328.793l-9.379 9.379 1.414 1.414 9.379-9.379 12-12c.212-.211.493-.328.793-.328.618 0 1.121.503 1.121 1.121 0 .3-.117.581-.328.793l-21.672 21.672v2.414zm13.675-27c0-3.86 3.14-7 7-7s7 3.14 7 7-3.14 7-7 7c-.756 0-1.502-.136-2.213-.373l2.299-2.299c.589-.589.914-1.373.914-2.207 0-1.721-1.4-3.121-3.121-3.121-.834 0-1.618.325-2.207.914l-2.299 2.299c-.237-.711-.373-1.456-.373-2.213zm3.25 8.164c1.172.538 2.451.836 3.75.836 4.962 0 9-4.038 9-9s-4.038-9-9-9-9 4.038-9 9c0 1.3.297 2.578.836 3.75l-1.497 1.497c-.875-1.603-1.339-3.394-1.339-5.247 0-6.065 4.935-11 11-11s11 4.935 11 11-4.935 11-11 11c-1.853 0-3.643-.464-5.248-1.338zm-14.25-22.164h-20v14h20zm-2 12h-16v-10h16zm-2-6h-12v-2h12zm0 4h-12v-2h12z" fill="url(#SVGID_1_)"></path></svg>