<svg width="32" height="32" viewBox="0 0 32 32" fill="currentColor" xmlns="http://www.w3.org/2000/svg">
<g opacity="0.7">
<path d="M29.9208 8.91328C28.5347 6.47889 26.6546 4.55159 24.28 3.13092C21.905 1.71019 19.3123 1 16.4999 1C13.6878 1 11.0942 1.7104 8.71971 3.13092C6.34487 4.55151 4.46485 6.47889 3.0788 8.91328C1.69296 11.3476 1 14.0059 1 16.8881C1 20.3503 1.98539 23.4635 3.95667 26.2287C5.92774 28.9941 8.47407 30.9076 11.5954 31.9695C11.9588 32.0387 12.2278 31.99 12.4026 31.8249C12.5776 31.6595 12.665 31.4525 12.665 31.2045C12.665 31.1631 12.6615 30.7909 12.6548 30.0874C12.6479 29.3838 12.6446 28.7701 12.6446 28.2464L12.1804 28.3287C11.8844 28.3843 11.511 28.4079 11.0603 28.4012C10.6097 28.3948 10.142 28.3464 9.65767 28.2564C9.17317 28.1672 8.72254 27.9603 8.30541 27.6362C7.88849 27.3121 7.59252 26.8878 7.41756 26.364L7.21575 25.888C7.08123 25.571 6.86945 25.219 6.58012 24.833C6.29079 24.4467 5.99822 24.1849 5.70225 24.047L5.56094 23.9433C5.46678 23.8744 5.37941 23.7913 5.29862 23.6948C5.21789 23.5984 5.15745 23.5019 5.11709 23.4052C5.07666 23.3085 5.11016 23.2291 5.21796 23.1669C5.32576 23.1046 5.52058 23.0744 5.80326 23.0744L6.20675 23.1362C6.47586 23.1915 6.80873 23.3566 7.20578 23.6326C7.60263 23.9084 7.92885 24.267 8.18453 24.7081C8.49414 25.2737 8.86717 25.7047 9.30465 26.0013C9.74179 26.2979 10.1825 26.4459 10.6265 26.4459C11.0704 26.4459 11.4538 26.4114 11.7768 26.3428C12.0995 26.2738 12.4023 26.1701 12.685 26.0323C12.806 25.1079 13.1357 24.3977 13.6737 23.9013C12.9069 23.8187 12.2175 23.6942 11.6051 23.5288C10.9931 23.3632 10.3607 23.0943 9.70821 22.7216C9.05541 22.3494 8.51387 21.8871 8.08345 21.3357C7.65296 20.784 7.29966 20.0597 7.02404 19.1634C6.74829 18.2668 6.61038 17.2325 6.61038 16.0602C6.61038 14.3911 7.14195 12.9707 8.20489 11.7983C7.70696 10.5434 7.75397 9.13668 8.34605 7.57819C8.73625 7.45392 9.3149 7.54718 10.0817 7.85738C10.8487 8.16773 11.4102 8.43359 11.7669 8.65402C12.1236 8.87437 12.4094 9.0611 12.6247 9.21254C13.8763 8.85408 15.1678 8.67481 16.4997 8.67481C17.8316 8.67481 19.1234 8.85408 20.3751 9.21254L21.1419 8.71626C21.6664 8.38512 22.2857 8.08165 22.9984 7.80579C23.7115 7.53008 24.2568 7.45414 24.6337 7.57841C25.2389 9.13697 25.2928 10.5436 24.7948 11.7985C25.8576 12.9709 26.3894 14.3917 26.3894 16.0604C26.3894 17.2327 26.251 18.2703 25.9757 19.1738C25.7 20.0774 25.3437 20.801 24.9065 21.3461C24.4689 21.8911 23.9239 22.3497 23.2714 22.7218C22.6188 23.0943 21.9862 23.3631 21.3742 23.5287C20.7619 23.6944 20.0724 23.8189 19.3056 23.9016C20.005 24.522 20.3548 25.5013 20.3548 26.8391V31.2039C20.3548 31.4519 20.4389 31.6589 20.6073 31.8243C20.7754 31.9895 21.041 32.0381 21.4043 31.9689C24.5261 30.9071 27.0725 28.9935 29.0435 26.2281C31.0143 23.4629 32 20.3497 32 16.8875C31.9993 14.0057 31.306 11.3476 29.9208 8.91328Z" fill="currentColor"/>
</g>
</svg>
