<!-- icon666.com - MILLIONS vector ICONS FREE --><svg viewBox="0 0 512 512" xmlns="http://www.w3.org/2000/svg" xmlns:xlink="http://www.w3.org/1999/xlink"><linearGradient id="a" gradientUnits="userSpaceOnUse" x1="0" x2="512" y1="256" y2="256"><stop offset="0" stop-color="#80d8ff"></stop><stop offset="1" stop-color="#ea80fc"></stop></linearGradient><path d="m460.632812 257.289062c-16.839843-8.421874-27.296874-25.34375-27.296874-44.167968v-35.789063c-.003907-97.671875-78.949219-177.332031-177.425782-177.332031-97.734375.0507812-177.242187 80.277344-177.242187 178.839844v34.28125c0 18.824218-10.460938 35.746094-27.296875 44.167968-31.6875 15.84375-51.371094 47.691407-51.371094 83.117188 0 51.238281 41.6875 92.925781 92.929688 92.925781h46.773437c9.273437 44.851563 49.074219 78.667969 96.628906 78.667969h39.332031c47.558594 0 87.359376-33.816406 96.628907-78.667969h46.777343c51.242188 0 92.929688-41.6875 92.929688-92.925781 0-35.425781-19.683594-67.273438-51.367188-83.117188zm-184.964843 214.710938h-39.332031c-25.332032 0-46.957032-16.136719-55.152344-38.667969h149.636718c-8.199218 22.53125-29.824218 38.667969-55.152343 38.667969zm143.402343-78.667969h-326.140624c-29.1875 0-52.929688-23.742187-52.929688-52.925781 0-20.179688 11.210938-38.316406 29.257812-47.339844 30.476563-15.238281 49.410157-45.875 49.410157-79.945312v-34.28125c0-76.464844 61.535156-138.839844 137.332031-138.839844 75.878906 0 137.332031 61.398438 137.332031 137.332031v35.789063c0 34.070312 18.933594 64.707031 49.410157 79.945312 18.046874 9.023438 29.257812 27.160156 29.257812 47.339844 0 29.183594-23.742188 52.925781-52.929688 52.925781zm0 0" fill="url(#a)"></path></svg>