<!-- icon666.com - MILLIONS vector ICONS FREE --><svg viewBox="0 0 60 60.012427" xmlns="http://www.w3.org/2000/svg" xmlns:xlink="http://www.w3.org/1999/xlink"><linearGradient id="a"><stop offset="0" stop-color="#20d6de"></stop><stop offset="1" stop-color="#5e309d"></stop></linearGradient><linearGradient id="b" gradientUnits="userSpaceOnUse" x1="1.006214" x2="63.656214" xlink:href="#a" y1="30" y2="30"></linearGradient><linearGradient id="c" gradientUnits="userSpaceOnUse" x1="1.006214" x2="63.656214" xlink:href="#a" y1="24" y2="24"></linearGradient><linearGradient id="d" gradientUnits="userSpaceOnUse" x1="1.006214" x2="63.656214" xlink:href="#a" y1="23" y2="23"></linearGradient><linearGradient id="e" gradientUnits="userSpaceOnUse" x1="1.006214" x2="63.656214" xlink:href="#a" y1="27" y2="27"></linearGradient><linearGradient id="f" gradientUnits="userSpaceOnUse" x1="1.006214" x2="63.656214" xlink:href="#a" y1="31" y2="31"></linearGradient><linearGradient id="g" gradientUnits="userSpaceOnUse" x1="1.006214" x2="63.656214" xlink:href="#a" y1="35" y2="35"></linearGradient><path d="m.0078125 6h2.9999995v40h20v4h6v4.183594c-1.378906.488281-2.207031 1.894531-1.957031 3.335937.246094 1.441407 1.496094 2.492188 2.957031 2.492188 1.460938 0 2.707032-1.050781 2.957032-2.492188.246094-1.441406-.582032-2.847656-1.957032-3.335937v-4.183594h6v-4h20v-40h3v-6h-59.9999995zm29.9999995 52c-.554687 0-1-.449219-1-1s.445313-1 1-1c.550782 0 1 .449219 1 1s-.449218 1-1 1zm5-10h-10v-2h10zm20-4h-50v-38h50zm-53-42h56v2h-56zm0 0" fill="url(#b)"></path><path d="m21.007812 32h-6v-2h6v-8h-6v-2h30v2h-6v8h6v2h-6v8h14v-8h-6v-2h6v-8h-6v-4h-16v-2h10v-8h-22v8h10v2h-16v4h-6v8h6v2h-6v8h14zm30 6h-10v-4h10zm0-10h-10v-4h10zm-30-18h18v4h-18zm-12 14h10v4h-10zm10 14h-10v-4h10zm0 0" fill="url(#c)"></path><path d="m24.007812 22h4v2h-4zm0 0" fill="url(#d)"></path><path d="m30.007812 22h2v2h-2zm0 0" fill="url(#d)"></path><path d="m24.007812 26h6v2h-6zm0 0" fill="url(#e)"></path><path d="m32.007812 26h4v2h-4zm0 0" fill="url(#e)"></path><path d="m24.007812 30h12v2h-12zm0 0" fill="url(#f)"></path><g fill="url(#g)"><path d="m24.007812 34h2v2h-2zm0 0"></path><path d="m28.007812 34h2v2h-2zm0 0"></path><path d="m32.007812 34h4v2h-4zm0 0"></path></g></svg>