<!-- icon666.com - MILLIONS vector ICONS FREE --><svg viewBox="0 0 495 496" xmlns="http://www.w3.org/2000/svg"><path d="m403.300781 212.398438h-260.800781c-12.398438-20.796876-35.601562-34.398438-61.601562-34.398438-39.597657 0-72 31.601562-72 70.398438 0 38.800781 32 70.402343 72 70.402343 26.402343 0 49.203124-14 61.601562-34.402343h261.199219l30.402343-35.597657zm0 0" fill="#f8bc5c"></path><path d="m80.5 326.398438c-44 0-80-35.199219-80-78.398438s36-78.398438 80-78.398438c26.398438 0 51.199219 13.199219 66 34.398438h256.800781c2.398438 0 4.398438 1.199219 6 2.800781l30.398438 35.597657c2.402343 2.800781 2.402343 7.203124 0 10.402343l-30.398438 35.597657c-1.601562 1.601562-3.601562 2.800781-6 2.800781h-256.402343c-14.796876 22-40 35.199219-66.398438 35.199219zm0-140.796876c-35.199219 0-64 28-64 62.398438s28.800781 62.398438 64 62.398438c22.398438 0 43.601562-11.597657 54.800781-30.796876 1.597657-2.402343 4-4 6.800781-4h257.199219l23.597657-27.601562-23.597657-27.601562h-256.800781c-2.800781 0-5.199219-1.597657-6.800781-4-11.597657-18.796876-32.800781-30.796876-55.199219-30.796876zm0 0" fill="#173851"></path><path d="m80.5 298.398438c-28.398438 0-52-22.398438-52-50.398438s23.199219-50.398438 52-50.398438c18.398438 0 35.199219 9.597657 44.800781 24.796876l6 9.601562h263.199219l13.199219 15.601562-13.199219 15.597657h-263.199219l-6 9.601562c-9.199219 16-26.402343 25.597657-44.800781 25.597657zm0 0" fill="#fff"></path><path d="m104.101562 270.800781h-37.601562c.398438-.800781.800781-1.199219 1.199219-2 2.800781-3.199219 8-7.199219 16-11.199219 7.601562-4 12.800781-8 16-11.601562 2.800781-3.601562 4.402343-8.398438 4.402343-14 0-6.800781-2.402343-12-6.800781-16.398438-4.800781-4-10.402343-6.402343-17.601562-6.402343-8.398438 0-14.800781 2.402343-19.597657 7.199219-4.800781 4.800781-7.203124 11.203124-6.800781 19.601562v2h12.800781v-2c0-4.800781 1.199219-8.800781 3.597657-11.601562 2-2.398438 5.199219-3.597657 8.800781-3.597657s6.800781.800781 9.199219 3.199219c2.402343 2 3.199219 4.398438 3.199219 7.601562 0 3.199219-.796876 5.597657-2.398438 7.597657s-4.800781 4.402343-9.601562 6.800781c-10.796876 5.601562-17.597657 10.800781-21.597657 16s-6 11.601562-6 19.199219v2h53.199219v-12.398438zm0 0" fill="#173851"></path><path d="m458.101562 382h-315.601562c-12.398438-20.800781-35.601562-34.398438-61.601562-34.398438-39.597657 0-72 31.597657-72 70.398438s32 70.398438 72 70.398438c26.402343 0 49.203124-14 61.601562-34.398438h315.601562l30.398438-35.601562zm0 0" fill="#28a7e6" style="fill: rgb(131, 0, 139);"></path><path d="m80.898438 496c-44 0-80-35.199219-80-78.398438 0-43.203124 36-78.402343 80-78.402343 26.402343 0 51.203124 13.199219 66 34.402343h311.203124c2.398438 0 4.398438 1.199219 6 2.796876l30.398438 35.601562c2.398438 2.800781 2.398438 7.199219 0 10.398438l-30.398438 35.601562c-1.601562 1.601562-3.601562 2.800781-6 2.800781h-311.203124c-14.796876 22-39.597657 35.199219-66 35.199219zm0-140.398438c-35.199219 0-64 28-64 62.398438s28.800781 62.398438 64 62.398438c22.402343 0 43.601562-11.597657 54.800781-30.796876 1.601562-2.402343 4-4 6.800781-4h312l23.601562-27.601562-23.601562-27.601562h-312c-2.800781 0-5.199219-1.597657-6.800781-4-11.199219-19.199219-32.398438-30.796876-54.800781-30.796876zm0 0" fill="#173851"></path><path d="m80.898438 468c-28.398438 0-52-22.398438-52-50.398438s23.203124-50.402343 52-50.402343c18.402343 0 35.203124 9.601562 44.800781 24.800781l6 9.601562h317.601562l13.199219 15.597657-13.199219 15.601562h-318l-6 9.597657c-9.199219 16-26.402343 25.601562-44.402343 25.601562zm0 0" fill="#fff"></path><path d="m98.101562 416c-.800781-.398438-1.203124-.800781-2-1.199219 4.796876-3.601562 6.796876-8.800781 6.796876-14.800781s-2.398438-10.800781-6.796876-14.800781c-4.402343-3.597657-10.402343-5.597657-17.601562-5.597657-7.601562 0-14 2.398438-18 6.796876-4.398438 4.402343-6.398438 10.402343-6.398438 18.402343v2h12.796876v-2c.402343-4.402343 1.203124-8 3.203124-10s4.398438-3.199219 8-3.199219c3.597657 0 6.398438.796876 8.398438 2.796876 2 1.601562 3.199219 4 3.199219 6.402343 0 2.800781-.800781 5.199219-2.800781 6.800781-1.597657 1.199219-3.597657 2-6 2.398438-1.597657 0-2.796876.398438-4.398438.398438s-2.398438 0-2.800781 0l-2.398438-.398438v12.800781l2.398438-.800781h2.402343 4.796876c3.203124.398438 5.601562 1.199219 7.601562 2.800781 2.398438 2 3.199219 4.800781 3.199219 8.398438 0 3.199219-1.199219 6-3.597657 8-2.402343 2-5.601562 3.199219-9.601562 3.199219-4.398438 0-8-.796876-10-2.796876s-3.199219-5.601562-4-10.402343v-2h-13.199219v2c.398438 8.402343 2.800781 14.402343 7.199219 18.800781 4.398438 4 11.199219 6.398438 19.601562 6.398438 7.597657 0 14.398438-2.398438 19.199219-6.796876 5.199219-4.402343 7.597657-10.402343 7.597657-17.601562.800781-7.199219-1.597657-12.398438-6.796876-16zm0 0" fill="#173851"></path><path d="m352.898438 42.398438h-210.796876c-12.402343-20.398438-35.601562-34.398438-61.601562-34.398438-40 0-72 31.601562-72 70.398438 0 38.800781 32 70.402343 72 70.402343 26.398438 0 49.199219-14 61.601562-34.402343h210.796876l30.402343-35.597657zm0 0" fill="#45c9a5"></path><path d="m80.5 156.398438c-44 0-80-35.199219-80-78.398438s36-78 80-78c26.398438 0 51.199219 13.199219 66 34.398438h206.398438c2.402343 0 4.402343 1.203124 6 2.800781l30.402343 35.601562c2.398438 2.800781 2.398438 7.199219 0 10.398438l-30.402343 35.601562c-1.597657 1.597657-3.597657 2.800781-6 2.800781h-206.398438c-14.800781 21.597657-39.601562 34.796876-66 34.796876zm0-140.398438c-35.199219 0-64 28-64 62.398438 0 34.402343 28.800781 62.402343 64 62.402343 22.398438 0 43.601562-11.601562 54.800781-30.800781 1.597657-2.398438 4-4 6.800781-4h206.796876l23.601562-27.601562-23.601562-27.597657h-206.796876c-2.800781 0-5.203124-1.601562-6.800781-4-11.601562-19.199219-32.402343-30.800781-54.800781-30.800781zm0 0" fill="#173851"></path><path d="m80.5 128.398438c-28.398438 0-52-22.398438-52-50.398438s23.199219-50 52-50c18.398438 0 35.199219 9.199219 44.800781 24.800781l6 9.597657h212.800781l13.199219 15.601562-13.199219 15.601562h-213.203124l-6 9.597657c-9.199219 15.601562-26.398438 25.199219-44.398438 25.199219zm0 0" fill="#fff"></path><path d="m75.699219 116.398438h13.601562v-74h-10.800781l-.398438 1.203124c-1.203124 4-3.601562 7.199219-6 9.199219-2.800781 2-6.402343 2.800781-10.800781 2.800781h-2v11.199219h16.800781v49.597657zm0 0" fill="#173851"></path></svg>