<!-- icon666.com - MILLIONS vector ICONS FREE --><svg id="_x33_0" enable-background="new 0 0 64 64" viewBox="0 0 64 64" xmlns="http://www.w3.org/2000/svg" xmlns:xlink="http://www.w3.org/1999/xlink"><linearGradient id="SVGID_1_" gradientUnits="userSpaceOnUse" x1="32" x2="32" y1="63" y2="1"><stop offset="0" stop-color="#9f2fff"></stop><stop offset="1" stop-color="#0bb1d3"></stop></linearGradient><path d="m13 41h2c0 .552.449 1 1 1s1-.448 1-1h2c0 1.654-1.346 3-3 3s-3-1.346-3-3zm42.024-15.012c-.012.404.058.807.215 1.187.466 1.128 1.507 1.825 2.672 1.825h3.089v14h-3.089c-1.166 0-2.207.697-2.651 1.775-.468 1.129-.226 2.359.598 3.183l2.184 2.185-9.899 9.898-2.184-2.184c-.824-.825-2.054-1.067-3.132-.618-1.13.466-1.827 1.507-1.827 2.672v3.089h-40v-5.262c0-3.8 2.705-7.099 6.431-7.844l2.412-.482c.794-.159 1.41-.775 1.569-1.569l.269-1.345c-.844-.665-1.529-1.518-1.996-2.497h-.685c-2.206 0-4-1.794-4-4 0-.933.334-1.78.871-2.461-.306-.953-.871-2.932-.871-4.54 0-2.226 1.508-4.158 3.668-4.697l.729-.183c.903-1.216 2.129-2.122 3.515-2.636-.114-.541-.374-1.046-.77-1.442l-2.184-2.185 9.899-9.898 2.184 2.184c.823.824 2.054 1.066 3.133.618 1.129-.466 1.826-1.507 1.826-2.672v-3.089h11.003c1.963-4.693 6.6-8 11.997-8 7.168 0 13 5.832 13 13 0 5.388-3.295 10.019-7.976 11.988zm3.424-4.954c1.391-1.667 2.295-3.751 2.502-6.034h-1.95v-2h1.949c-.207-2.283-1.111-4.366-2.502-6.034l-1.377 1.377-1.414-1.414 1.377-1.377c-1.667-1.391-3.75-2.294-6.033-2.501v1.949h-2v-1.949c-2.283.207-4.366 1.111-6.034 2.501l1.377 1.377-1.414 1.414-1.377-1.377c-1.391 1.667-2.295 3.751-2.502 6.034h1.95v2h-1.949c.207 2.283 1.111 4.366 2.502 6.034l1.377-1.377 1.414 1.414-1.377 1.377c1.667 1.391 3.751 2.294 6.034 2.501v-1.949h2v1.949c2.283-.207 4.366-1.111 6.034-2.501l-1.377-1.377 1.414-1.414zm-11.448 15.966h-4v13.396c1.506-.945 2.859-2.109 4-3.464zm2-2v8.983c1.273-2.382 2-5.098 2-7.983 0-3.253-.925-6.394-2.662-9.118-4.464-.574-8.217-3.415-10.077-7.333-1.385-.359-2.815-.549-4.261-.549-5.192 0-10.039 2.358-13.255 6.366 3.612 1.075 6.255 4.421 6.255 8.377 0 .941-.151 1.871-.449 2.766l-.366 1.098c.505.669.815 1.492.815 2.393 0 .732-.212 1.409-.556 2h2.556v10.24c.657.202 1.323.369 2 .489v-23.729h8v23.247c.688-.212 1.352-.479 2-.773v-16.474zm-12-4h-4v21.959c.333.02.665.041 1 .041 1.025 0 2.024-.107 3-.281zm-8 26.738c0-2.766-1.919-5.164-4.587-5.814l-3.025 9.076h7.612zm-6.08-15.738h.08c1.103 0 2-.897 2-2s-.897-2-2-2v3c0 .34-.033.672-.08 1zm4.08 2h-4v5.581l1.569.314c.875.175 1.69.495 2.431.925zm-8.856 12.271 1.356 4.067 1.31-3.929-1.682-1.121zm2.856-10.382c-.213.218-.441.419-.681.608l.269 1.345c.064.32.218.598.412.842zm-3.13 6.156 3.596 2.397.978-2.933-.678-.136c-.591-.119-1.133-.364-1.596-.707zm-1.87 1.157-1.43.954.844.844h1.171l.845-.845zm-4.81 3.206 1.31 3.929 1.356-4.067-.983-.984zm3.197 4.592h3.225l-1.333-4h-.559zm.468-35.956c.248-.024.498-.044.75-.044h2.651c.085 0 .168.01.253.013 3.567-5.025 9.311-8.013 15.491-8.013 1.162 0 2.314.116 3.447.323-.282-1.063-.447-2.173-.447-3.323 0-1.034.134-2.035.363-3h-8.363v1.089c0 1.979-1.183 3.745-3.013 4.5-1.875.777-3.96.366-5.359-1.032l-.77-.77-7.071 7.07.77.771c.663.664 1.101 1.51 1.298 2.416zm-7.855 7.956c0 1.045.313 2.352.578 3.273.443-.169.919-.273 1.422-.273h.184c.414-1.161 1.514-2 2.816-2h4c.551 0 1-.448 1-1s-.449-1-1-1h-1v-2h1c1.374 0 2.536.929 2.889 2.191l.323.08c1.855.465 3.23 1.928 3.645 3.729h.143c.535 0 1.045.11 1.512.301l.142-.425c.229-.689.346-1.407.346-2.133 0-3.718-3.025-6.743-6.744-6.743h-2.651c-1.922 0-3.707.955-4.773 2.555l-.214.321-1.464.366c-1.269.318-2.154 1.451-2.154 2.758zm2.08 9c-.047-.328-.08-.66-.08-1v-3c-1.103 0-2 .897-2 2s.897 2 2 2zm6.92 4c2.757 0 5-2.243 5-5v-3.877c0-1.374-.928-2.567-2.258-2.907-.467 1.05-1.52 1.784-2.742 1.784h-4c-.551 0-1 .448-1 1v4c0 2.757 2.243 5 5 5zm-2.487 1.535-.14.7c-.06.3-.162.582-.283.852l2.91 1.747 2.911-1.746c-.121-.271-.223-.553-.283-.852l-.14-.7c-.775.295-1.611.464-2.488.464s-1.713-.169-2.487-.465zm-3.956 3.974.978 2.933 3.596-2.397-2.299-1.379c-.464.343-1.005.589-1.596.707zm-6.557 9.491h7.612l-3.025-9.075c-2.668.649-4.587 3.047-4.587 5.813zm50.057-34.378c-.76.184-1.546.299-2.351.342 1.499 2.765 2.294 5.851 2.294 9.036 0 10.477-8.523 19-19 19-1.229 0-2.443-.131-3.637-.362.407.961.637 2.008.637 3.1v3.262h8v-1.089c0-1.979 1.183-3.745 3.013-4.5 1.875-.777 3.961-.366 5.359 1.032l.77.77 7.071-7.07-.77-.771c-1.398-1.398-1.811-3.484-1.051-5.314.774-1.875 2.54-3.058 4.519-3.058h1.089v-10h-1.089c-1.979 0-3.745-1.183-4.5-3.014-.186-.449-.3-.906-.354-1.364zm1.236-18.329 1.414 1.414-3.008 3.008c.188.391.301.823.301 1.285 0 1.654-1.346 3-3 3s-3-1.346-3-3c0-.462.113-.894.301-1.285l-2.008-2.008 1.414-1.414 2.008 2.008c.391-.188.823-.301 1.285-.301s.894.113 1.285.301zm-3.293 5.707c0-.552-.449-1-1-1s-1 .448-1 1 .449 1 1 1 1-.448 1-1zm-17 1c.552 0 1-.448 1-1s-.448-1-1-1-1 .448-1 1 .448 1 1 1zm-15.556 6.444c.256 0 .512-.098.707-.293.391-.391.391-1.024 0-1.414-.195-.195-.451-.293-.707-.293s-.512.098-.707.293c-.391.391-.391 1.024 0 1.414.195.195.451.293.707.293zm15.556 35.556c-.552 0-1 .448-1 1s.448 1 1 1 1-.448 1-1-.448-1-1-1zm15.556-6.444c-.256 0-.512.098-.707.293-.391.391-.391 1.024 0 1.414.195.195.451.293.707.293s.512-.098.707-.293c.391-.391.391-1.024 0-1.414-.195-.195-.451-.293-.707-.293zm6.444-13.556c.552 0 1-.448 1-1s-.448-1-1-1-1 .448-1 1 .448 1 1 1zm-27-12h2v-2h-2zm4 0h2v-2h-2zm4 0h2v-2h-2z" fill="url(#SVGID_1_)"></path></svg>