<svg version="1.1" id="Layer_1" xmlns="http://www.w3.org/2000/svg" xmlns:xlink="http://www.w3.org/1999/xlink" x="0px" y="0px" viewBox="0 0 297.001 297.001" style="enable-background:new 0 0 297.001 297.001;" xml:space="preserve"><g><g><g><path d="M287.116,40.77H146.455l-13.576-27.152c-1.675-3.349-5.096-5.464-8.84-5.464H58.807c-5.458,0-9.884,4.425-9.884,9.884 v55.348H9.884C4.425,73.385,0,77.811,0,83.269v195.694c0,5.458,4.425,9.884,9.884,9.884h228.309c5.458,0,9.884-4.425,9.884-9.884 v-55.348h39.04c5.458,0,9.884-4.425,9.884-9.884V50.653C297,45.195,292.575,40.77,287.116,40.77z M228.309,269.079H19.767V93.152 h49.239l13.576,27.152c1.675,3.349,5.096,5.464,8.84,5.464h136.887V269.079z M277.233,203.848h-29.156v-87.963 c0-5.458-4.425-9.884-9.884-9.884H97.531L83.955,78.849c-1.675-3.349-5.096-5.464-8.84-5.464h-6.424V27.921h49.239l13.576,27.152 c1.675,3.349,5.096,5.464,8.84,5.464h136.887V203.848z" fill="currentColor"></path><path d="M81.539,197.424c0,5.459,4.425,9.884,9.884,9.884h22.732v22.732c0,5.458,4.425,9.884,9.884,9.884 c5.458,0,9.884-4.425,9.884-9.884v-22.732h22.732c5.458,0,9.884-4.425,9.884-9.884c0-5.459-4.425-9.884-9.884-9.884h-22.732 v-22.732c0-5.458-4.425-9.884-9.884-9.884c-5.458,0-9.884,4.425-9.884,9.884v22.732H91.423 C85.965,187.54,81.539,191.965,81.539,197.424z" fill="currentColor"></path></g></g></g></svg>